<?xml version="1.0" encoding="utf-8" standalone="no"?>
<!DOCTYPE svg PUBLIC "-//W3C//DTD SVG 1.1//EN"
  "http://www.w3.org/Graphics/SVG/1.1/DTD/svg11.dtd">
<svg xmlns:xlink="http://www.w3.org/1999/xlink" width="633.568pt" height="451.408pt" viewBox="0 0 633.568 451.408" xmlns="http://www.w3.org/2000/svg" version="1.1">
 <metadata>
  <rdf:RDF xmlns:dc="http://purl.org/dc/elements/1.1/" xmlns:cc="http://creativecommons.org/ns#" xmlns:rdf="http://www.w3.org/1999/02/22-rdf-syntax-ns#">
   <cc:Work>
    <dc:type rdf:resource="http://purl.org/dc/dcmitype/StillImage"/>
    <dc:date>2026-05-29T18:36:28.556420</dc:date>
    <dc:format>image/svg+xml</dc:format>
    <dc:creator>
     <cc:Agent>
      <dc:title>Matplotlib v3.10.0, https://matplotlib.org/</dc:title>
     </cc:Agent>
    </dc:creator>
   </cc:Work>
  </rdf:RDF>
 </metadata>
 <defs>
  <style type="text/css">*{stroke-linejoin: round; stroke-linecap: butt}</style>
 </defs>
 <g id="figure_1">
  <g id="patch_1">
   <path d="M 0 451.408 
L 633.568 451.408 
L 633.568 0 
L 0 0 
z
" style="fill: #ffffff"/>
  </g>
  <g id="axes_1">
   <g id="patch_2">
    <path d="M 32.72 418.688 
L 626.368 418.688 
L 626.368 36.6 
L 32.72 36.6 
z
" style="fill: #ffffff"/>
   </g>
   <g id="matplotlib.axis_1">
    <g id="xtick_1">
     <g id="line2d_1">
      <path d="M 92.0848 418.688 
L 92.0848 36.6 
" clip-path="url(#pee2247d98d)" style="fill: none; stroke: #cccccc; stroke-linecap: round"/>
     </g>
     <g id="line2d_2">
      <defs>
       <path id="m936d72849f" d="M 0 0 
L 0 6 
" style="stroke: #808080; stroke-width: 1.25"/>
      </defs>
      <g>
       <use xlink:href="#m936d72849f" x="92.0848" y="418.688" style="fill: #808080; stroke: #808080; stroke-width: 1.25"/>
      </g>
     </g>
    </g>
    <g id="xtick_2">
     <g id="line2d_3">
      <path d="M 210.8144 418.688 
L 210.8144 36.6 
" clip-path="url(#pee2247d98d)" style="fill: none; stroke: #cccccc; stroke-linecap: round"/>
     </g>
     <g id="line2d_4">
      <g>
       <use xlink:href="#m936d72849f" x="210.8144" y="418.688" style="fill: #808080; stroke: #808080; stroke-width: 1.25"/>
      </g>
     </g>
    </g>
    <g id="xtick_3">
     <g id="line2d_5">
      <path d="M 329.544 418.688 
L 329.544 36.6 
" clip-path="url(#pee2247d98d)" style="fill: none; stroke: #cccccc; stroke-linecap: round"/>
     </g>
     <g id="line2d_6">
      <g>
       <use xlink:href="#m936d72849f" x="329.544" y="418.688" style="fill: #808080; stroke: #808080; stroke-width: 1.25"/>
      </g>
     </g>
    </g>
    <g id="xtick_4">
     <g id="line2d_7">
      <path d="M 448.2736 418.688 
L 448.2736 36.6 
" clip-path="url(#pee2247d98d)" style="fill: none; stroke: #cccccc; stroke-linecap: round"/>
     </g>
     <g id="line2d_8">
      <g>
       <use xlink:href="#m936d72849f" x="448.2736" y="418.688" style="fill: #808080; stroke: #808080; stroke-width: 1.25"/>
      </g>
     </g>
    </g>
    <g id="xtick_5">
     <g id="line2d_9">
      <path d="M 567.0032 418.688 
L 567.0032 36.6 
" clip-path="url(#pee2247d98d)" style="fill: none; stroke: #cccccc; stroke-linecap: round"/>
     </g>
     <g id="line2d_10">
      <g>
       <use xlink:href="#m936d72849f" x="567.0032" y="418.688" style="fill: #808080; stroke: #808080; stroke-width: 1.25"/>
      </g>
     </g>
    </g>
    <g id="text_1">
     <!-- Parámetro de la red $\theta_1$ -->
     <g style="fill: #262626" transform="translate(238.264 440.8805) scale(0.16 -0.16)">
      <defs>
       <path id="DejaVuSans-50" d="M 1259 4147 
L 1259 2394 
L 2053 2394 
Q 2494 2394 2734 2622 
Q 2975 2850 2975 3272 
Q 2975 3691 2734 3919 
Q 2494 4147 2053 4147 
L 1259 4147 
z
M 628 4666 
L 2053 4666 
Q 2838 4666 3239 4311 
Q 3641 3956 3641 3272 
Q 3641 2581 3239 2228 
Q 2838 1875 2053 1875 
L 1259 1875 
L 1259 0 
L 628 0 
L 628 4666 
z
" transform="scale(0.015625)"/>
       <path id="DejaVuSans-61" d="M 2194 1759 
Q 1497 1759 1228 1600 
Q 959 1441 959 1056 
Q 959 750 1161 570 
Q 1363 391 1709 391 
Q 2188 391 2477 730 
Q 2766 1069 2766 1631 
L 2766 1759 
L 2194 1759 
z
M 3341 1997 
L 3341 0 
L 2766 0 
L 2766 531 
Q 2569 213 2275 61 
Q 1981 -91 1556 -91 
Q 1019 -91 701 211 
Q 384 513 384 1019 
Q 384 1609 779 1909 
Q 1175 2209 1959 2209 
L 2766 2209 
L 2766 2266 
Q 2766 2663 2505 2880 
Q 2244 3097 1772 3097 
Q 1472 3097 1187 3025 
Q 903 2953 641 2809 
L 641 3341 
Q 956 3463 1253 3523 
Q 1550 3584 1831 3584 
Q 2591 3584 2966 3190 
Q 3341 2797 3341 1997 
z
" transform="scale(0.015625)"/>
       <path id="DejaVuSans-72" d="M 2631 2963 
Q 2534 3019 2420 3045 
Q 2306 3072 2169 3072 
Q 1681 3072 1420 2755 
Q 1159 2438 1159 1844 
L 1159 0 
L 581 0 
L 581 3500 
L 1159 3500 
L 1159 2956 
Q 1341 3275 1631 3429 
Q 1922 3584 2338 3584 
Q 2397 3584 2469 3576 
Q 2541 3569 2628 3553 
L 2631 2963 
z
" transform="scale(0.015625)"/>
       <path id="DejaVuSans-e1" d="M 2194 1759 
Q 1497 1759 1228 1600 
Q 959 1441 959 1056 
Q 959 750 1161 570 
Q 1363 391 1709 391 
Q 2188 391 2477 730 
Q 2766 1069 2766 1631 
L 2766 1759 
L 2194 1759 
z
M 3341 1997 
L 3341 0 
L 2766 0 
L 2766 531 
Q 2569 213 2275 61 
Q 1981 -91 1556 -91 
Q 1019 -91 701 211 
Q 384 513 384 1019 
Q 384 1609 779 1909 
Q 1175 2209 1959 2209 
L 2766 2209 
L 2766 2266 
Q 2766 2663 2505 2880 
Q 2244 3097 1772 3097 
Q 1472 3097 1187 3025 
Q 903 2953 641 2809 
L 641 3341 
Q 956 3463 1253 3523 
Q 1550 3584 1831 3584 
Q 2591 3584 2966 3190 
Q 3341 2797 3341 1997 
z
M 2290 5119 
L 2912 5119 
L 1894 3944 
L 1415 3944 
L 2290 5119 
z
" transform="scale(0.015625)"/>
       <path id="DejaVuSans-6d" d="M 3328 2828 
Q 3544 3216 3844 3400 
Q 4144 3584 4550 3584 
Q 5097 3584 5394 3201 
Q 5691 2819 5691 2113 
L 5691 0 
L 5113 0 
L 5113 2094 
Q 5113 2597 4934 2840 
Q 4756 3084 4391 3084 
Q 3944 3084 3684 2787 
Q 3425 2491 3425 1978 
L 3425 0 
L 2847 0 
L 2847 2094 
Q 2847 2600 2669 2842 
Q 2491 3084 2119 3084 
Q 1678 3084 1418 2786 
Q 1159 2488 1159 1978 
L 1159 0 
L 581 0 
L 581 3500 
L 1159 3500 
L 1159 2956 
Q 1356 3278 1631 3431 
Q 1906 3584 2284 3584 
Q 2666 3584 2933 3390 
Q 3200 3197 3328 2828 
z
" transform="scale(0.015625)"/>
       <path id="DejaVuSans-65" d="M 3597 1894 
L 3597 1613 
L 953 1613 
Q 991 1019 1311 708 
Q 1631 397 2203 397 
Q 2534 397 2845 478 
Q 3156 559 3463 722 
L 3463 178 
Q 3153 47 2828 -22 
Q 2503 -91 2169 -91 
Q 1331 -91 842 396 
Q 353 884 353 1716 
Q 353 2575 817 3079 
Q 1281 3584 2069 3584 
Q 2775 3584 3186 3129 
Q 3597 2675 3597 1894 
z
M 3022 2063 
Q 3016 2534 2758 2815 
Q 2500 3097 2075 3097 
Q 1594 3097 1305 2825 
Q 1016 2553 972 2059 
L 3022 2063 
z
" transform="scale(0.015625)"/>
       <path id="DejaVuSans-74" d="M 1172 4494 
L 1172 3500 
L 2356 3500 
L 2356 3053 
L 1172 3053 
L 1172 1153 
Q 1172 725 1289 603 
Q 1406 481 1766 481 
L 2356 481 
L 2356 0 
L 1766 0 
Q 1100 0 847 248 
Q 594 497 594 1153 
L 594 3053 
L 172 3053 
L 172 3500 
L 594 3500 
L 594 4494 
L 1172 4494 
z
" transform="scale(0.015625)"/>
       <path id="DejaVuSans-6f" d="M 1959 3097 
Q 1497 3097 1228 2736 
Q 959 2375 959 1747 
Q 959 1119 1226 758 
Q 1494 397 1959 397 
Q 2419 397 2687 759 
Q 2956 1122 2956 1747 
Q 2956 2369 2687 2733 
Q 2419 3097 1959 3097 
z
M 1959 3584 
Q 2709 3584 3137 3096 
Q 3566 2609 3566 1747 
Q 3566 888 3137 398 
Q 2709 -91 1959 -91 
Q 1206 -91 779 398 
Q 353 888 353 1747 
Q 353 2609 779 3096 
Q 1206 3584 1959 3584 
z
" transform="scale(0.015625)"/>
       <path id="DejaVuSans-20" transform="scale(0.015625)"/>
       <path id="DejaVuSans-64" d="M 2906 2969 
L 2906 4863 
L 3481 4863 
L 3481 0 
L 2906 0 
L 2906 525 
Q 2725 213 2448 61 
Q 2172 -91 1784 -91 
Q 1150 -91 751 415 
Q 353 922 353 1747 
Q 353 2572 751 3078 
Q 1150 3584 1784 3584 
Q 2172 3584 2448 3432 
Q 2725 3281 2906 2969 
z
M 947 1747 
Q 947 1113 1208 752 
Q 1469 391 1925 391 
Q 2381 391 2643 752 
Q 2906 1113 2906 1747 
Q 2906 2381 2643 2742 
Q 2381 3103 1925 3103 
Q 1469 3103 1208 2742 
Q 947 2381 947 1747 
z
" transform="scale(0.015625)"/>
       <path id="DejaVuSans-6c" d="M 603 4863 
L 1178 4863 
L 1178 0 
L 603 0 
L 603 4863 
z
" transform="scale(0.015625)"/>
       <path id="DejaVuSans-Oblique-3b8" d="M 2913 2219 
L 925 2219 
Q 791 1284 928 888 
Q 1100 400 1566 400 
Q 2034 400 2391 891 
Q 2703 1322 2913 2219 
z
M 3009 2750 
Q 3094 3638 2984 3950 
Q 2813 4444 2353 4444 
Q 1875 4444 1525 3956 
Q 1250 3563 1034 2750 
L 3009 2750 
z
M 2444 4913 
Q 3194 4913 3494 4250 
Q 3794 3591 3566 2422 
Q 3341 1256 2781 594 
Q 2225 -72 1475 -72 
Q 722 -72 425 594 
Q 128 1256 353 2422 
Q 581 3591 1134 4250 
Q 1691 4913 2444 4913 
z
" transform="scale(0.015625)"/>
       <path id="DejaVuSans-31" d="M 794 531 
L 1825 531 
L 1825 4091 
L 703 3866 
L 703 4441 
L 1819 4666 
L 2450 4666 
L 2450 531 
L 3481 531 
L 3481 0 
L 794 0 
L 794 531 
z
" transform="scale(0.015625)"/>
      </defs>
      <use xlink:href="#DejaVuSans-50" transform="translate(0 0.015625)"/>
      <use xlink:href="#DejaVuSans-61" transform="translate(60.302734 0.015625)"/>
      <use xlink:href="#DejaVuSans-72" transform="translate(121.582031 0.015625)"/>
      <use xlink:href="#DejaVuSans-e1" transform="translate(162.695312 0.015625)"/>
      <use xlink:href="#DejaVuSans-6d" transform="translate(223.974609 0.015625)"/>
      <use xlink:href="#DejaVuSans-65" transform="translate(321.386719 0.015625)"/>
      <use xlink:href="#DejaVuSans-74" transform="translate(382.910156 0.015625)"/>
      <use xlink:href="#DejaVuSans-72" transform="translate(422.119141 0.015625)"/>
      <use xlink:href="#DejaVuSans-6f" transform="translate(463.232422 0.015625)"/>
      <use xlink:href="#DejaVuSans-20" transform="translate(524.414062 0.015625)"/>
      <use xlink:href="#DejaVuSans-64" transform="translate(556.201172 0.015625)"/>
      <use xlink:href="#DejaVuSans-65" transform="translate(619.677734 0.015625)"/>
      <use xlink:href="#DejaVuSans-20" transform="translate(681.201172 0.015625)"/>
      <use xlink:href="#DejaVuSans-6c" transform="translate(712.988281 0.015625)"/>
      <use xlink:href="#DejaVuSans-61" transform="translate(740.771484 0.015625)"/>
      <use xlink:href="#DejaVuSans-20" transform="translate(802.050781 0.015625)"/>
      <use xlink:href="#DejaVuSans-72" transform="translate(833.837891 0.015625)"/>
      <use xlink:href="#DejaVuSans-65" transform="translate(874.951172 0.015625)"/>
      <use xlink:href="#DejaVuSans-64" transform="translate(936.474609 0.015625)"/>
      <use xlink:href="#DejaVuSans-20" transform="translate(999.951172 0.015625)"/>
      <use xlink:href="#DejaVuSans-Oblique-3b8" transform="translate(1031.738281 0.015625)"/>
      <use xlink:href="#DejaVuSans-31" transform="translate(1092.919922 -16.390625) scale(0.7)"/>
     </g>
    </g>
   </g>
   <g id="matplotlib.axis_2">
    <g id="ytick_1">
     <g id="line2d_11">
      <path d="M 32.72 380.4792 
L 626.368 380.4792 
" clip-path="url(#pee2247d98d)" style="fill: none; stroke: #cccccc; stroke-linecap: round"/>
     </g>
     <g id="line2d_12">
      <defs>
       <path id="me912a37152" d="M 0 0 
L -6 0 
" style="stroke: #808080; stroke-width: 1.25"/>
      </defs>
      <g>
       <use xlink:href="#me912a37152" x="32.72" y="380.4792" style="fill: #808080; stroke: #808080; stroke-width: 1.25"/>
      </g>
     </g>
    </g>
    <g id="ytick_2">
     <g id="line2d_13">
      <path d="M 32.72 304.0616 
L 626.368 304.0616 
" clip-path="url(#pee2247d98d)" style="fill: none; stroke: #cccccc; stroke-linecap: round"/>
     </g>
     <g id="line2d_14">
      <g>
       <use xlink:href="#me912a37152" x="32.72" y="304.0616" style="fill: #808080; stroke: #808080; stroke-width: 1.25"/>
      </g>
     </g>
    </g>
    <g id="ytick_3">
     <g id="line2d_15">
      <path d="M 32.72 227.644 
L 626.368 227.644 
" clip-path="url(#pee2247d98d)" style="fill: none; stroke: #cccccc; stroke-linecap: round"/>
     </g>
     <g id="line2d_16">
      <g>
       <use xlink:href="#me912a37152" x="32.72" y="227.644" style="fill: #808080; stroke: #808080; stroke-width: 1.25"/>
      </g>
     </g>
    </g>
    <g id="ytick_4">
     <g id="line2d_17">
      <path d="M 32.72 151.2264 
L 626.368 151.2264 
" clip-path="url(#pee2247d98d)" style="fill: none; stroke: #cccccc; stroke-linecap: round"/>
     </g>
     <g id="line2d_18">
      <g>
       <use xlink:href="#me912a37152" x="32.72" y="151.2264" style="fill: #808080; stroke: #808080; stroke-width: 1.25"/>
      </g>
     </g>
    </g>
    <g id="ytick_5">
     <g id="line2d_19">
      <path d="M 32.72 74.8088 
L 626.368 74.8088 
" clip-path="url(#pee2247d98d)" style="fill: none; stroke: #cccccc; stroke-linecap: round"/>
     </g>
     <g id="line2d_20">
      <g>
       <use xlink:href="#me912a37152" x="32.72" y="74.8088" style="fill: #808080; stroke: #808080; stroke-width: 1.25"/>
      </g>
     </g>
    </g>
    <g id="text_2">
     <!-- Parámetro de la red $\theta_2$ -->
     <g style="fill: #262626" transform="translate(19.3925 318.924) rotate(-90) scale(0.16 -0.16)">
      <defs>
       <path id="DejaVuSans-32" d="M 1228 531 
L 3431 531 
L 3431 0 
L 469 0 
L 469 531 
Q 828 903 1448 1529 
Q 2069 2156 2228 2338 
Q 2531 2678 2651 2914 
Q 2772 3150 2772 3378 
Q 2772 3750 2511 3984 
Q 2250 4219 1831 4219 
Q 1534 4219 1204 4116 
Q 875 4013 500 3803 
L 500 4441 
Q 881 4594 1212 4672 
Q 1544 4750 1819 4750 
Q 2544 4750 2975 4387 
Q 3406 4025 3406 3419 
Q 3406 3131 3298 2873 
Q 3191 2616 2906 2266 
Q 2828 2175 2409 1742 
Q 1991 1309 1228 531 
z
" transform="scale(0.015625)"/>
      </defs>
      <use xlink:href="#DejaVuSans-50" transform="translate(0 0.015625)"/>
      <use xlink:href="#DejaVuSans-61" transform="translate(60.302734 0.015625)"/>
      <use xlink:href="#DejaVuSans-72" transform="translate(121.582031 0.015625)"/>
      <use xlink:href="#DejaVuSans-e1" transform="translate(162.695312 0.015625)"/>
      <use xlink:href="#DejaVuSans-6d" transform="translate(223.974609 0.015625)"/>
      <use xlink:href="#DejaVuSans-65" transform="translate(321.386719 0.015625)"/>
      <use xlink:href="#DejaVuSans-74" transform="translate(382.910156 0.015625)"/>
      <use xlink:href="#DejaVuSans-72" transform="translate(422.119141 0.015625)"/>
      <use xlink:href="#DejaVuSans-6f" transform="translate(463.232422 0.015625)"/>
      <use xlink:href="#DejaVuSans-20" transform="translate(524.414062 0.015625)"/>
      <use xlink:href="#DejaVuSans-64" transform="translate(556.201172 0.015625)"/>
      <use xlink:href="#DejaVuSans-65" transform="translate(619.677734 0.015625)"/>
      <use xlink:href="#DejaVuSans-20" transform="translate(681.201172 0.015625)"/>
      <use xlink:href="#DejaVuSans-6c" transform="translate(712.988281 0.015625)"/>
      <use xlink:href="#DejaVuSans-61" transform="translate(740.771484 0.015625)"/>
      <use xlink:href="#DejaVuSans-20" transform="translate(802.050781 0.015625)"/>
      <use xlink:href="#DejaVuSans-72" transform="translate(833.837891 0.015625)"/>
      <use xlink:href="#DejaVuSans-65" transform="translate(874.951172 0.015625)"/>
      <use xlink:href="#DejaVuSans-64" transform="translate(936.474609 0.015625)"/>
      <use xlink:href="#DejaVuSans-20" transform="translate(999.951172 0.015625)"/>
      <use xlink:href="#DejaVuSans-Oblique-3b8" transform="translate(1031.738281 0.015625)"/>
      <use xlink:href="#DejaVuSans-32" transform="translate(1092.919922 -16.390625) scale(0.7)"/>
     </g>
    </g>
   </g>
   <g id="QuadContourSet_1">
    <path clip-path="url(#pee2247d98d)" style="fill: none; stroke: #ffffff; stroke-opacity: 0.5; stroke-width: 1.5"/>
    <path d="M 290.567111 291.879281 
L 284.570667 291.238495 
L 272.577778 289.598218 
L 260.584889 287.571994 
L 254.588444 286.344038 
L 242.595556 283.562276 
L 230.602667 280.143884 
L 224.606222 278.155618 
L 218.262615 275.887434 
L 208.985484 272.02796 
L 206.616889 270.919238 
L 200.620444 267.952354 
L 194.206856 264.30901 
L 188.352719 260.449535 
L 182.631111 255.950491 
L 179.129188 252.730586 
L 175.573757 248.871111 
L 172.690851 245.011636 
L 170.393923 241.152162 
L 168.728244 237.292687 
L 167.617791 233.433212 
L 167.062565 229.573737 
L 167.062565 225.714263 
L 167.617791 221.854788 
L 168.728244 217.995313 
L 170.638222 213.711296 
L 172.690851 210.276364 
L 175.573757 206.416889 
L 179.129188 202.557414 
L 183.355681 198.697939 
L 188.627556 194.649779 
L 194.624 190.731984 
L 201.020207 187.119515 
L 208.985484 183.26004 
L 212.613333 181.703386 
L 218.609778 179.269937 
L 229.332831 175.541091 
L 236.599111 173.379785 
L 242.766883 171.681616 
L 254.588444 168.943962 
L 260.584889 167.716006 
L 272.577778 165.689782 
L 284.570667 164.049505 
L 290.567111 163.408719 
L 302.56 162.409796 
L 314.552889 161.774117 
L 326.545778 161.501684 
L 338.538667 161.592495 
L 350.531556 162.046551 
L 362.524444 162.863852 
L 374.517333 164.049505 
L 386.510222 165.689782 
L 398.503111 167.716006 
L 404.499556 168.943962 
L 416.492444 171.725724 
L 428.485333 175.144116 
L 434.481778 177.132382 
L 440.825385 179.400566 
L 450.102516 183.26004 
L 452.471111 184.368762 
L 458.467556 187.335646 
L 464.881144 190.97899 
L 470.735281 194.838465 
L 476.456889 199.337509 
L 479.958812 202.557414 
L 483.514243 206.416889 
L 486.397149 210.276364 
L 488.694077 214.135838 
L 490.359756 217.995313 
L 491.470209 221.854788 
L 492.025435 225.714263 
L 492.025435 229.573737 
L 491.470209 233.433212 
L 490.359756 237.292687 
L 488.449778 241.576704 
L 486.397149 245.011636 
L 483.514243 248.871111 
L 479.958812 252.730586 
L 475.732319 256.590061 
L 470.460444 260.638221 
L 464.464 264.556016 
L 458.067793 268.168485 
L 450.102516 272.02796 
L 446.474667 273.584614 
L 440.478222 276.018063 
L 429.755169 279.746909 
L 422.488889 281.908215 
L 416.321117 283.606384 
L 404.499556 286.344038 
L 398.503111 287.571994 
L 386.510222 289.598218 
L 374.517333 291.238495 
L 368.520889 291.879281 
L 356.528 292.878204 
L 344.535111 293.513883 
L 332.542222 293.786316 
L 320.549333 293.695505 
L 308.556444 293.241449 
L 296.563556 292.424148 
L 290.567111 291.879281 
L 290.567111 291.879281 
" clip-path="url(#pee2247d98d)" style="fill: none; stroke: #f5f5f5; stroke-opacity: 0.5; stroke-width: 1.5"/>
    <path d="M 278.574222 318.89726 
L 272.819301 318.341657 
L 272.577778 318.317325 
L 266.581333 317.646112 
L 260.584889 316.907778 
L 254.588444 316.102322 
L 248.592 315.229745 
L 243.821614 314.482182 
L 242.595556 314.281314 
L 236.599111 313.22873 
L 230.602667 312.105973 
L 224.606222 310.913045 
L 223.227873 310.622707 
L 218.609778 309.603622 
L 212.613333 308.20686 
L 206.725574 306.763232 
L 206.616889 306.735251 
L 200.620444 305.114272 
L 194.624 303.416103 
L 192.893504 302.903758 
L 188.627556 301.57427 
L 182.631111 299.62422 
L 180.919126 299.044283 
L 176.634667 297.512286 
L 170.638222 295.282367 
L 170.385594 295.184808 
L 164.641778 292.836204 
L 161.078712 291.325333 
L 158.645333 290.229001 
L 152.723844 287.465859 
L 152.648889 287.42855 
L 146.652444 284.340971 
L 145.271811 283.606384 
L 140.656 280.975049 
L 138.568956 279.746909 
L 134.659556 277.269423 
L 132.5449 275.887434 
L 128.663111 273.139167 
L 127.13975 272.02796 
L 122.666667 268.468471 
L 122.300455 268.168485 
L 118.017281 264.30901 
L 116.670222 262.960338 
L 114.232085 260.449535 
L 110.900727 256.590061 
L 110.673778 256.289573 
L 108.058437 252.730586 
L 105.627446 248.871111 
L 104.677333 247.061017 
L 103.629928 245.011636 
L 102.051916 241.152162 
L 100.868408 237.292687 
L 100.079402 233.433212 
L 99.684899 229.573737 
L 99.684899 225.714263 
L 100.079402 221.854788 
L 100.868408 217.995313 
L 102.051916 214.135838 
L 103.629928 210.276364 
L 104.677333 208.226983 
L 105.627446 206.416889 
L 108.058437 202.557414 
L 110.673778 198.998427 
L 110.900727 198.697939 
L 114.232085 194.838465 
L 116.670222 192.327662 
L 118.017281 190.97899 
L 122.300455 187.119515 
L 122.666667 186.819529 
L 127.13975 183.26004 
L 128.663111 182.148833 
L 132.5449 179.400566 
L 134.659556 178.018577 
L 138.568956 175.541091 
L 140.656 174.312951 
L 145.271811 171.681616 
L 146.652444 170.947029 
L 152.648889 167.85945 
L 152.723844 167.822141 
L 158.645333 165.058999 
L 161.078712 163.962667 
L 164.641778 162.451796 
L 170.385594 160.103192 
L 170.638222 160.005633 
L 176.634667 157.775714 
L 180.919126 156.243717 
L 182.631111 155.66378 
L 188.627556 153.71373 
L 192.893504 152.384242 
L 194.624 151.871897 
L 200.620444 150.173728 
L 206.616889 148.552749 
L 206.725574 148.524768 
L 212.613333 147.08114 
L 218.609778 145.684378 
L 223.227873 144.665293 
L 224.606222 144.374955 
L 230.602667 143.182027 
L 236.599111 142.05927 
L 242.595556 141.006686 
L 243.821614 140.805818 
L 248.592 140.058255 
L 254.588444 139.185678 
L 260.584889 138.380222 
L 266.581333 137.641888 
L 272.577778 136.970675 
L 272.819301 136.946343 
L 278.574222 136.39074 
L 284.570667 135.876143 
L 290.567111 135.425871 
L 296.563556 135.039924 
L 302.56 134.718301 
L 308.556444 134.461003 
L 314.552889 134.268029 
L 320.549333 134.13938 
L 326.545778 134.075055 
L 332.542222 134.075055 
L 338.538667 134.13938 
L 344.535111 134.268029 
L 350.531556 134.461003 
L 356.528 134.718301 
L 362.524444 135.039924 
L 368.520889 135.425871 
L 374.517333 135.876143 
L 380.513778 136.39074 
L 386.268699 136.946343 
L 386.510222 136.970675 
L 392.506667 137.641888 
L 398.503111 138.380222 
L 404.499556 139.185678 
L 410.496 140.058255 
L 415.266386 140.805818 
L 416.492444 141.006686 
L 422.488889 142.05927 
L 428.485333 143.182027 
L 434.481778 144.374955 
L 435.860127 144.665293 
L 440.478222 145.684378 
L 446.474667 147.08114 
L 452.362426 148.524768 
L 452.471111 148.552749 
L 458.467556 150.173728 
L 464.464 151.871897 
L 466.194496 152.384242 
L 470.460444 153.71373 
L 476.456889 155.66378 
L 478.168874 156.243717 
L 482.453333 157.775714 
L 488.449778 160.005633 
L 488.702406 160.103192 
L 494.446222 162.451796 
L 498.009288 163.962667 
L 500.442667 165.058999 
L 506.364156 167.822141 
L 506.439111 167.85945 
L 512.435556 170.947029 
L 513.816189 171.681616 
L 518.432 174.312951 
L 520.519044 175.541091 
L 524.428444 178.018577 
L 526.5431 179.400566 
L 530.424889 182.148833 
L 531.94825 183.26004 
L 536.421333 186.819529 
L 536.787545 187.119515 
L 541.070719 190.97899 
L 542.417778 192.327662 
L 544.855915 194.838465 
L 548.187273 198.697939 
L 548.414222 198.998427 
L 551.029563 202.557414 
L 553.460554 206.416889 
L 554.410667 208.226983 
L 555.458072 210.276364 
L 557.036084 214.135838 
L 558.219592 217.995313 
L 559.008598 221.854788 
L 559.403101 225.714263 
L 559.403101 229.573737 
L 559.008598 233.433212 
L 558.219592 237.292687 
L 557.036084 241.152162 
L 555.458072 245.011636 
L 554.410667 247.061017 
L 553.460554 248.871111 
L 551.029563 252.730586 
L 548.414222 256.289573 
L 548.187273 256.590061 
L 544.855915 260.449535 
L 542.417778 262.960338 
L 541.070719 264.30901 
L 536.787545 268.168485 
L 536.421333 268.468471 
L 531.94825 272.02796 
L 530.424889 273.139167 
L 526.5431 275.887434 
L 524.428444 277.269423 
L 520.519044 279.746909 
L 518.432 280.975049 
L 513.816189 283.606384 
L 512.435556 284.340971 
L 506.439111 287.42855 
L 506.364156 287.465859 
L 500.442667 290.229001 
L 498.009288 291.325333 
L 494.446222 292.836204 
L 488.702406 295.184808 
L 488.449778 295.282367 
L 482.453333 297.512286 
L 478.168874 299.044283 
L 476.456889 299.62422 
L 470.460444 301.57427 
L 466.194496 302.903758 
L 464.464 303.416103 
L 458.467556 305.114272 
L 452.471111 306.735251 
L 452.362426 306.763232 
L 446.474667 308.20686 
L 440.478222 309.603622 
L 435.860127 310.622707 
L 434.481778 310.913045 
L 428.485333 312.105973 
L 422.488889 313.22873 
L 416.492444 314.281314 
L 415.266386 314.482182 
L 410.496 315.229745 
L 404.499556 316.102322 
L 398.503111 316.907778 
L 392.506667 317.646112 
L 386.510222 318.317325 
L 386.268699 318.341657 
L 380.513778 318.89726 
L 374.517333 319.411857 
L 368.520889 319.862129 
L 362.524444 320.248076 
L 356.528 320.569699 
L 350.531556 320.826997 
L 344.535111 321.019971 
L 338.538667 321.14862 
L 332.542222 321.212945 
L 326.545778 321.212945 
L 320.549333 321.14862 
L 314.552889 321.019971 
L 308.556444 320.826997 
L 302.56 320.569699 
L 296.563556 320.248076 
L 290.567111 319.862129 
L 284.570667 319.411857 
L 278.574222 318.89726 
z
" clip-path="url(#pee2247d98d)" style="fill: none; stroke: #e9e9e9; stroke-opacity: 0.5; stroke-width: 1.5"/>
    <path d="M 302.56 341.739079 
L 296.953324 341.498505 
L 296.563556 341.481204 
L 290.567111 341.161799 
L 284.570667 340.78916 
L 278.574222 340.363287 
L 272.577778 339.88418 
L 266.581333 339.351839 
L 260.584889 338.766263 
L 254.588444 338.127453 
L 250.356338 337.63903 
L 248.592 337.428138 
L 242.595556 336.656243 
L 236.599111 335.829212 
L 230.602667 334.947047 
L 224.606222 334.009746 
L 223.21538 333.779556 
L 218.609778 332.989078 
L 212.613333 331.902707 
L 206.616889 330.759159 
L 202.426516 329.920081 
L 200.620444 329.544524 
L 194.624 328.23824 
L 188.627556 326.87258 
L 185.210831 326.060606 
L 182.631111 325.423021 
L 176.634667 323.879231 
L 170.638222 322.273689 
L 170.377266 322.201131 
L 164.641778 320.539949 
L 158.645333 318.738861 
L 157.368504 318.341657 
L 152.648889 316.809613 
L 146.652444 314.795974 
L 145.748142 314.482182 
L 140.656 312.634897 
L 135.282624 310.622707 
L 134.659556 310.378274 
L 128.663111 307.952318 
L 125.810391 306.763232 
L 122.666667 305.38733 
L 117.154221 302.903758 
L 116.670222 302.67422 
L 110.673778 299.749145 
L 109.267855 299.044283 
L 104.677333 296.614958 
L 102.045999 295.184808 
L 98.680889 293.24826 
L 95.425127 291.325333 
L 92.684444 289.605455 
L 89.360166 287.465859 
L 86.688 285.631322 
L 83.810438 283.606384 
L 80.691556 281.254861 
L 78.739142 279.746909 
L 74.695111 276.383228 
L 74.112898 275.887434 
L 69.929332 272.02796 
L 68.698667 270.789419 
L 66.153585 268.168485 
L 62.746514 264.30901 
L 62.702222 264.253262 
L 59.747308 260.449535 
L 57.082221 256.590061 
L 56.705778 255.967031 
L 54.792782 252.730586 
L 52.837419 248.871111 
L 51.207951 245.011636 
L 50.709333 243.535387 
L 49.921503 241.152162 
L 48.964623 237.292687 
L 48.326704 233.433212 
L 48.007744 229.573737 
L 48.007744 225.714263 
L 48.326704 221.854788 
L 48.964623 217.995313 
L 49.921503 214.135838 
L 50.709333 211.752613 
L 51.207951 210.276364 
L 52.837419 206.416889 
L 54.792782 202.557414 
L 56.705778 199.320969 
L 57.082221 198.697939 
L 59.747308 194.838465 
L 62.702222 191.034738 
L 62.746514 190.97899 
L 66.153585 187.119515 
L 68.698667 184.498581 
L 69.929332 183.26004 
L 74.112898 179.400566 
L 74.695111 178.904772 
L 78.739142 175.541091 
L 80.691556 174.033139 
L 83.810438 171.681616 
L 86.688 169.656678 
L 89.360166 167.822141 
L 92.684444 165.682545 
L 95.425127 163.962667 
L 98.680889 162.03974 
L 102.045999 160.103192 
L 104.677333 158.673042 
L 109.267855 156.243717 
L 110.673778 155.538855 
L 116.670222 152.61378 
L 117.154221 152.384242 
L 122.666667 149.90067 
L 125.810391 148.524768 
L 128.663111 147.335682 
L 134.659556 144.909726 
L 135.282624 144.665293 
L 140.656 142.653103 
L 145.748142 140.805818 
L 146.652444 140.492026 
L 152.648889 138.478387 
L 157.368504 136.946343 
L 158.645333 136.549139 
L 164.641778 134.748051 
L 170.377266 133.086869 
L 170.638222 133.014311 
L 176.634667 131.408769 
L 182.631111 129.864979 
L 185.210831 129.227394 
L 188.627556 128.41542 
L 194.624 127.04976 
L 200.620444 125.743476 
L 202.426516 125.367919 
L 206.616889 124.528841 
L 212.613333 123.385293 
L 218.609778 122.298922 
L 223.21538 121.508444 
L 224.606222 121.278254 
L 230.602667 120.340953 
L 236.599111 119.458788 
L 242.595556 118.631757 
L 248.592 117.859862 
L 250.356338 117.64897 
L 254.588444 117.160547 
L 260.584889 116.521737 
L 266.581333 115.936161 
L 272.577778 115.40382 
L 278.574222 114.924713 
L 284.570667 114.49884 
L 290.567111 114.126201 
L 296.563556 113.806796 
L 296.953324 113.789495 
L 302.56 113.548921 
L 308.556444 113.343082 
L 314.552889 113.188703 
L 320.549333 113.085784 
L 326.545778 113.034324 
L 332.542222 113.034324 
L 338.538667 113.085784 
L 344.535111 113.188703 
L 350.531556 113.343082 
L 356.528 113.548921 
L 362.134676 113.789495 
L 362.524444 113.806796 
L 368.520889 114.126201 
L 374.517333 114.49884 
L 380.513778 114.924713 
L 386.510222 115.40382 
L 392.506667 115.936161 
L 398.503111 116.521737 
L 404.499556 117.160547 
L 408.731662 117.64897 
L 410.496 117.859862 
L 416.492444 118.631757 
L 422.488889 119.458788 
L 428.485333 120.340953 
L 434.481778 121.278254 
L 435.87262 121.508444 
L 440.478222 122.298922 
L 446.474667 123.385293 
L 452.471111 124.528841 
L 456.661484 125.367919 
L 458.467556 125.743476 
L 464.464 127.04976 
L 470.460444 128.41542 
L 473.877169 129.227394 
L 476.456889 129.864979 
L 482.453333 131.408769 
L 488.449778 133.014311 
L 488.710734 133.086869 
L 494.446222 134.748051 
L 500.442667 136.549139 
L 501.719496 136.946343 
L 506.439111 138.478387 
L 512.435556 140.492026 
L 513.339858 140.805818 
L 518.432 142.653103 
L 523.805376 144.665293 
L 524.428444 144.909726 
L 530.424889 147.335682 
L 533.277609 148.524768 
L 536.421333 149.90067 
L 541.933779 152.384242 
L 542.417778 152.61378 
L 548.414222 155.538855 
L 549.820145 156.243717 
L 554.410667 158.673042 
L 557.042001 160.103192 
L 560.407111 162.03974 
L 563.662873 163.962667 
L 566.403556 165.682545 
L 569.727834 167.822141 
L 572.4 169.656678 
L 575.277562 171.681616 
L 578.396444 174.033139 
L 580.348858 175.541091 
L 584.392889 178.904772 
L 584.975102 179.400566 
L 589.158668 183.26004 
L 590.389333 184.498581 
L 592.934415 187.119515 
L 596.341486 190.97899 
L 596.385778 191.034738 
L 599.340692 194.838465 
L 602.005779 198.697939 
L 602.382222 199.320969 
L 604.295218 202.557414 
L 606.250581 206.416889 
L 607.880049 210.276364 
L 608.378667 211.752613 
L 609.166497 214.135838 
L 610.123377 217.995313 
L 610.761296 221.854788 
L 611.080256 225.714263 
L 611.080256 229.573737 
L 610.761296 233.433212 
L 610.123377 237.292687 
L 609.166497 241.152162 
L 608.378667 243.535387 
L 607.880049 245.011636 
L 606.250581 248.871111 
L 604.295218 252.730586 
L 602.382222 255.967031 
L 602.005779 256.590061 
L 599.340692 260.449535 
L 596.385778 264.253262 
L 596.341486 264.30901 
L 592.934415 268.168485 
L 590.389333 270.789419 
L 589.158668 272.02796 
L 584.975102 275.887434 
L 584.392889 276.383228 
L 580.348858 279.746909 
L 578.396444 281.254861 
L 575.277562 283.606384 
L 572.4 285.631322 
L 569.727834 287.465859 
L 566.403556 289.605455 
L 563.662873 291.325333 
L 560.407111 293.24826 
L 557.042001 295.184808 
L 554.410667 296.614958 
L 549.820145 299.044283 
L 548.414222 299.749145 
L 542.417778 302.67422 
L 541.933779 302.903758 
L 536.421333 305.38733 
L 533.277609 306.763232 
L 530.424889 307.952318 
L 524.428444 310.378274 
L 523.805376 310.622707 
L 518.432 312.634897 
L 513.339858 314.482182 
L 512.435556 314.795974 
L 506.439111 316.809613 
L 501.719496 318.341657 
L 500.442667 318.738861 
L 494.446222 320.539949 
L 488.710734 322.201131 
L 488.449778 322.273689 
L 482.453333 323.879231 
L 476.456889 325.423021 
L 473.877169 326.060606 
L 470.460444 326.87258 
L 464.464 328.23824 
L 458.467556 329.544524 
L 456.661484 329.920081 
L 452.471111 330.759159 
L 446.474667 331.902707 
L 440.478222 332.989078 
L 435.87262 333.779556 
L 434.481778 334.009746 
L 428.485333 334.947047 
L 422.488889 335.829212 
L 416.492444 336.656243 
L 410.496 337.428138 
L 408.731662 337.63903 
L 404.499556 338.127453 
L 398.503111 338.766263 
L 392.506667 339.351839 
L 386.510222 339.88418 
L 380.513778 340.363287 
L 374.517333 340.78916 
L 368.520889 341.161799 
L 362.524444 341.481204 
L 362.134676 341.498505 
L 356.528 341.739079 
L 350.531556 341.944918 
L 344.535111 342.099297 
L 338.538667 342.202216 
L 332.542222 342.253676 
L 326.545778 342.253676 
L 320.549333 342.202216 
L 314.552889 342.099297 
L 308.556444 341.944918 
L 302.56 341.739079 
z
" clip-path="url(#pee2247d98d)" style="fill: none; stroke: #d9d9d9; stroke-opacity: 0.5; stroke-width: 1.5"/>
    <path d="M 626.368 281.644944 
L 624.191229 283.606384 
L 619.586084 287.465859 
L 614.375111 291.480847 
L 608.378667 295.71763 
L 602.382222 299.630314 
L 596.385778 303.267513 
L 590.209789 306.763232 
L 582.852731 310.622707 
L 572.4 315.637507 
L 566.359351 318.341657 
L 554.410667 323.233155 
L 546.950507 326.060606 
L 535.929713 329.920081 
L 523.812403 333.779556 
L 510.379275 337.63903 
L 500.442667 340.232198 
L 488.449778 343.10469 
L 476.456889 345.71716 
L 464.464 348.057745 
L 452.471111 350.168453 
L 440.478222 352.049947 
L 428.485333 353.718421 
L 416.492444 355.168648 
L 404.499556 356.431748 
L 392.506667 357.49092 
L 380.513778 358.353626 
L 368.520889 359.03471 
L 356.528 359.534171 
L 344.535111 359.85201 
L 332.542222 359.988227 
L 320.549333 359.942821 
L 308.556444 359.715793 
L 296.563556 359.307143 
L 284.570667 358.716871 
L 272.577778 357.944976 
L 259.978998 356.936404 
L 248.592 355.823589 
L 236.599111 354.466925 
L 224.606222 352.918329 
L 212.613333 351.133322 
L 200.620444 349.153337 
L 188.627556 346.912352 
L 176.634667 344.442641 
L 163.739634 341.498505 
L 152.648889 338.688408 
L 146.652444 337.071825 
L 134.659556 333.591585 
L 122.666667 329.754569 
L 110.673778 325.517964 
L 98.680889 320.831822 
L 92.684444 318.322359 
L 84.17059 314.482182 
L 74.695111 309.829677 
L 68.698667 306.663851 
L 62.074261 302.903758 
L 55.765574 299.044283 
L 49.916718 295.184808 
L 44.498953 291.325333 
L 38.716444 286.818753 
L 32.72 281.644944 
M 32.72 173.643056 
L 34.896771 171.681616 
L 39.501916 167.822141 
L 44.712889 163.807153 
L 50.709333 159.57037 
L 56.705778 155.657686 
L 62.702222 152.020487 
L 68.878211 148.524768 
L 76.235269 144.665293 
L 86.688 139.650493 
L 92.728649 136.946343 
L 104.677333 132.054845 
L 112.137493 129.227394 
L 123.158287 125.367919 
L 135.275597 121.508444 
L 148.708725 117.64897 
L 158.645333 115.055802 
L 170.638222 112.18331 
L 182.631111 109.57084 
L 194.624 107.230255 
L 206.616889 105.119547 
L 218.609778 103.238053 
L 230.602667 101.569579 
L 242.595556 100.119352 
L 254.588444 98.856252 
L 266.581333 97.79708 
L 278.574222 96.934374 
L 290.567111 96.25329 
L 302.56 95.753829 
L 314.552889 95.43599 
L 326.545778 95.299773 
L 338.538667 95.345179 
L 350.531556 95.572207 
L 362.524444 95.980857 
L 374.517333 96.571129 
L 386.510222 97.343024 
L 399.109002 98.351596 
L 410.496 99.464411 
L 422.488889 100.821075 
L 434.481778 102.369671 
L 446.474667 104.154678 
L 458.467556 106.134663 
L 470.460444 108.375648 
L 482.453333 110.845359 
L 495.348366 113.789495 
L 506.439111 116.599592 
L 512.435556 118.216175 
L 524.428444 121.696415 
L 536.421333 125.533431 
L 548.414222 129.770036 
L 560.407111 134.456178 
L 566.403556 136.965641 
L 574.91741 140.805818 
L 584.392889 145.458323 
L 590.389333 148.624149 
L 597.013739 152.384242 
L 603.322426 156.243717 
L 609.171282 160.103192 
L 614.589047 163.962667 
L 620.371556 168.469247 
L 626.368 173.643056 
L 626.368 173.643056 
" clip-path="url(#pee2247d98d)" style="fill: none; stroke: #c6c6c6; stroke-opacity: 0.5; stroke-width: 1.5"/>
    <path d="M 626.368 313.061193 
L 620.371556 316.411919 
L 614.375111 319.579905 
L 608.378667 322.587079 
L 601.016365 326.060606 
L 590.389333 330.70627 
L 582.858085 333.779556 
L 572.4 337.758807 
L 560.407111 341.948777 
L 548.414222 345.793727 
L 536.421333 349.326002 
L 522.414014 353.076929 
L 512.435556 355.521263 
L 500.442667 358.241815 
L 488.161487 360.795879 
L 476.456889 362.990266 
L 464.464 365.052022 
L 452.471111 366.895993 
L 440.478222 368.566983 
L 428.485333 370.027325 
L 416.492444 371.320771 
L 404.499556 372.445399 
L 392.506667 373.379798 
L 380.513778 374.151693 
L 368.520889 374.761083 
L 356.528 375.20797 
L 344.535111 375.492352 
L 332.542222 375.614231 
L 320.549333 375.573604 
L 308.556444 375.370474 
L 296.563556 375.00484 
L 284.570667 374.476701 
L 272.577778 373.786058 
L 260.584889 372.932911 
L 248.592 371.904907 
L 236.599111 370.69491 
L 224.606222 369.318016 
L 212.613333 367.753654 
L 200.620444 365.995449 
L 188.627556 364.048865 
L 176.634667 361.887559 
L 164.641778 359.513171 
L 152.648889 356.924709 
L 136.673986 353.076929 
L 128.663111 350.966279 
L 116.670222 347.586515 
L 104.677333 343.904244 
L 92.684444 339.888172 
L 86.358927 337.63903 
L 74.695111 333.164898 
L 66.824778 329.920081 
L 56.705778 325.427652 
L 49.911934 322.201131 
L 42.308065 318.341657 
L 35.198122 314.482182 
L 32.72 313.061193 
M 32.72 142.226807 
L 38.716444 138.876081 
L 44.712889 135.708095 
L 50.709333 132.700921 
L 58.071635 129.227394 
L 68.698667 124.58173 
L 76.229915 121.508444 
L 86.688 117.529193 
L 98.680889 113.339223 
L 110.673778 109.494273 
L 122.666667 105.961998 
L 136.673986 102.211071 
L 146.652444 99.766737 
L 158.645333 97.046185 
L 170.926513 94.492121 
L 182.631111 92.297734 
L 194.624 90.235978 
L 206.616889 88.392007 
L 218.609778 86.721017 
L 230.602667 85.260675 
L 242.595556 83.967229 
L 254.588444 82.842601 
L 266.581333 81.908202 
L 278.574222 81.136307 
L 290.567111 80.526917 
L 302.56 80.08003 
L 314.552889 79.795648 
L 326.545778 79.673769 
L 338.538667 79.714396 
L 350.531556 79.917526 
L 362.524444 80.28316 
L 374.517333 80.811299 
L 386.510222 81.501942 
L 398.503111 82.355089 
L 410.496 83.383093 
L 422.488889 84.59309 
L 434.481778 85.969984 
L 446.474667 87.534346 
L 458.467556 89.292551 
L 470.460444 91.239135 
L 482.453333 93.400441 
L 494.446222 95.774829 
L 506.439111 98.363291 
L 522.414014 102.211071 
L 530.424889 104.321721 
L 542.417778 107.701485 
L 554.410667 111.383756 
L 566.403556 115.399828 
L 572.729073 117.64897 
L 584.392889 122.123102 
L 592.263222 125.367919 
L 602.382222 129.860348 
L 609.176066 133.086869 
L 616.779935 136.946343 
L 623.889878 140.805818 
L 626.368 142.226807 
L 626.368 142.226807 
" clip-path="url(#pee2247d98d)" style="fill: none; stroke: #b0b0b0; stroke-opacity: 0.5; stroke-width: 1.5"/>
    <path d="M 626.368 335.697577 
L 620.371556 338.372996 
L 608.378667 343.365848 
L 602.382222 345.720895 
L 590.389333 350.123828 
L 578.396444 354.189745 
L 566.403556 357.948381 
L 554.410667 361.426076 
L 542.381371 364.655354 
L 526.570356 368.514828 
L 518.432 370.34182 
L 506.439111 372.873496 
L 494.446222 375.18918 
L 482.453333 377.313936 
L 464.930028 380.093253 
L 458.467556 381.011325 
L 446.474667 382.59371 
L 434.481778 384.020033 
L 422.488889 385.262595 
L 410.496 386.354544 
L 398.503111 387.29588 
L 386.510222 388.080068 
L 368.520889 388.962234 
L 350.531556 389.513587 
L 332.542222 389.734129 
L 314.552889 389.623858 
L 296.563556 389.182775 
L 278.574222 388.41088 
L 266.581333 387.710067 
L 254.588444 386.844039 
L 242.595556 385.827397 
L 230.602667 384.660141 
L 218.609778 383.32701 
L 206.616889 381.821815 
L 194.157972 380.093253 
L 182.631111 378.303545 
L 170.352281 376.233778 
L 158.645333 374.051651 
L 146.652444 371.635266 
L 132.517644 368.514828 
L 122.666667 366.147148 
L 110.673778 363.058082 
L 98.680889 359.719199 
L 86.688 356.107787 
L 74.695111 352.198296 
L 62.702222 347.96188 
L 50.709333 343.365848 
L 44.712889 340.928234 
L 32.72 335.697577 
M 32.72 119.590423 
L 38.716444 116.915004 
L 50.709333 111.922152 
L 56.705778 109.567105 
L 68.698667 105.164172 
L 80.691556 101.098255 
L 92.684444 97.339619 
L 104.677333 93.861924 
L 116.706629 90.632646 
L 132.517644 86.773172 
L 140.656 84.94618 
L 152.648889 82.414504 
L 164.641778 80.09882 
L 176.634667 77.974064 
L 194.157972 75.194747 
L 200.620444 74.276675 
L 212.613333 72.69429 
L 224.606222 71.267967 
L 236.599111 70.025405 
L 248.592 68.933456 
L 260.584889 67.99212 
L 272.577778 67.207932 
L 290.567111 66.325766 
L 308.556444 65.774413 
L 326.545778 65.553871 
L 344.535111 65.664142 
L 362.524444 66.105225 
L 380.513778 66.87712 
L 392.506667 67.577933 
L 404.499556 68.443961 
L 416.492444 69.460603 
L 428.485333 70.627859 
L 440.478222 71.96099 
L 452.471111 73.466185 
L 464.930028 75.194747 
L 476.456889 76.984455 
L 488.735719 79.054222 
L 500.442667 81.236349 
L 512.435556 83.652734 
L 526.570356 86.773172 
L 536.421333 89.140852 
L 548.414222 92.229918 
L 560.407111 95.568801 
L 572.4 99.180213 
L 584.392889 103.089704 
L 596.385778 107.32612 
L 608.378667 111.922152 
L 614.375111 114.359766 
L 626.368 119.590423 
L 626.368 119.590423 
" clip-path="url(#pee2247d98d)" style="fill: none; stroke: #959595; stroke-opacity: 0.5; stroke-width: 1.5"/>
    <path d="M 626.368 354.355234 
L 614.375111 358.835493 
L 602.382222 362.993574 
L 590.389333 366.856326 
L 578.396444 370.447695 
L 566.403556 373.789105 
L 554.410667 376.899785 
L 541.102843 380.093253 
L 530.424889 382.460075 
L 518.432 384.943953 
L 503.301316 387.812202 
L 488.449778 390.341996 
L 476.456889 392.203925 
L 458.467556 394.68117 
L 446.474667 396.139019 
L 428.485333 398.03367 
L 410.496 399.607615 
L 392.506667 400.842646 
L 374.517333 401.76892 
L 356.528 402.386436 
L 338.538667 402.695194 
L 320.549333 402.695194 
L 302.56 402.386436 
L 284.570667 401.76892 
L 266.581333 400.842646 
L 248.592 399.607615 
L 236.599111 398.595048 
L 218.609778 396.805655 
L 206.616889 395.435113 
L 188.627556 393.065575 
L 176.634667 391.297675 
L 158.645333 388.320366 
L 146.652444 386.111209 
L 134.659556 383.733702 
L 117.985157 380.093253 
L 110.673778 378.364406 
L 98.680889 375.373521 
L 86.688 372.158381 
L 74.09198 368.514828 
L 61.726134 364.655354 
L 50.221325 360.795879 
L 38.716444 356.647528 
L 32.72 354.355234 
M 32.72 100.932766 
L 44.712889 96.452507 
L 56.705778 92.294426 
L 68.698667 88.431674 
L 80.691556 84.840305 
L 92.684444 81.498895 
L 104.677333 78.388215 
L 117.985157 75.194747 
L 128.663111 72.827925 
L 140.656 70.344047 
L 155.786684 67.475798 
L 170.638222 64.946004 
L 182.631111 63.084075 
L 200.620444 60.60683 
L 212.613333 59.148981 
L 230.602667 57.25433 
L 248.592 55.680385 
L 266.581333 54.445354 
L 284.570667 53.51908 
L 302.56 52.901564 
L 320.549333 52.592806 
L 338.538667 52.592806 
L 356.528 52.901564 
L 374.517333 53.51908 
L 392.506667 54.445354 
L 410.496 55.680385 
L 422.488889 56.692952 
L 440.478222 58.482345 
L 452.471111 59.852887 
L 470.460444 62.222425 
L 482.453333 63.990325 
L 500.442667 66.967634 
L 512.435556 69.176791 
L 524.428444 71.554298 
L 541.102843 75.194747 
L 548.414222 76.923594 
L 560.407111 79.914479 
L 572.4 83.129619 
L 584.99602 86.773172 
L 597.361866 90.632646 
L 608.866675 94.492121 
L 620.371556 98.640472 
L 626.368 100.932766 
L 626.368 100.932766 
" clip-path="url(#pee2247d98d)" style="fill: none; stroke: #7e7e7e; stroke-opacity: 0.5; stroke-width: 1.5"/>
    <path d="M 626.368 370.595294 
L 614.375111 374.582837 
L 602.382222 378.306514 
L 590.389333 381.786115 
L 578.396444 385.039499 
L 566.403556 388.082825 
L 551.066028 391.671677 
L 536.421333 394.808173 
L 524.428444 397.175375 
L 512.408072 399.390626 
L 494.446222 402.37057 
L 482.453333 404.168404 
L 464.464 406.584771 
L 452.471111 408.008341 
L 434.481778 409.880597 
L 416.492444 411.447063 
L 398.503111 412.701392 
L 380.513778 413.666261 
L 362.524444 414.341669 
L 344.535111 414.727616 
L 326.545778 414.824103 
L 308.556444 414.631129 
L 290.567111 414.148695 
L 272.577778 413.3768 
L 254.588444 412.315444 
L 236.599111 410.964534 
L 218.609778 409.289358 
L 200.620444 407.318562 
L 188.627556 405.812876 
L 170.335624 403.250101 
L 152.648889 400.415102 
L 140.656 398.298132 
L 126.218237 395.531152 
L 110.673778 392.259125 
L 98.680889 389.516344 
L 86.688 386.583289 
L 74.695111 383.445689 
L 62.702222 380.08781 
L 49.897581 376.233778 
L 37.937824 372.374303 
L 32.72 370.595294 
M 32.72 84.692706 
L 44.712889 80.705163 
L 56.705778 76.981486 
L 68.698667 73.501885 
L 80.691556 70.248501 
L 92.684444 67.205175 
L 108.021972 63.616323 
L 122.666667 60.479827 
L 134.659556 58.112625 
L 146.679928 55.897374 
L 164.641778 52.91743 
L 176.634667 51.119596 
L 194.624 48.703229 
L 206.616889 47.279659 
L 224.606222 45.407403 
L 242.595556 43.840937 
L 260.584889 42.586608 
L 278.574222 41.621739 
L 296.563556 40.946331 
L 314.552889 40.560384 
L 332.542222 40.463897 
L 350.531556 40.656871 
L 368.520889 41.139305 
L 386.510222 41.9112 
L 404.499556 42.972556 
L 422.488889 44.323466 
L 440.478222 45.998642 
L 458.467556 47.969438 
L 470.460444 49.475124 
L 488.752376 52.037899 
L 506.439111 54.872898 
L 518.432 56.989868 
L 532.869763 59.756848 
L 548.414222 63.028875 
L 560.407111 65.771656 
L 572.4 68.704711 
L 584.392889 71.842311 
L 596.385778 75.20019 
L 609.190419 79.054222 
L 621.150176 82.913697 
L 626.368 84.692706 
L 626.368 84.692706 
" clip-path="url(#pee2247d98d)" style="fill: none; stroke: #686868; stroke-opacity: 0.5; stroke-width: 1.5"/>
    <path d="M 196.831782 418.688 
L 182.631111 416.952024 
L 164.641778 414.487605 
L 146.652444 411.689486 
L 134.659556 409.635479 
L 120.97053 407.109576 
L 104.677333 403.817276 
L 92.684444 401.188284 
L 80.691556 398.387163 
L 68.698667 395.401904 
L 54.763451 391.671677 
L 41.352381 387.812202 
L 32.72 385.172698 
M 626.368 385.172698 
L 614.375111 388.800963 
L 602.382222 392.206618 
L 589.887305 395.531152 
L 574.213559 399.390626 
L 560.407111 402.526235 
L 548.414222 405.05902 
L 536.421333 407.434757 
L 518.432 410.68657 
L 506.439111 412.654354 
L 488.449778 415.345222 
L 470.460444 417.708166 
L 462.256218 418.688 
M 32.72 70.115302 
L 44.712889 66.487037 
L 56.705778 63.081382 
L 69.200695 59.756848 
L 84.874441 55.897374 
L 98.680889 52.761765 
L 110.673778 50.22898 
L 122.666667 47.853243 
L 140.656 44.60143 
L 152.648889 42.633646 
L 170.638222 39.942778 
L 188.627556 37.579834 
L 196.831782 36.6 
M 462.256218 36.6 
L 476.456889 38.335976 
L 494.446222 40.800395 
L 512.435556 43.598514 
L 524.428444 45.652521 
L 538.11747 48.178424 
L 554.410667 51.470724 
L 566.403556 54.099716 
L 578.396444 56.900837 
L 590.389333 59.886096 
L 604.324549 63.616323 
L 617.735619 67.475798 
L 626.368 70.115302 
L 626.368 70.115302 
" clip-path="url(#pee2247d98d)" style="fill: none; stroke: #515151; stroke-opacity: 0.5; stroke-width: 1.5"/>
    <path d="M 119.679152 418.688 
L 116.670222 418.134677 
L 110.673778 417.000464 
L 104.677333 415.834745 
L 99.637558 414.828525 
L 98.680889 414.633541 
L 92.684444 413.379212 
L 86.688 412.09272 
L 81.578225 410.969051 
L 80.691556 410.769918 
L 74.695111 409.390361 
L 68.698667 407.977958 
L 65.095689 407.109576 
L 62.702222 406.520167 
L 56.705778 405.009938 
L 50.709333 403.466148 
L 49.888012 403.250101 
L 44.712889 401.858546 
L 38.716444 400.211837 
L 35.787059 399.390626 
L 32.72 398.51128 
M 626.368 398.51128 
L 623.300941 399.390626 
L 620.371556 400.211837 
L 614.375111 401.858546 
L 609.199988 403.250101 
L 608.378667 403.466148 
L 602.382222 405.009938 
L 596.385778 406.520167 
L 593.992311 407.109576 
L 590.389333 407.977958 
L 584.392889 409.390361 
L 578.396444 410.769918 
L 577.509775 410.969051 
L 572.4 412.09272 
L 566.403556 413.379212 
L 560.407111 414.633541 
L 559.450442 414.828525 
L 554.410667 415.834745 
L 548.414222 417.000464 
L 542.417778 418.134677 
L 539.408848 418.688 
M 32.72 56.77672 
L 35.787059 55.897374 
L 38.716444 55.076163 
L 44.712889 53.429454 
L 49.888012 52.037899 
L 50.709333 51.821852 
L 56.705778 50.278062 
L 62.702222 48.767833 
L 65.095689 48.178424 
L 68.698667 47.310042 
L 74.695111 45.897639 
L 80.691556 44.518082 
L 81.578225 44.318949 
L 86.688 43.19528 
L 92.684444 41.908788 
L 98.680889 40.654459 
L 99.637558 40.459475 
L 104.677333 39.453255 
L 110.673778 38.287536 
L 116.670222 37.153323 
L 119.679152 36.6 
M 539.408848 36.6 
L 542.417778 37.153323 
L 548.414222 38.287536 
L 554.410667 39.453255 
L 559.450442 40.459475 
L 560.407111 40.654459 
L 566.403556 41.908788 
L 572.4 43.19528 
L 577.509775 44.318949 
L 578.396444 44.518082 
L 584.392889 45.897639 
L 590.389333 47.310042 
L 593.992311 48.178424 
L 596.385778 48.767833 
L 602.382222 50.278062 
L 608.378667 51.821852 
L 609.199988 52.037899 
L 614.375111 53.429454 
L 620.371556 55.076163 
L 623.300941 55.897374 
L 626.368 56.77672 
" clip-path="url(#pee2247d98d)" style="fill: none; stroke: #333333; stroke-opacity: 0.5; stroke-width: 1.5"/>
    <path d="M 64.068458 418.688 
L 62.702222 418.372153 
L 56.705778 416.954387 
L 50.709333 415.505115 
L 47.969469 414.828525 
L 44.712889 414.007583 
L 38.716444 412.463793 
L 33.029 410.969051 
L 32.72 410.886113 
M 626.368 410.886113 
L 626.059 410.969051 
L 620.371556 412.463793 
L 614.375111 414.007583 
L 611.118531 414.828525 
L 608.378667 415.505115 
L 602.382222 416.954387 
L 596.385778 418.372153 
L 595.019542 418.688 
M 32.72 44.401887 
L 33.029 44.318949 
L 38.716444 42.824207 
L 44.712889 41.280417 
L 47.969469 40.459475 
L 50.709333 39.782885 
L 56.705778 38.333613 
L 62.702222 36.915847 
L 64.068458 36.6 
M 595.019542 36.6 
L 596.385778 36.915847 
L 602.382222 38.333613 
L 608.378667 39.782885 
L 611.118531 40.459475 
L 614.375111 41.280417 
L 620.371556 42.824207 
L 626.059 44.318949 
L 626.368 44.401887 
" clip-path="url(#pee2247d98d)" style="fill: none; stroke: #181818; stroke-opacity: 0.5; stroke-width: 1.5"/>
    <path clip-path="url(#pee2247d98d)" style="fill: none; stroke: #000000; stroke-opacity: 0.5; stroke-width: 1.5"/>
   </g>
   <g id="line2d_21">
    <path d="M 418.5912 208.5396 
L 264.24272 183.70388 
" clip-path="url(#pee2247d98d)" style="fill: none; stroke-dasharray: 5.55,2.4; stroke-dashoffset: 0; stroke: #1a1a1a; stroke-opacity: 0.3; stroke-width: 1.5"/>
   </g>
   <g id="line2d_22">
    <path d="M 353.28992 88.18188 
L 264.24272 183.70388 
" clip-path="url(#pee2247d98d)" style="fill: none; stroke-dasharray: 5.55,2.4; stroke-dashoffset: 0; stroke: #1a1a1a; stroke-opacity: 0.3; stroke-width: 1.5"/>
   </g>
   <g id="patch_3">
    <path d="M 32.72 418.688 
L 32.72 36.6 
" style="fill: none; stroke: #cccccc; stroke-width: 1.25; stroke-linejoin: miter; stroke-linecap: square"/>
   </g>
   <g id="patch_4">
    <path d="M 626.368 418.688 
L 626.368 36.6 
" style="fill: none; stroke: #cccccc; stroke-width: 1.25; stroke-linejoin: miter; stroke-linecap: square"/>
   </g>
   <g id="patch_5">
    <path d="M 32.72 418.688 
L 626.368 418.688 
" style="fill: none; stroke: #cccccc; stroke-width: 1.25; stroke-linejoin: miter; stroke-linecap: square"/>
   </g>
   <g id="patch_6">
    <path d="M 32.72 36.6 
L 626.368 36.6 
" style="fill: none; stroke: #cccccc; stroke-width: 1.25; stroke-linejoin: miter; stroke-linecap: square"/>
   </g>
   <g id="text_3">
    <!-- $\nabla \mathcal{L}_{EMP}$ -->
    <g style="fill: #4682b4" transform="translate(492.7972 160.7786) scale(0.16 -0.16)">
     <defs>
      <path id="DejaVuSans-2207" d="M 2138 659 
L 3444 4047 
L 831 4047 
L 2138 659 
z
M 1791 0 
L -19 4603 
L 4300 4603 
L 2491 0 
L 1791 0 
z
" transform="scale(0.015625)"/>
      <path id="STIXNonUnicode-Italic-e238" d="M 4070 915 
L 4179 800 
Q 3347 -45 2413 -45 
Q 2157 -45 1850 26 
Q 1395 122 1146 122 
Q 1005 122 672 61 
Q 339 0 192 0 
L 230 154 
Q 582 154 730 749 
L 1178 2566 
Q 1286 3008 1516 3353 
Q 1747 3699 2025 3894 
Q 2304 4090 2585 4189 
Q 2867 4288 3123 4288 
Q 3443 4288 3593 4083 
Q 3744 3878 3744 3584 
Q 3744 3347 3593 3200 
Q 3443 3053 3226 3053 
Q 3085 3053 2995 3149 
Q 2906 3245 2906 3379 
Q 2906 3482 2957 3552 
Q 3008 3622 3065 3644 
Q 3123 3667 3174 3705 
Q 3226 3744 3226 3789 
Q 3226 4032 2854 4032 
Q 2522 4032 2310 3785 
Q 2099 3539 1990 3132 
Q 1882 2726 1795 2284 
Q 1709 1843 1549 1363 
Q 1389 883 1158 589 
L 1158 563 
Q 1363 704 1888 704 
Q 2227 704 2460 544 
Q 2694 384 2963 384 
Q 3507 384 4070 915 
z
" transform="scale(0.015625)"/>
      <path id="DejaVuSans-Oblique-45" d="M 1081 4666 
L 4031 4666 
L 3928 4134 
L 1606 4134 
L 1338 2753 
L 3566 2753 
L 3463 2222 
L 1234 2222 
L 909 531 
L 3284 531 
L 3181 0 
L 172 0 
L 1081 4666 
z
" transform="scale(0.015625)"/>
      <path id="DejaVuSans-Oblique-4d" d="M 1081 4666 
L 2028 4666 
L 2572 1522 
L 4378 4666 
L 5350 4666 
L 4441 0 
L 3828 0 
L 4622 4091 
L 2791 897 
L 2175 897 
L 1581 4103 
L 788 0 
L 172 0 
L 1081 4666 
z
" transform="scale(0.015625)"/>
      <path id="DejaVuSans-Oblique-50" d="M 1081 4666 
L 2541 4666 
Q 3178 4666 3512 4369 
Q 3847 4072 3847 3500 
Q 3847 2731 3353 2303 
Q 2859 1875 1966 1875 
L 1172 1875 
L 806 0 
L 172 0 
L 1081 4666 
z
M 1613 4147 
L 1275 2394 
L 2069 2394 
Q 2606 2394 2893 2669 
Q 3181 2944 3181 3456 
Q 3181 3784 2986 3965 
Q 2791 4147 2438 4147 
L 1613 4147 
z
" transform="scale(0.015625)"/>
     </defs>
     <use xlink:href="#DejaVuSans-2207" transform="translate(0 0.078125)"/>
     <use xlink:href="#STIXNonUnicode-Italic-e238" transform="translate(66.894531 0.078125)"/>
     <use xlink:href="#DejaVuSans-Oblique-45" transform="translate(137.15155 -16.328125) scale(0.7)"/>
     <use xlink:href="#DejaVuSans-Oblique-4d" transform="translate(181.380066 -16.328125) scale(0.7)"/>
     <use xlink:href="#DejaVuSans-Oblique-50" transform="translate(241.775574 -16.328125) scale(0.7)"/>
    </g>
   </g>
   <g id="text_4">
    <!-- $ \lambda \nabla \mathcal{L}_{FIS}$ -->
    <g style="fill: #ff8c00" transform="translate(418.5912 92.95798) scale(0.16 -0.16)">
     <defs>
      <path id="DejaVuSans-Oblique-3bb" d="M 2350 4316 
L 3125 0 
L 2516 0 
L 2038 2588 
L 328 0 
L -281 0 
L 1903 3356 
L 1794 3975 
Q 1725 4369 1391 4369 
L 1091 4369 
L 1184 4863 
L 1550 4856 
Q 2253 4847 2350 4316 
z
" transform="scale(0.015625)"/>
      <path id="DejaVuSans-Oblique-46" d="M 1081 4666 
L 3756 4666 
L 3653 4134 
L 1606 4134 
L 1338 2759 
L 3188 2759 
L 3084 2228 
L 1234 2228 
L 800 0 
L 172 0 
L 1081 4666 
z
" transform="scale(0.015625)"/>
      <path id="DejaVuSans-Oblique-49" d="M 1081 4666 
L 1716 4666 
L 806 0 
L 172 0 
L 1081 4666 
z
" transform="scale(0.015625)"/>
      <path id="DejaVuSans-Oblique-53" d="M 3859 4513 
L 3738 3897 
Q 3422 4066 3111 4152 
Q 2800 4238 2509 4238 
Q 1944 4238 1609 3991 
Q 1275 3744 1275 3334 
Q 1275 3109 1398 2989 
Q 1522 2869 2034 2731 
L 2413 2638 
Q 3053 2472 3303 2217 
Q 3553 1963 3553 1503 
Q 3553 797 2998 353 
Q 2444 -91 1538 -91 
Q 1166 -91 791 -17 
Q 416 56 38 206 
L 166 856 
Q 513 641 861 531 
Q 1209 422 1556 422 
Q 2147 422 2503 684 
Q 2859 947 2859 1369 
Q 2859 1650 2717 1795 
Q 2575 1941 2106 2059 
L 1728 2156 
Q 1081 2325 845 2545 
Q 609 2766 609 3163 
Q 609 3859 1145 4304 
Q 1681 4750 2541 4750 
Q 2875 4750 3203 4690 
Q 3531 4631 3859 4513 
z
" transform="scale(0.015625)"/>
     </defs>
     <use xlink:href="#DejaVuSans-Oblique-3bb" transform="translate(0 0.015625)"/>
     <use xlink:href="#DejaVuSans-2207" transform="translate(59.179688 0.015625)"/>
     <use xlink:href="#STIXNonUnicode-Italic-e238" transform="translate(126.074219 0.015625)"/>
     <use xlink:href="#DejaVuSans-Oblique-46" transform="translate(196.331238 -16.390625) scale(0.7)"/>
     <use xlink:href="#DejaVuSans-Oblique-49" transform="translate(236.59491 -16.390625) scale(0.7)"/>
     <use xlink:href="#DejaVuSans-Oblique-53" transform="translate(257.239441 -16.390625) scale(0.7)"/>
    </g>
   </g>
   <g id="text_5">
    <!-- $\nabla \mathcal{L}_{TOT}$ -->
    <g style="fill: #e91e63" transform="translate(323.60752 183.70388) scale(0.16 -0.16)">
     <defs>
      <path id="DejaVuSans-Oblique-54" d="M 378 4666 
L 4325 4666 
L 4225 4134 
L 2559 4134 
L 1759 0 
L 1125 0 
L 1925 4134 
L 275 4134 
L 378 4666 
z
" transform="scale(0.015625)"/>
      <path id="DejaVuSans-Oblique-4f" d="M 2919 4238 
Q 2400 4238 2003 3986 
Q 1606 3734 1313 3219 
Q 1125 2891 1026 2522 
Q 928 2153 928 1778 
Q 928 1128 1239 775 
Q 1550 422 2119 422 
Q 2631 422 3032 676 
Q 3434 931 3719 1434 
Q 3909 1772 4009 2142 
Q 4109 2513 4109 2881 
Q 4109 3528 3796 3883 
Q 3484 4238 2919 4238 
z
M 2100 -91 
Q 1241 -91 748 418 
Q 256 928 256 1813 
Q 256 2319 448 2847 
Q 641 3375 978 3788 
Q 1375 4272 1862 4511 
Q 2350 4750 2938 4750 
Q 3794 4750 4287 4245 
Q 4781 3741 4781 2869 
Q 4781 2331 4593 1812 
Q 4406 1294 4056 872 
Q 3656 384 3173 146 
Q 2691 -91 2100 -91 
z
" transform="scale(0.015625)"/>
     </defs>
     <use xlink:href="#DejaVuSans-2207" transform="translate(0 0.078125)"/>
     <use xlink:href="#STIXNonUnicode-Italic-e238" transform="translate(66.894531 0.078125)"/>
     <use xlink:href="#DejaVuSans-Oblique-54" transform="translate(137.15155 -16.328125) scale(0.7)"/>
     <use xlink:href="#DejaVuSans-Oblique-4f" transform="translate(179.910339 -16.328125) scale(0.7)"/>
     <use xlink:href="#DejaVuSans-Oblique-54" transform="translate(235.007996 -16.328125) scale(0.7)"/>
    </g>
   </g>
   <g id="text_6">
    <g id="patch_7">
     <path d="M 139.9744 391.8192 
L 281.6544 391.8192 
Q 288.6544 391.8192 288.6544 384.8192 
L 288.6544 355.422262 
Q 288.6544 348.422262 281.6544 348.422262 
L 139.9744 348.422262 
Q 132.9744 348.422262 132.9744 355.422262 
L 132.9744 384.8192 
Q 132.9744 391.8192 139.9744 391.8192 
z
" style="fill: #ffffff; opacity: 0.9; stroke: #808080; stroke-linejoin: miter"/>
    </g>
    <!-- Condición -->
    <g style="fill: #262626" transform="translate(176.305494 364.631637) scale(0.14 -0.14)">
     <defs>
      <path id="DejaVuSans-43" d="M 4122 4306 
L 4122 3641 
Q 3803 3938 3442 4084 
Q 3081 4231 2675 4231 
Q 1875 4231 1450 3742 
Q 1025 3253 1025 2328 
Q 1025 1406 1450 917 
Q 1875 428 2675 428 
Q 3081 428 3442 575 
Q 3803 722 4122 1019 
L 4122 359 
Q 3791 134 3420 21 
Q 3050 -91 2638 -91 
Q 1578 -91 968 557 
Q 359 1206 359 2328 
Q 359 3453 968 4101 
Q 1578 4750 2638 4750 
Q 3056 4750 3426 4639 
Q 3797 4528 4122 4306 
z
" transform="scale(0.015625)"/>
      <path id="DejaVuSans-6e" d="M 3513 2113 
L 3513 0 
L 2938 0 
L 2938 2094 
Q 2938 2591 2744 2837 
Q 2550 3084 2163 3084 
Q 1697 3084 1428 2787 
Q 1159 2491 1159 1978 
L 1159 0 
L 581 0 
L 581 3500 
L 1159 3500 
L 1159 2956 
Q 1366 3272 1645 3428 
Q 1925 3584 2291 3584 
Q 2894 3584 3203 3211 
Q 3513 2838 3513 2113 
z
" transform="scale(0.015625)"/>
      <path id="DejaVuSans-69" d="M 603 3500 
L 1178 3500 
L 1178 0 
L 603 0 
L 603 3500 
z
M 603 4863 
L 1178 4863 
L 1178 4134 
L 603 4134 
L 603 4863 
z
" transform="scale(0.015625)"/>
      <path id="DejaVuSans-63" d="M 3122 3366 
L 3122 2828 
Q 2878 2963 2633 3030 
Q 2388 3097 2138 3097 
Q 1578 3097 1268 2742 
Q 959 2388 959 1747 
Q 959 1106 1268 751 
Q 1578 397 2138 397 
Q 2388 397 2633 464 
Q 2878 531 3122 666 
L 3122 134 
Q 2881 22 2623 -34 
Q 2366 -91 2075 -91 
Q 1284 -91 818 406 
Q 353 903 353 1747 
Q 353 2603 823 3093 
Q 1294 3584 2113 3584 
Q 2378 3584 2631 3529 
Q 2884 3475 3122 3366 
z
" transform="scale(0.015625)"/>
      <path id="DejaVuSans-f3" d="M 1959 3097 
Q 1497 3097 1228 2736 
Q 959 2375 959 1747 
Q 959 1119 1226 758 
Q 1494 397 1959 397 
Q 2419 397 2687 759 
Q 2956 1122 2956 1747 
Q 2956 2369 2687 2733 
Q 2419 3097 1959 3097 
z
M 1959 3584 
Q 2709 3584 3137 3096 
Q 3566 2609 3566 1747 
Q 3566 888 3137 398 
Q 2709 -91 1959 -91 
Q 1206 -91 779 398 
Q 353 888 353 1747 
Q 353 2609 779 3096 
Q 1206 3584 1959 3584 
z
M 2394 5119 
L 3016 5119 
L 1998 3944 
L 1519 3944 
L 2394 5119 
z
" transform="scale(0.015625)"/>
     </defs>
     <use xlink:href="#DejaVuSans-43"/>
     <use xlink:href="#DejaVuSans-6f" transform="translate(69.824219 0)"/>
     <use xlink:href="#DejaVuSans-6e" transform="translate(131.005859 0)"/>
     <use xlink:href="#DejaVuSans-64" transform="translate(194.384766 0)"/>
     <use xlink:href="#DejaVuSans-69" transform="translate(257.861328 0)"/>
     <use xlink:href="#DejaVuSans-63" transform="translate(285.644531 0)"/>
     <use xlink:href="#DejaVuSans-69" transform="translate(340.625 0)"/>
     <use xlink:href="#DejaVuSans-f3" transform="translate(368.408203 0)"/>
     <use xlink:href="#DejaVuSans-6e" transform="translate(429.589844 0)"/>
    </g>
    <!-- $\| \nabla\mathcal{L}_{Emp} \|_2 \simeq \lambda\| \nabla\mathcal{L}_{Fis} \|_2$ -->
    <g style="fill: #262626" transform="translate(139.9744 380.4792) scale(0.14 -0.14)">
     <defs>
      <path id="DejaVuSans-2016" d="M 1344 4891 
L 1344 -1509 
L 813 -1509 
L 813 4891 
L 1344 4891 
z
M 2376 4891 
L 2376 -1509 
L 1845 -1509 
L 1845 4891 
L 2376 4891 
z
" transform="scale(0.015625)"/>
      <path id="DejaVuSans-Oblique-6d" d="M 5747 2113 
L 5338 0 
L 4763 0 
L 5166 2094 
Q 5191 2228 5203 2325 
Q 5216 2422 5216 2491 
Q 5216 2772 5059 2928 
Q 4903 3084 4622 3084 
Q 4203 3084 3875 2770 
Q 3547 2456 3450 1953 
L 3066 0 
L 2491 0 
L 2900 2094 
Q 2925 2209 2937 2307 
Q 2950 2406 2950 2484 
Q 2950 2769 2794 2926 
Q 2638 3084 2363 3084 
Q 1938 3084 1609 2770 
Q 1281 2456 1184 1953 
L 800 0 
L 225 0 
L 909 3500 
L 1484 3500 
L 1375 2956 
Q 1609 3263 1923 3423 
Q 2238 3584 2597 3584 
Q 2978 3584 3223 3384 
Q 3469 3184 3519 2828 
Q 3781 3197 4126 3390 
Q 4472 3584 4856 3584 
Q 5306 3584 5551 3325 
Q 5797 3066 5797 2591 
Q 5797 2488 5784 2364 
Q 5772 2241 5747 2113 
z
" transform="scale(0.015625)"/>
      <path id="DejaVuSans-Oblique-70" d="M 3175 2156 
Q 3175 2616 2975 2859 
Q 2775 3103 2400 3103 
Q 2144 3103 1911 2972 
Q 1678 2841 1497 2591 
Q 1319 2344 1212 1994 
Q 1106 1644 1106 1300 
Q 1106 863 1306 627 
Q 1506 391 1875 391 
Q 2147 391 2380 519 
Q 2613 647 2778 891 
Q 2956 1147 3065 1494 
Q 3175 1841 3175 2156 
z
M 1394 2969 
Q 1625 3272 1939 3428 
Q 2253 3584 2638 3584 
Q 3175 3584 3472 3232 
Q 3769 2881 3769 2247 
Q 3769 1728 3584 1258 
Q 3400 788 3053 416 
Q 2822 169 2531 39 
Q 2241 -91 1919 -91 
Q 1547 -91 1294 64 
Q 1041 219 916 525 
L 556 -1331 
L -19 -1331 
L 922 3500 
L 1497 3500 
L 1394 2969 
z
" transform="scale(0.015625)"/>
      <path id="DejaVuSans-2243" d="M 4684 3163 
L 4684 2606 
Q 4356 2359 4076 2251 
Q 3797 2144 3494 2144 
Q 3150 2144 2694 2328 
L 2641 2350 
Q 2622 2356 2575 2375 
Q 2091 2566 1797 2566 
Q 1522 2566 1253 2447 
Q 984 2328 678 2069 
L 678 2625 
Q 1006 2869 1286 2976 
Q 1566 3084 1869 3084 
Q 2213 3084 2672 2900 
L 2719 2881 
L 2788 2853 
Q 3272 2663 3566 2663 
Q 3834 2663 4098 2780 
Q 4363 2897 4684 3163 
z
M 678 1631 
L 4684 1631 
L 4684 1100 
L 678 1100 
L 678 1631 
z
" transform="scale(0.015625)"/>
      <path id="DejaVuSans-Oblique-69" d="M 1172 4863 
L 1747 4863 
L 1606 4134 
L 1031 4134 
L 1172 4863 
z
M 909 3500 
L 1484 3500 
L 800 0 
L 225 0 
L 909 3500 
z
" transform="scale(0.015625)"/>
      <path id="DejaVuSans-Oblique-73" d="M 3200 3397 
L 3091 2853 
Q 2863 2978 2609 3040 
Q 2356 3103 2088 3103 
Q 1634 3103 1373 2948 
Q 1113 2794 1113 2528 
Q 1113 2219 1719 2053 
Q 1766 2041 1788 2034 
L 1972 1978 
Q 2547 1819 2739 1644 
Q 2931 1469 2931 1166 
Q 2931 609 2489 259 
Q 2047 -91 1331 -91 
Q 1053 -91 747 -37 
Q 441 16 72 128 
L 184 722 
Q 500 559 806 475 
Q 1113 391 1394 391 
Q 1816 391 2080 572 
Q 2344 753 2344 1031 
Q 2344 1331 1650 1516 
L 1591 1531 
L 1394 1581 
Q 956 1697 753 1886 
Q 550 2075 550 2369 
Q 550 2928 970 3256 
Q 1391 3584 2113 3584 
Q 2397 3584 2667 3537 
Q 2938 3491 3200 3397 
z
" transform="scale(0.015625)"/>
     </defs>
     <use xlink:href="#DejaVuSans-2016" transform="translate(0 0.578125)"/>
     <use xlink:href="#DejaVuSans-2207" transform="translate(50 0.578125)"/>
     <use xlink:href="#STIXNonUnicode-Italic-e238" transform="translate(116.894531 0.578125)"/>
     <use xlink:href="#DejaVuSans-Oblique-45" transform="translate(187.15155 -15.828125) scale(0.7)"/>
     <use xlink:href="#DejaVuSans-Oblique-6d" transform="translate(231.380066 -15.828125) scale(0.7)"/>
     <use xlink:href="#DejaVuSans-Oblique-70" transform="translate(299.568542 -15.828125) scale(0.7)"/>
     <use xlink:href="#DejaVuSans-2016" transform="translate(346.736511 0.578125)"/>
     <use xlink:href="#DejaVuSans-32" transform="translate(397.693542 -15.828125) scale(0.7)"/>
     <use xlink:href="#DejaVuSans-2243" transform="translate(464.446472 0.578125)"/>
     <use xlink:href="#DejaVuSans-Oblique-3bb" transform="translate(567.717957 0.578125)"/>
     <use xlink:href="#DejaVuSans-2016" transform="translate(626.897644 0.578125)"/>
     <use xlink:href="#DejaVuSans-2207" transform="translate(676.897644 0.578125)"/>
     <use xlink:href="#STIXNonUnicode-Italic-e238" transform="translate(743.792175 0.578125)"/>
     <use xlink:href="#DejaVuSans-Oblique-46" transform="translate(814.049194 -15.828125) scale(0.7)"/>
     <use xlink:href="#DejaVuSans-Oblique-69" transform="translate(854.312866 -15.828125) scale(0.7)"/>
     <use xlink:href="#DejaVuSans-Oblique-73" transform="translate(873.761108 -15.828125) scale(0.7)"/>
     <use xlink:href="#DejaVuSans-2016" transform="translate(912.96521 0.578125)"/>
     <use xlink:href="#DejaVuSans-32" transform="translate(963.922241 -15.828125) scale(0.7)"/>
    </g>
   </g>
   <g id="text_7">
    <!-- Desplazamientos Sobre Espacio de Parámetros $\theta$ -->
    <g style="fill: #262626" transform="translate(108.504 21.6) scale(0.18 -0.18)">
     <defs>
      <path id="DejaVuSans-44" d="M 1259 4147 
L 1259 519 
L 2022 519 
Q 2988 519 3436 956 
Q 3884 1394 3884 2338 
Q 3884 3275 3436 3711 
Q 2988 4147 2022 4147 
L 1259 4147 
z
M 628 4666 
L 1925 4666 
Q 3281 4666 3915 4102 
Q 4550 3538 4550 2338 
Q 4550 1131 3912 565 
Q 3275 0 1925 0 
L 628 0 
L 628 4666 
z
" transform="scale(0.015625)"/>
      <path id="DejaVuSans-73" d="M 2834 3397 
L 2834 2853 
Q 2591 2978 2328 3040 
Q 2066 3103 1784 3103 
Q 1356 3103 1142 2972 
Q 928 2841 928 2578 
Q 928 2378 1081 2264 
Q 1234 2150 1697 2047 
L 1894 2003 
Q 2506 1872 2764 1633 
Q 3022 1394 3022 966 
Q 3022 478 2636 193 
Q 2250 -91 1575 -91 
Q 1294 -91 989 -36 
Q 684 19 347 128 
L 347 722 
Q 666 556 975 473 
Q 1284 391 1588 391 
Q 1994 391 2212 530 
Q 2431 669 2431 922 
Q 2431 1156 2273 1281 
Q 2116 1406 1581 1522 
L 1381 1569 
Q 847 1681 609 1914 
Q 372 2147 372 2553 
Q 372 3047 722 3315 
Q 1072 3584 1716 3584 
Q 2034 3584 2315 3537 
Q 2597 3491 2834 3397 
z
" transform="scale(0.015625)"/>
      <path id="DejaVuSans-70" d="M 1159 525 
L 1159 -1331 
L 581 -1331 
L 581 3500 
L 1159 3500 
L 1159 2969 
Q 1341 3281 1617 3432 
Q 1894 3584 2278 3584 
Q 2916 3584 3314 3078 
Q 3713 2572 3713 1747 
Q 3713 922 3314 415 
Q 2916 -91 2278 -91 
Q 1894 -91 1617 61 
Q 1341 213 1159 525 
z
M 3116 1747 
Q 3116 2381 2855 2742 
Q 2594 3103 2138 3103 
Q 1681 3103 1420 2742 
Q 1159 2381 1159 1747 
Q 1159 1113 1420 752 
Q 1681 391 2138 391 
Q 2594 391 2855 752 
Q 3116 1113 3116 1747 
z
" transform="scale(0.015625)"/>
      <path id="DejaVuSans-7a" d="M 353 3500 
L 3084 3500 
L 3084 2975 
L 922 459 
L 3084 459 
L 3084 0 
L 275 0 
L 275 525 
L 2438 3041 
L 353 3041 
L 353 3500 
z
" transform="scale(0.015625)"/>
      <path id="DejaVuSans-53" d="M 3425 4513 
L 3425 3897 
Q 3066 4069 2747 4153 
Q 2428 4238 2131 4238 
Q 1616 4238 1336 4038 
Q 1056 3838 1056 3469 
Q 1056 3159 1242 3001 
Q 1428 2844 1947 2747 
L 2328 2669 
Q 3034 2534 3370 2195 
Q 3706 1856 3706 1288 
Q 3706 609 3251 259 
Q 2797 -91 1919 -91 
Q 1588 -91 1214 -16 
Q 841 59 441 206 
L 441 856 
Q 825 641 1194 531 
Q 1563 422 1919 422 
Q 2459 422 2753 634 
Q 3047 847 3047 1241 
Q 3047 1584 2836 1778 
Q 2625 1972 2144 2069 
L 1759 2144 
Q 1053 2284 737 2584 
Q 422 2884 422 3419 
Q 422 4038 858 4394 
Q 1294 4750 2059 4750 
Q 2388 4750 2728 4690 
Q 3069 4631 3425 4513 
z
" transform="scale(0.015625)"/>
      <path id="DejaVuSans-62" d="M 3116 1747 
Q 3116 2381 2855 2742 
Q 2594 3103 2138 3103 
Q 1681 3103 1420 2742 
Q 1159 2381 1159 1747 
Q 1159 1113 1420 752 
Q 1681 391 2138 391 
Q 2594 391 2855 752 
Q 3116 1113 3116 1747 
z
M 1159 2969 
Q 1341 3281 1617 3432 
Q 1894 3584 2278 3584 
Q 2916 3584 3314 3078 
Q 3713 2572 3713 1747 
Q 3713 922 3314 415 
Q 2916 -91 2278 -91 
Q 1894 -91 1617 61 
Q 1341 213 1159 525 
L 1159 0 
L 581 0 
L 581 4863 
L 1159 4863 
L 1159 2969 
z
" transform="scale(0.015625)"/>
      <path id="DejaVuSans-45" d="M 628 4666 
L 3578 4666 
L 3578 4134 
L 1259 4134 
L 1259 2753 
L 3481 2753 
L 3481 2222 
L 1259 2222 
L 1259 531 
L 3634 531 
L 3634 0 
L 628 0 
L 628 4666 
z
" transform="scale(0.015625)"/>
     </defs>
     <use xlink:href="#DejaVuSans-44" transform="translate(0 0.015625)"/>
     <use xlink:href="#DejaVuSans-65" transform="translate(77.001953 0.015625)"/>
     <use xlink:href="#DejaVuSans-73" transform="translate(138.525391 0.015625)"/>
     <use xlink:href="#DejaVuSans-70" transform="translate(190.625 0.015625)"/>
     <use xlink:href="#DejaVuSans-6c" transform="translate(254.101562 0.015625)"/>
     <use xlink:href="#DejaVuSans-61" transform="translate(281.884766 0.015625)"/>
     <use xlink:href="#DejaVuSans-7a" transform="translate(343.164062 0.015625)"/>
     <use xlink:href="#DejaVuSans-61" transform="translate(395.654297 0.015625)"/>
     <use xlink:href="#DejaVuSans-6d" transform="translate(456.933594 0.015625)"/>
     <use xlink:href="#DejaVuSans-69" transform="translate(554.345703 0.015625)"/>
     <use xlink:href="#DejaVuSans-65" transform="translate(582.128906 0.015625)"/>
     <use xlink:href="#DejaVuSans-6e" transform="translate(643.652344 0.015625)"/>
     <use xlink:href="#DejaVuSans-74" transform="translate(707.03125 0.015625)"/>
     <use xlink:href="#DejaVuSans-6f" transform="translate(746.240234 0.015625)"/>
     <use xlink:href="#DejaVuSans-73" transform="translate(807.421875 0.015625)"/>
     <use xlink:href="#DejaVuSans-20" transform="translate(859.521484 0.015625)"/>
     <use xlink:href="#DejaVuSans-53" transform="translate(891.308594 0.015625)"/>
     <use xlink:href="#DejaVuSans-6f" transform="translate(954.785156 0.015625)"/>
     <use xlink:href="#DejaVuSans-62" transform="translate(1015.966797 0.015625)"/>
     <use xlink:href="#DejaVuSans-72" transform="translate(1079.443359 0.015625)"/>
     <use xlink:href="#DejaVuSans-65" transform="translate(1120.556641 0.015625)"/>
     <use xlink:href="#DejaVuSans-20" transform="translate(1182.080078 0.015625)"/>
     <use xlink:href="#DejaVuSans-45" transform="translate(1213.867188 0.015625)"/>
     <use xlink:href="#DejaVuSans-73" transform="translate(1277.050781 0.015625)"/>
     <use xlink:href="#DejaVuSans-70" transform="translate(1329.150391 0.015625)"/>
     <use xlink:href="#DejaVuSans-61" transform="translate(1392.626953 0.015625)"/>
     <use xlink:href="#DejaVuSans-63" transform="translate(1453.90625 0.015625)"/>
     <use xlink:href="#DejaVuSans-69" transform="translate(1508.886719 0.015625)"/>
     <use xlink:href="#DejaVuSans-6f" transform="translate(1536.669922 0.015625)"/>
     <use xlink:href="#DejaVuSans-20" transform="translate(1597.851562 0.015625)"/>
     <use xlink:href="#DejaVuSans-64" transform="translate(1629.638672 0.015625)"/>
     <use xlink:href="#DejaVuSans-65" transform="translate(1693.115234 0.015625)"/>
     <use xlink:href="#DejaVuSans-20" transform="translate(1754.638672 0.015625)"/>
     <use xlink:href="#DejaVuSans-50" transform="translate(1786.425781 0.015625)"/>
     <use xlink:href="#DejaVuSans-61" transform="translate(1846.728516 0.015625)"/>
     <use xlink:href="#DejaVuSans-72" transform="translate(1908.007812 0.015625)"/>
     <use xlink:href="#DejaVuSans-e1" transform="translate(1949.121094 0.015625)"/>
     <use xlink:href="#DejaVuSans-6d" transform="translate(2010.400391 0.015625)"/>
     <use xlink:href="#DejaVuSans-65" transform="translate(2107.8125 0.015625)"/>
     <use xlink:href="#DejaVuSans-74" transform="translate(2169.335938 0.015625)"/>
     <use xlink:href="#DejaVuSans-72" transform="translate(2208.544922 0.015625)"/>
     <use xlink:href="#DejaVuSans-6f" transform="translate(2249.658203 0.015625)"/>
     <use xlink:href="#DejaVuSans-73" transform="translate(2310.839844 0.015625)"/>
     <use xlink:href="#DejaVuSans-20" transform="translate(2362.939453 0.015625)"/>
     <use xlink:href="#DejaVuSans-Oblique-3b8" transform="translate(2394.726562 0.015625)"/>
    </g>
   </g>
   <g id="Quiver_1">
    <defs>
     <path id="mc77c62aff7" d="M 1.736925 1.619191 
L -72.73756 81.508864 
L -67.644519 83.01032 
L -89.0472 95.522 
L -78.06607 73.295177 
L -76.21141 78.270483 
L -1.736925 -1.619191 
L 1.736925 1.619191 
"/>
    </defs>
    <g clip-path="url(#pee2247d98d)">
     <use xlink:href="#mc77c62aff7" x="507.6384" y="113.0176" style="fill: #4682b4"/>
    </g>
   </g>
   <g id="Quiver_2">
    <defs>
     <path id="m79d854e67c" d="M -0.377236 2.344436 
L -133.625791 -19.096163 
L -132.035827 -14.030055 
L -154.34848 -24.83572 
L -129.772412 -28.096671 
L -132.87132 -23.785035 
L 0.377236 -2.344436 
L -0.377236 2.344436 
"/>
    </defs>
    <g clip-path="url(#pee2247d98d)">
     <use xlink:href="#m79d854e67c" x="507.6384" y="113.0176" style="fill: #ff8c00"/>
    </g>
   </g>
   <g id="Quiver_3">
    <defs>
     <path id="md0dec5ff30" d="M 0.993389 3.420559 
L -211.617259 65.166338 
L -206.209922 71.014067 
L -243.39568 70.68628 
L -212.170256 50.490713 
L -213.604037 58.32522 
L -0.993389 -3.420559 
L 0.993389 3.420559 
"/>
    </defs>
    <g clip-path="url(#pee2247d98d)">
     <use xlink:href="#md0dec5ff30" x="507.6384" y="113.0176" style="fill: #e91e63"/>
    </g>
   </g>
   <g id="PathCollection_1">
    <defs>
     <path id="m6fdcc08c5d" d="M 0 3.872983 
C 1.027127 3.872983 2.012324 3.464901 2.738613 2.738613 
C 3.464901 2.012324 3.872983 1.027127 3.872983 0 
C 3.872983 -1.027127 3.464901 -2.012324 2.738613 -2.738613 
C 2.012324 -3.464901 1.027127 -3.872983 0 -3.872983 
C -1.027127 -3.872983 -2.012324 -3.464901 -2.738613 -2.738613 
C -3.464901 -2.012324 -3.872983 -1.027127 -3.872983 0 
C -3.872983 1.027127 -3.464901 2.012324 -2.738613 2.738613 
C -2.012324 3.464901 -1.027127 3.872983 0 3.872983 
z
" style="stroke: #000000"/>
    </defs>
    <g clip-path="url(#pee2247d98d)">
     <use xlink:href="#m6fdcc08c5d" x="507.6384" y="113.0176" style="stroke: #000000"/>
    </g>
   </g>
   <g id="legend_1">
    <g id="patch_8">
     <path d="M 45.22 72.617187 
L 232.72 72.617187 
Q 235.72 72.617187 235.72 69.617187 
L 235.72 49.1 
Q 235.72 46.1 232.72 46.1 
L 45.22 46.1 
Q 42.22 46.1 42.22 49.1 
L 42.22 69.617187 
Q 42.22 72.617187 45.22 72.617187 
z
" style="fill: #4d4d4d; opacity: 0.5; stroke: #4d4d4d; stroke-linejoin: miter"/>
    </g>
    <g id="patch_9">
     <path d="M 43.22 70.617187 
L 230.72 70.617187 
Q 233.72 70.617187 233.72 67.617187 
L 233.72 47.1 
Q 233.72 44.1 230.72 44.1 
L 43.22 44.1 
Q 40.22 44.1 40.22 47.1 
L 40.22 67.617187 
Q 40.22 70.617187 43.22 70.617187 
z
" style="fill: #ffffff; stroke: #cccccc; stroke-linejoin: miter"/>
    </g>
    <g id="PathCollection_2">
     <g>
      <use xlink:href="#m6fdcc08c5d" x="61.22" y="57.560156" style="stroke: #000000"/>
     </g>
    </g>
    <g id="text_8">
     <!-- Estado actual de $\theta$ -->
     <g style="fill: #262626" transform="translate(88.22 61.497656) scale(0.15 -0.15)">
      <defs>
       <path id="DejaVuSans-75" d="M 544 1381 
L 544 3500 
L 1119 3500 
L 1119 1403 
Q 1119 906 1312 657 
Q 1506 409 1894 409 
Q 2359 409 2629 706 
Q 2900 1003 2900 1516 
L 2900 3500 
L 3475 3500 
L 3475 0 
L 2900 0 
L 2900 538 
Q 2691 219 2414 64 
Q 2138 -91 1772 -91 
Q 1169 -91 856 284 
Q 544 659 544 1381 
z
M 1991 3584 
L 1991 3584 
z
" transform="scale(0.015625)"/>
      </defs>
      <use xlink:href="#DejaVuSans-45" transform="translate(0 0.234375)"/>
      <use xlink:href="#DejaVuSans-73" transform="translate(63.183594 0.234375)"/>
      <use xlink:href="#DejaVuSans-74" transform="translate(115.283203 0.234375)"/>
      <use xlink:href="#DejaVuSans-61" transform="translate(154.492188 0.234375)"/>
      <use xlink:href="#DejaVuSans-64" transform="translate(215.771484 0.234375)"/>
      <use xlink:href="#DejaVuSans-6f" transform="translate(279.248047 0.234375)"/>
      <use xlink:href="#DejaVuSans-20" transform="translate(340.429688 0.234375)"/>
      <use xlink:href="#DejaVuSans-61" transform="translate(372.216797 0.234375)"/>
      <use xlink:href="#DejaVuSans-63" transform="translate(433.496094 0.234375)"/>
      <use xlink:href="#DejaVuSans-74" transform="translate(488.476562 0.234375)"/>
      <use xlink:href="#DejaVuSans-75" transform="translate(527.685547 0.234375)"/>
      <use xlink:href="#DejaVuSans-61" transform="translate(591.064453 0.234375)"/>
      <use xlink:href="#DejaVuSans-6c" transform="translate(652.34375 0.234375)"/>
      <use xlink:href="#DejaVuSans-20" transform="translate(680.126953 0.234375)"/>
      <use xlink:href="#DejaVuSans-64" transform="translate(711.914062 0.234375)"/>
      <use xlink:href="#DejaVuSans-65" transform="translate(775.390625 0.234375)"/>
      <use xlink:href="#DejaVuSans-20" transform="translate(836.914062 0.234375)"/>
      <use xlink:href="#DejaVuSans-Oblique-3b8" transform="translate(868.701172 0.234375)"/>
     </g>
    </g>
   </g>
  </g>
 </g>
 <defs>
  <clipPath id="pee2247d98d">
   <rect x="32.72" y="36.6" width="593.648" height="382.088"/>
  </clipPath>
 </defs>
</svg>
