<?xml version="1.0" encoding="utf-8" standalone="no"?>
<!DOCTYPE svg PUBLIC "-//W3C//DTD SVG 1.1//EN"
  "http://www.w3.org/Graphics/SVG/1.1/DTD/svg11.dtd">
<svg xmlns:xlink="http://www.w3.org/1999/xlink" width="706.973pt" height="349.202187pt" viewBox="0 0 706.973 349.202187" xmlns="http://www.w3.org/2000/svg" version="1.1">
 <metadata>
  <rdf:RDF xmlns:dc="http://purl.org/dc/elements/1.1/" xmlns:cc="http://creativecommons.org/ns#" xmlns:rdf="http://www.w3.org/1999/02/22-rdf-syntax-ns#">
   <cc:Work>
    <dc:type rdf:resource="http://purl.org/dc/dcmitype/StillImage"/>
    <dc:date>2026-05-22T16:17:36.726661</dc:date>
    <dc:format>image/svg+xml</dc:format>
    <dc:creator>
     <cc:Agent>
      <dc:title>Matplotlib v3.10.0, https://matplotlib.org/</dc:title>
     </cc:Agent>
    </dc:creator>
   </cc:Work>
  </rdf:RDF>
 </metadata>
 <defs>
  <style type="text/css">*{stroke-linejoin: round; stroke-linecap: butt}</style>
 </defs>
 <g id="figure_1">
  <g id="patch_1">
   <path d="M -0 349.202187 
L 706.973 349.202187 
L 706.973 0 
L -0 0 
z
" style="fill: #ffffff"/>
  </g>
  <g id="axes_1">
   <g id="patch_2">
    <path d="M 32.685 316.517187 
L 699.773 316.517187 
L 699.773 36.597187 
L 32.685 36.597187 
z
" style="fill: #ffffff"/>
   </g>
   <g id="matplotlib.axis_1">
    <g id="xtick_1">
     <g id="line2d_1">
      <path d="M 32.685 316.517187 
L 32.685 36.597187 
" clip-path="url(#p02dc4cd9e4)" style="fill: none; stroke-dasharray: 3.7,1.6; stroke-dashoffset: 0; stroke: #cccccc; stroke-opacity: 0.5"/>
     </g>
     <g id="line2d_2">
      <defs>
       <path id="mbaa450da78" d="M 0 0 
L 0 6 
" style="stroke: #808080; stroke-width: 1.25"/>
      </defs>
      <g>
       <use xlink:href="#mbaa450da78" x="32.685" y="316.517187" style="fill: #808080; stroke: #808080; stroke-width: 1.25"/>
      </g>
     </g>
    </g>
    <g id="xtick_2">
     <g id="line2d_3">
      <path d="M 116.071 316.517187 
L 116.071 36.597187 
" clip-path="url(#p02dc4cd9e4)" style="fill: none; stroke-dasharray: 3.7,1.6; stroke-dashoffset: 0; stroke: #cccccc; stroke-opacity: 0.5"/>
     </g>
     <g id="line2d_4">
      <g>
       <use xlink:href="#mbaa450da78" x="116.071" y="316.517187" style="fill: #808080; stroke: #808080; stroke-width: 1.25"/>
      </g>
     </g>
    </g>
    <g id="xtick_3">
     <g id="line2d_5">
      <path d="M 199.457 316.517187 
L 199.457 36.597187 
" clip-path="url(#p02dc4cd9e4)" style="fill: none; stroke-dasharray: 3.7,1.6; stroke-dashoffset: 0; stroke: #cccccc; stroke-opacity: 0.5"/>
     </g>
     <g id="line2d_6">
      <g>
       <use xlink:href="#mbaa450da78" x="199.457" y="316.517187" style="fill: #808080; stroke: #808080; stroke-width: 1.25"/>
      </g>
     </g>
    </g>
    <g id="xtick_4">
     <g id="line2d_7">
      <path d="M 282.843 316.517187 
L 282.843 36.597187 
" clip-path="url(#p02dc4cd9e4)" style="fill: none; stroke-dasharray: 3.7,1.6; stroke-dashoffset: 0; stroke: #cccccc; stroke-opacity: 0.5"/>
     </g>
     <g id="line2d_8">
      <g>
       <use xlink:href="#mbaa450da78" x="282.843" y="316.517187" style="fill: #808080; stroke: #808080; stroke-width: 1.25"/>
      </g>
     </g>
    </g>
    <g id="xtick_5">
     <g id="line2d_9">
      <path d="M 366.229 316.517187 
L 366.229 36.597187 
" clip-path="url(#p02dc4cd9e4)" style="fill: none; stroke-dasharray: 3.7,1.6; stroke-dashoffset: 0; stroke: #cccccc; stroke-opacity: 0.5"/>
     </g>
     <g id="line2d_10">
      <g>
       <use xlink:href="#mbaa450da78" x="366.229" y="316.517187" style="fill: #808080; stroke: #808080; stroke-width: 1.25"/>
      </g>
     </g>
    </g>
    <g id="xtick_6">
     <g id="line2d_11">
      <path d="M 449.615 316.517187 
L 449.615 36.597187 
" clip-path="url(#p02dc4cd9e4)" style="fill: none; stroke-dasharray: 3.7,1.6; stroke-dashoffset: 0; stroke: #cccccc; stroke-opacity: 0.5"/>
     </g>
     <g id="line2d_12">
      <g>
       <use xlink:href="#mbaa450da78" x="449.615" y="316.517187" style="fill: #808080; stroke: #808080; stroke-width: 1.25"/>
      </g>
     </g>
    </g>
    <g id="xtick_7">
     <g id="line2d_13">
      <path d="M 533.001 316.517187 
L 533.001 36.597187 
" clip-path="url(#p02dc4cd9e4)" style="fill: none; stroke-dasharray: 3.7,1.6; stroke-dashoffset: 0; stroke: #cccccc; stroke-opacity: 0.5"/>
     </g>
     <g id="line2d_14">
      <g>
       <use xlink:href="#mbaa450da78" x="533.001" y="316.517187" style="fill: #808080; stroke: #808080; stroke-width: 1.25"/>
      </g>
     </g>
    </g>
    <g id="xtick_8">
     <g id="line2d_15">
      <path d="M 616.387 316.517187 
L 616.387 36.597187 
" clip-path="url(#p02dc4cd9e4)" style="fill: none; stroke-dasharray: 3.7,1.6; stroke-dashoffset: 0; stroke: #cccccc; stroke-opacity: 0.5"/>
     </g>
     <g id="line2d_16">
      <g>
       <use xlink:href="#mbaa450da78" x="616.387" y="316.517187" style="fill: #808080; stroke: #808080; stroke-width: 1.25"/>
      </g>
     </g>
    </g>
    <g id="xtick_9">
     <g id="line2d_17">
      <path d="M 699.773 316.517187 
L 699.773 36.597187 
" clip-path="url(#p02dc4cd9e4)" style="fill: none; stroke-dasharray: 3.7,1.6; stroke-dashoffset: 0; stroke: #cccccc; stroke-opacity: 0.5"/>
     </g>
     <g id="line2d_18">
      <g>
       <use xlink:href="#mbaa450da78" x="699.773" y="316.517187" style="fill: #808080; stroke: #808080; stroke-width: 1.25"/>
      </g>
     </g>
    </g>
    <g id="text_1">
     <!-- Domino $\Omega$ -->
     <g style="fill: #262626" transform="translate(326.469 338.674687) scale(0.16 -0.16)">
      <defs>
       <path id="DejaVuSans-44" d="M 1259 4147 
L 1259 519 
L 2022 519 
Q 2988 519 3436 956 
Q 3884 1394 3884 2338 
Q 3884 3275 3436 3711 
Q 2988 4147 2022 4147 
L 1259 4147 
z
M 628 4666 
L 1925 4666 
Q 3281 4666 3915 4102 
Q 4550 3538 4550 2338 
Q 4550 1131 3912 565 
Q 3275 0 1925 0 
L 628 0 
L 628 4666 
z
" transform="scale(0.015625)"/>
       <path id="DejaVuSans-6f" d="M 1959 3097 
Q 1497 3097 1228 2736 
Q 959 2375 959 1747 
Q 959 1119 1226 758 
Q 1494 397 1959 397 
Q 2419 397 2687 759 
Q 2956 1122 2956 1747 
Q 2956 2369 2687 2733 
Q 2419 3097 1959 3097 
z
M 1959 3584 
Q 2709 3584 3137 3096 
Q 3566 2609 3566 1747 
Q 3566 888 3137 398 
Q 2709 -91 1959 -91 
Q 1206 -91 779 398 
Q 353 888 353 1747 
Q 353 2609 779 3096 
Q 1206 3584 1959 3584 
z
" transform="scale(0.015625)"/>
       <path id="DejaVuSans-6d" d="M 3328 2828 
Q 3544 3216 3844 3400 
Q 4144 3584 4550 3584 
Q 5097 3584 5394 3201 
Q 5691 2819 5691 2113 
L 5691 0 
L 5113 0 
L 5113 2094 
Q 5113 2597 4934 2840 
Q 4756 3084 4391 3084 
Q 3944 3084 3684 2787 
Q 3425 2491 3425 1978 
L 3425 0 
L 2847 0 
L 2847 2094 
Q 2847 2600 2669 2842 
Q 2491 3084 2119 3084 
Q 1678 3084 1418 2786 
Q 1159 2488 1159 1978 
L 1159 0 
L 581 0 
L 581 3500 
L 1159 3500 
L 1159 2956 
Q 1356 3278 1631 3431 
Q 1906 3584 2284 3584 
Q 2666 3584 2933 3390 
Q 3200 3197 3328 2828 
z
" transform="scale(0.015625)"/>
       <path id="DejaVuSans-69" d="M 603 3500 
L 1178 3500 
L 1178 0 
L 603 0 
L 603 3500 
z
M 603 4863 
L 1178 4863 
L 1178 4134 
L 603 4134 
L 603 4863 
z
" transform="scale(0.015625)"/>
       <path id="DejaVuSans-6e" d="M 3513 2113 
L 3513 0 
L 2938 0 
L 2938 2094 
Q 2938 2591 2744 2837 
Q 2550 3084 2163 3084 
Q 1697 3084 1428 2787 
Q 1159 2491 1159 1978 
L 1159 0 
L 581 0 
L 581 3500 
L 1159 3500 
L 1159 2956 
Q 1366 3272 1645 3428 
Q 1925 3584 2291 3584 
Q 2894 3584 3203 3211 
Q 3513 2838 3513 2113 
z
" transform="scale(0.015625)"/>
       <path id="DejaVuSans-20" transform="scale(0.015625)"/>
       <path id="DejaVuSans-3a9" d="M 4647 556 
L 4647 0 
L 2772 0 
L 2772 556 
Q 3325 859 3634 1378 
Q 3944 1897 3944 2528 
Q 3944 3278 3531 3731 
Q 3119 4184 2444 4184 
Q 1769 4184 1355 3729 
Q 941 3275 941 2528 
Q 941 1897 1250 1378 
Q 1563 859 2119 556 
L 2119 0 
L 244 0 
L 244 556 
L 1241 556 
Q 747 991 519 1456 
Q 294 1922 294 2497 
Q 294 3491 894 4106 
Q 1491 4722 2444 4722 
Q 3391 4722 3994 4106 
Q 4594 3494 4594 2528 
Q 4594 1922 4372 1459 
Q 4150 997 3647 556 
L 4647 556 
z
" transform="scale(0.015625)"/>
      </defs>
      <use xlink:href="#DejaVuSans-44" transform="translate(0 0.015625)"/>
      <use xlink:href="#DejaVuSans-6f" transform="translate(77.001953 0.015625)"/>
      <use xlink:href="#DejaVuSans-6d" transform="translate(138.183594 0.015625)"/>
      <use xlink:href="#DejaVuSans-69" transform="translate(235.595703 0.015625)"/>
      <use xlink:href="#DejaVuSans-6e" transform="translate(263.378906 0.015625)"/>
      <use xlink:href="#DejaVuSans-6f" transform="translate(326.757812 0.015625)"/>
      <use xlink:href="#DejaVuSans-20" transform="translate(387.939453 0.015625)"/>
      <use xlink:href="#DejaVuSans-3a9" transform="translate(419.726562 0.015625)"/>
     </g>
    </g>
   </g>
   <g id="matplotlib.axis_2">
    <g id="ytick_1">
     <g id="line2d_19">
      <path d="M 32.685 303.793551 
L 699.773 303.793551 
" clip-path="url(#p02dc4cd9e4)" style="fill: none; stroke-dasharray: 3.7,1.6; stroke-dashoffset: 0; stroke: #cccccc; stroke-opacity: 0.5"/>
     </g>
     <g id="line2d_20">
      <defs>
       <path id="m50b74aad8c" d="M 0 0 
L -6 0 
" style="stroke: #808080; stroke-width: 1.25"/>
      </defs>
      <g>
       <use xlink:href="#m50b74aad8c" x="32.685" y="303.793551" style="fill: #808080; stroke: #808080; stroke-width: 1.25"/>
      </g>
     </g>
    </g>
    <g id="ytick_2">
     <g id="line2d_21">
      <path d="M 32.685 272.200299 
L 699.773 272.200299 
" clip-path="url(#p02dc4cd9e4)" style="fill: none; stroke-dasharray: 3.7,1.6; stroke-dashoffset: 0; stroke: #cccccc; stroke-opacity: 0.5"/>
     </g>
     <g id="line2d_22">
      <g>
       <use xlink:href="#m50b74aad8c" x="32.685" y="272.200299" style="fill: #808080; stroke: #808080; stroke-width: 1.25"/>
      </g>
     </g>
    </g>
    <g id="ytick_3">
     <g id="line2d_23">
      <path d="M 32.685 240.607046 
L 699.773 240.607046 
" clip-path="url(#p02dc4cd9e4)" style="fill: none; stroke-dasharray: 3.7,1.6; stroke-dashoffset: 0; stroke: #cccccc; stroke-opacity: 0.5"/>
     </g>
     <g id="line2d_24">
      <g>
       <use xlink:href="#m50b74aad8c" x="32.685" y="240.607046" style="fill: #808080; stroke: #808080; stroke-width: 1.25"/>
      </g>
     </g>
    </g>
    <g id="ytick_4">
     <g id="line2d_25">
      <path d="M 32.685 209.013793 
L 699.773 209.013793 
" clip-path="url(#p02dc4cd9e4)" style="fill: none; stroke-dasharray: 3.7,1.6; stroke-dashoffset: 0; stroke: #cccccc; stroke-opacity: 0.5"/>
     </g>
     <g id="line2d_26">
      <g>
       <use xlink:href="#m50b74aad8c" x="32.685" y="209.013793" style="fill: #808080; stroke: #808080; stroke-width: 1.25"/>
      </g>
     </g>
    </g>
    <g id="ytick_5">
     <g id="line2d_27">
      <path d="M 32.685 177.420541 
L 699.773 177.420541 
" clip-path="url(#p02dc4cd9e4)" style="fill: none; stroke-dasharray: 3.7,1.6; stroke-dashoffset: 0; stroke: #cccccc; stroke-opacity: 0.5"/>
     </g>
     <g id="line2d_28">
      <g>
       <use xlink:href="#m50b74aad8c" x="32.685" y="177.420541" style="fill: #808080; stroke: #808080; stroke-width: 1.25"/>
      </g>
     </g>
    </g>
    <g id="ytick_6">
     <g id="line2d_29">
      <path d="M 32.685 145.827288 
L 699.773 145.827288 
" clip-path="url(#p02dc4cd9e4)" style="fill: none; stroke-dasharray: 3.7,1.6; stroke-dashoffset: 0; stroke: #cccccc; stroke-opacity: 0.5"/>
     </g>
     <g id="line2d_30">
      <g>
       <use xlink:href="#m50b74aad8c" x="32.685" y="145.827288" style="fill: #808080; stroke: #808080; stroke-width: 1.25"/>
      </g>
     </g>
    </g>
    <g id="ytick_7">
     <g id="line2d_31">
      <path d="M 32.685 114.234036 
L 699.773 114.234036 
" clip-path="url(#p02dc4cd9e4)" style="fill: none; stroke-dasharray: 3.7,1.6; stroke-dashoffset: 0; stroke: #cccccc; stroke-opacity: 0.5"/>
     </g>
     <g id="line2d_32">
      <g>
       <use xlink:href="#m50b74aad8c" x="32.685" y="114.234036" style="fill: #808080; stroke: #808080; stroke-width: 1.25"/>
      </g>
     </g>
    </g>
    <g id="ytick_8">
     <g id="line2d_33">
      <path d="M 32.685 82.640783 
L 699.773 82.640783 
" clip-path="url(#p02dc4cd9e4)" style="fill: none; stroke-dasharray: 3.7,1.6; stroke-dashoffset: 0; stroke: #cccccc; stroke-opacity: 0.5"/>
     </g>
     <g id="line2d_34">
      <g>
       <use xlink:href="#m50b74aad8c" x="32.685" y="82.640783" style="fill: #808080; stroke: #808080; stroke-width: 1.25"/>
      </g>
     </g>
    </g>
    <g id="ytick_9">
     <g id="line2d_35">
      <path d="M 32.685 51.04753 
L 699.773 51.04753 
" clip-path="url(#p02dc4cd9e4)" style="fill: none; stroke-dasharray: 3.7,1.6; stroke-dashoffset: 0; stroke: #cccccc; stroke-opacity: 0.5"/>
     </g>
     <g id="line2d_36">
      <g>
       <use xlink:href="#m50b74aad8c" x="32.685" y="51.04753" style="fill: #808080; stroke: #808080; stroke-width: 1.25"/>
      </g>
     </g>
    </g>
    <g id="text_2">
     <!-- $\mathcal{L}_{TOT}(x)$ -->
     <g style="fill: #262626" transform="translate(19.3575 204.637187) rotate(-90) scale(0.16 -0.16)">
      <defs>
       <path id="STIXNonUnicode-Italic-e238" d="M 4070 915 
L 4179 800 
Q 3347 -45 2413 -45 
Q 2157 -45 1850 26 
Q 1395 122 1146 122 
Q 1005 122 672 61 
Q 339 0 192 0 
L 230 154 
Q 582 154 730 749 
L 1178 2566 
Q 1286 3008 1516 3353 
Q 1747 3699 2025 3894 
Q 2304 4090 2585 4189 
Q 2867 4288 3123 4288 
Q 3443 4288 3593 4083 
Q 3744 3878 3744 3584 
Q 3744 3347 3593 3200 
Q 3443 3053 3226 3053 
Q 3085 3053 2995 3149 
Q 2906 3245 2906 3379 
Q 2906 3482 2957 3552 
Q 3008 3622 3065 3644 
Q 3123 3667 3174 3705 
Q 3226 3744 3226 3789 
Q 3226 4032 2854 4032 
Q 2522 4032 2310 3785 
Q 2099 3539 1990 3132 
Q 1882 2726 1795 2284 
Q 1709 1843 1549 1363 
Q 1389 883 1158 589 
L 1158 563 
Q 1363 704 1888 704 
Q 2227 704 2460 544 
Q 2694 384 2963 384 
Q 3507 384 4070 915 
z
" transform="scale(0.015625)"/>
       <path id="DejaVuSans-Oblique-54" d="M 378 4666 
L 4325 4666 
L 4225 4134 
L 2559 4134 
L 1759 0 
L 1125 0 
L 1925 4134 
L 275 4134 
L 378 4666 
z
" transform="scale(0.015625)"/>
       <path id="DejaVuSans-Oblique-4f" d="M 2919 4238 
Q 2400 4238 2003 3986 
Q 1606 3734 1313 3219 
Q 1125 2891 1026 2522 
Q 928 2153 928 1778 
Q 928 1128 1239 775 
Q 1550 422 2119 422 
Q 2631 422 3032 676 
Q 3434 931 3719 1434 
Q 3909 1772 4009 2142 
Q 4109 2513 4109 2881 
Q 4109 3528 3796 3883 
Q 3484 4238 2919 4238 
z
M 2100 -91 
Q 1241 -91 748 418 
Q 256 928 256 1813 
Q 256 2319 448 2847 
Q 641 3375 978 3788 
Q 1375 4272 1862 4511 
Q 2350 4750 2938 4750 
Q 3794 4750 4287 4245 
Q 4781 3741 4781 2869 
Q 4781 2331 4593 1812 
Q 4406 1294 4056 872 
Q 3656 384 3173 146 
Q 2691 -91 2100 -91 
z
" transform="scale(0.015625)"/>
       <path id="DejaVuSans-28" d="M 1984 4856 
Q 1566 4138 1362 3434 
Q 1159 2731 1159 2009 
Q 1159 1288 1364 580 
Q 1569 -128 1984 -844 
L 1484 -844 
Q 1016 -109 783 600 
Q 550 1309 550 2009 
Q 550 2706 781 3412 
Q 1013 4119 1484 4856 
L 1984 4856 
z
" transform="scale(0.015625)"/>
       <path id="DejaVuSans-Oblique-78" d="M 3841 3500 
L 2234 1784 
L 3219 0 
L 2559 0 
L 1819 1388 
L 531 0 
L -166 0 
L 1556 1844 
L 641 3500 
L 1300 3500 
L 1972 2234 
L 3144 3500 
L 3841 3500 
z
" transform="scale(0.015625)"/>
       <path id="DejaVuSans-29" d="M 513 4856 
L 1013 4856 
Q 1481 4119 1714 3412 
Q 1947 2706 1947 2009 
Q 1947 1309 1714 600 
Q 1481 -109 1013 -844 
L 513 -844 
Q 928 -128 1133 580 
Q 1338 1288 1338 2009 
Q 1338 2731 1133 3434 
Q 928 4138 513 4856 
z
" transform="scale(0.015625)"/>
      </defs>
      <use xlink:href="#STIXNonUnicode-Italic-e238" transform="translate(0 0.125)"/>
      <use xlink:href="#DejaVuSans-Oblique-54" transform="translate(70.257019 -16.28125) scale(0.7)"/>
      <use xlink:href="#DejaVuSans-Oblique-4f" transform="translate(113.015808 -16.28125) scale(0.7)"/>
      <use xlink:href="#DejaVuSans-Oblique-54" transform="translate(168.113464 -16.28125) scale(0.7)"/>
      <use xlink:href="#DejaVuSans-28" transform="translate(213.606628 0.125)"/>
      <use xlink:href="#DejaVuSans-Oblique-78" transform="translate(252.6203 0.125)"/>
      <use xlink:href="#DejaVuSans-29" transform="translate(311.799988 0.125)"/>
     </g>
    </g>
   </g>
   <g id="line2d_37">
    <path d="M 32.685 303.793551 
L 33.018711 303.618434 
L 33.352422 303.095174 
L 33.686133 302.227836 
L 34.353554 299.483245 
L 35.020976 295.441166 
L 35.688398 290.176487 
L 36.68953 280.193294 
L 37.690663 268.048065 
L 39.025506 249.271748 
L 41.695193 207.511193 
L 43.697458 177.710746 
L 45.032302 160.952629 
L 46.033434 150.796086 
L 47.034567 143.118499 
L 47.701988 139.517544 
L 48.36941 137.200831 
L 48.703121 136.536539 
L 49.036832 136.205644 
L 49.370543 136.209489 
L 49.704254 136.548068 
L 50.037964 137.220023 
L 50.705386 139.551889 
L 51.372808 143.167442 
L 52.04023 148.008189 
L 53.041362 157.389828 
L 54.042495 169.005439 
L 55.377338 187.226255 
L 57.713314 223.226499 
L 60.04929 258.407766 
L 61.384134 275.525714 
L 62.385266 286.117957 
L 63.386399 294.405197 
L 64.05382 298.528855 
L 64.721242 301.478113 
L 65.388664 303.232225 
L 65.722375 303.660836 
L 66.056086 303.793185 
L 66.389796 303.633061 
L 66.723507 303.185636 
L 67.057218 302.457424 
L 67.72464 300.191136 
L 68.392062 296.911233 
L 69.393194 290.302662 
L 70.394327 282.013297 
L 71.72917 269.114024 
L 75.7337 228.572007 
L 77.068544 217.971514 
L 78.069676 211.841034 
L 78.737098 208.744473 
L 79.40452 206.490216 
L 80.071941 205.101677 
L 80.405652 204.734694 
L 80.739363 204.585219 
L 81.073074 204.651475 
L 81.406785 204.930707 
L 81.740496 205.419217 
L 82.407917 207.004798 
L 83.075339 209.361355 
L 83.742761 212.429829 
L 84.743893 218.212905 
L 86.078737 227.700008 
L 87.747291 241.407991 
L 91.418111 272.273747 
L 92.752954 281.848543 
L 94.087797 289.86981 
L 95.08893 294.726004 
L 96.090063 298.534475 
L 97.091195 301.288122 
L 97.758617 302.548839 
L 98.426039 303.364652 
L 99.09346 303.752964 
L 99.760882 303.734043 
L 100.428304 303.330133 
L 101.095725 302.564898 
L 101.763147 301.463193 
L 102.76428 299.236751 
L 103.765412 296.403637 
L 105.100256 291.851061 
L 106.76881 285.264082 
L 111.774473 264.779821 
L 113.109316 260.561683 
L 114.110449 258.09246 
L 114.77787 256.834588 
L 115.445292 255.917393 
L 116.112714 255.361574 
L 116.780136 255.182625 
L 117.447557 255.390258 
L 118.114979 255.987916 
L 118.782401 256.972391 
L 119.449822 258.333564 
L 120.450955 261.042221 
L 121.452088 264.471128 
L 122.786931 269.950898 
L 124.789196 279.346839 
L 127.125172 290.294785 
L 128.460016 295.650869 
L 129.461148 298.926761 
L 130.462281 301.421018 
L 131.129702 302.60403 
L 131.797124 303.384489 
L 132.464546 303.757472 
L 133.131967 303.728362 
L 133.799389 303.312929 
L 134.466811 302.536808 
L 135.134233 301.434421 
L 136.135365 299.262433 
L 137.470209 295.661544 
L 141.474739 284.160363 
L 142.475871 281.992928 
L 143.477004 280.344727 
L 144.144426 279.563563 
L 144.811847 279.045797 
L 145.479269 278.791056 
L 146.146691 278.792055 
L 146.814113 279.035264 
L 147.481534 279.501747 
L 148.482667 280.568023 
L 149.483799 281.991365 
L 151.152354 284.884246 
L 155.490595 292.803838 
L 157.159149 295.344634 
L 159.161414 297.960341 
L 161.49739 300.600212 
L 163.165944 302.233392 
L 164.500788 303.251851 
L 165.50192 303.707978 
L 166.169342 303.792411 
L 166.836764 303.644803 
L 167.504186 303.210587 
L 168.171607 302.431722 
L 168.839029 301.249138 
L 169.506451 299.605341 
L 170.173872 297.447091 
L 171.175005 293.146287 
L 172.176138 287.47196 
L 173.17727 280.375045 
L 174.512114 268.763079 
L 175.846957 254.998267 
L 177.849222 231.693627 
L 180.518909 200.666122 
L 181.853752 187.741481 
L 182.854885 180.125461 
L 183.522307 176.275252 
L 184.189728 173.530561 
L 184.85715 171.975603 
L 185.190861 171.664454 
L 185.524572 171.671894 
L 185.858283 172.001665 
L 186.191993 172.655817 
L 186.859415 174.93674 
L 187.526837 178.495736 
L 188.194259 183.284978 
L 189.195391 192.600197 
L 190.196524 204.129224 
L 191.531367 222.058926 
L 195.535897 278.295353 
L 196.53703 289.092791 
L 197.538163 297.249536 
L 198.205584 300.966666 
L 198.873006 303.170655 
L 199.206717 303.678632 
L 199.540428 303.780738 
L 199.874139 303.472398 
L 200.207849 302.751346 
L 200.54156 301.617624 
L 201.208982 298.123769 
L 201.876404 293.036407 
L 202.543825 286.435715 
L 203.544958 273.951481 
L 204.879801 253.296452 
L 206.548356 223.204424 
L 209.885464 162.004801 
L 211.220308 141.992782 
L 212.22144 130.024564 
L 213.222573 121.149977 
L 213.889994 117.102326 
L 214.557416 114.613561 
L 214.891127 113.961925 
L 215.224838 113.706252 
L 215.558549 113.844955 
L 215.89226 114.37474 
L 216.22597 115.290647 
L 216.893392 118.252959 
L 217.560814 122.660967 
L 218.228236 128.420998 
L 219.229368 139.342008 
L 220.564212 157.433936 
L 222.232766 183.941668 
L 226.571007 255.110047 
L 227.90585 272.914337 
L 228.906983 283.958228 
L 229.908116 292.722461 
L 230.575537 297.201712 
L 231.242959 300.542775 
L 231.910381 302.72026 
L 232.244092 303.368226 
L 232.577802 303.721493 
L 232.911513 303.780331 
L 233.245224 303.545701 
L 233.578935 303.019242 
L 234.246357 301.10085 
L 234.913778 298.052254 
L 235.5812 293.912114 
L 236.582333 285.769119 
L 237.583465 275.508412 
L 238.918309 259.031342 
L 240.586863 235.14623 
L 244.925104 170.450651 
L 246.259947 154.448345 
L 247.26108 144.90561 
L 247.928502 139.937508 
L 248.595923 136.198694 
L 249.263345 133.766628 
L 249.597056 133.059272 
L 249.930767 132.698254 
L 250.264478 132.687201 
L 250.598189 133.02826 
L 250.931899 133.722068 
L 251.599321 136.162771 
L 252.266743 139.983376 
L 252.934165 145.13291 
L 253.935297 155.176776 
L 254.93643 167.679912 
L 256.271273 187.360944 
L 258.607249 226.163886 
L 260.609514 258.437256 
L 261.944358 276.717273 
L 262.94549 287.791863 
L 263.946623 296.141728 
L 264.614045 300.052883 
L 265.281466 302.583626 
L 265.615177 303.326139 
L 265.948888 303.721343 
L 266.282599 303.772731 
L 266.61631 303.485828 
L 266.950021 302.868155 
L 267.617442 300.680104 
L 268.284864 297.305569 
L 268.952286 292.867581 
L 269.953418 284.539379 
L 271.288262 271.206326 
L 274.959081 232.781789 
L 275.960214 224.545694 
L 276.961346 218.117478 
L 277.628768 214.973475 
L 278.29619 212.802517 
L 278.963611 211.627586 
L 279.297322 211.414033 
L 279.631033 211.446966 
L 279.964744 211.722501 
L 280.298455 212.235381 
L 280.965876 213.945727 
L 281.633298 216.511329 
L 282.634431 221.77671 
L 283.635563 228.438422 
L 284.970407 238.830902 
L 289.308648 274.166659 
L 290.643491 282.883374 
L 291.644624 288.319198 
L 292.645756 292.779897 
L 293.646889 296.306376 
L 294.648022 298.987662 
L 295.649154 300.942713 
L 296.650287 302.300094 
L 297.651419 303.1772 
L 298.652552 303.660761 
L 299.319973 303.786367 
L 299.987395 303.753293 
L 300.654817 303.546372 
L 301.322239 303.138478 
L 301.98966 302.492313 
L 302.657082 301.56269 
L 303.324504 300.299195 
L 303.991925 298.649109 
L 304.659347 296.560505 
L 305.66048 292.502215 
L 306.661612 287.221591 
L 307.662745 280.646151 
L 308.663877 272.77811 
L 309.998721 260.44511 
L 311.667275 242.783748 
L 315.004384 206.452946 
L 316.339227 194.646809 
L 317.34036 187.89726 
L 318.007781 184.639299 
L 318.675203 182.497714 
L 319.008914 181.872037 
L 319.342625 181.554255 
L 319.676336 181.550717 
L 320.010047 181.866057 
L 320.343757 182.503131 
L 321.011179 184.744641 
L 321.678601 188.260454 
L 322.346023 193.004625 
L 323.347155 202.246451 
L 324.348288 213.681473 
L 326.016842 236.112043 
L 329.02024 277.572963 
L 330.021372 288.684182 
L 331.022505 297.156495 
L 331.689926 301.014961 
L 332.357348 303.253593 
L 332.691059 303.725007 
L 333.02477 303.747334 
L 333.358481 303.31067 
L 333.692192 302.407578 
L 334.025902 301.033128 
L 334.693324 296.863145 
L 335.360746 290.812221 
L 336.028168 282.932408 
L 337.0293 267.894109 
L 338.030433 249.420334 
L 339.365276 220.558567 
L 341.701252 163.876598 
L 343.703517 116.637404 
L 345.038361 89.713901 
L 346.039493 73.285729 
L 347.040626 60.801044 
L 347.708048 54.909248 
L 348.375469 51.079809 
L 348.70918 49.958334 
L 349.042891 49.371539 
L 349.376602 49.320824 
L 349.710313 49.805204 
L 350.044024 50.821325 
L 350.711445 54.423711 
L 351.378867 60.055125 
L 352.046289 67.60777 
L 353.047421 82.22404 
L 354.048554 100.246695 
L 355.383397 128.327679 
L 358.053084 191.008461 
L 360.055349 235.765613 
L 361.390193 261.108278 
L 362.391325 276.739992 
L 363.392458 289.005496 
L 364.059879 295.175846 
L 364.727301 299.690046 
L 365.394723 302.539096 
L 365.728434 303.344613 
L 366.062145 303.744001 
L 366.395855 303.744368 
L 366.729566 303.354508 
L 367.063277 302.584842 
L 367.730699 299.955444 
L 368.398121 295.969132 
L 369.065542 290.759659 
L 370.066675 280.987415 
L 371.401518 265.201565 
L 376.407181 201.786596 
L 377.408314 192.409455 
L 378.409446 185.11594 
L 379.076868 181.530086 
L 379.74429 179.017938 
L 380.411711 177.600734 
L 380.745422 177.303705 
L 381.079133 177.279062 
L 381.412844 177.523791 
L 381.746555 178.033716 
L 382.413976 179.826902 
L 383.081398 182.603764 
L 383.74882 186.294182 
L 384.749952 193.357263 
L 386.084796 205.107669 
L 387.75335 222.308758 
L 391.75788 265.048499 
L 393.092724 277.069711 
L 394.427567 287.074404 
L 395.4287 293.079233 
L 396.429832 297.734617 
L 397.097254 300.08491 
L 397.764676 301.843111 
L 398.432098 303.027018 
L 399.099519 303.661011 
L 399.43323 303.78093 
L 399.766941 303.774919 
L 400.434363 303.402876 
L 401.101784 302.582339 
L 401.769206 301.353339 
L 402.770339 298.836162 
L 403.771471 295.641512 
L 405.106315 290.587466 
L 407.442291 280.548675 
L 410.111977 269.202361 
L 411.446821 264.30175 
L 412.781664 260.265461 
L 413.782797 257.936161 
L 414.783929 256.287963 
L 415.451351 255.59606 
L 416.118773 255.244179 
L 416.786195 255.240167 
L 417.453616 255.587499 
L 418.121038 256.285046 
L 418.78846 257.326875 
L 419.455881 258.702111 
L 420.457014 261.353935 
L 421.458147 264.644138 
L 422.79299 269.848857 
L 424.795255 278.779909 
L 427.798653 292.190645 
L 429.133496 297.11746 
L 430.134629 300.062524 
L 431.135761 302.216915 
L 431.803183 303.161527 
L 432.470605 303.685518 
L 433.138027 303.773607 
L 433.805448 303.418296 
L 434.47287 302.62014 
L 435.140292 301.387749 
L 435.807713 299.737606 
L 436.808846 296.533634 
L 437.809978 292.555856 
L 439.144822 286.296738 
L 441.480798 273.883432 
L 443.816774 261.728751 
L 445.151617 255.831937 
L 446.15275 252.210818 
L 447.153882 249.422481 
L 447.821304 248.075862 
L 448.488726 247.163986 
L 449.156148 246.700232 
L 449.489858 246.638592 
L 449.823569 246.690698 
L 450.490991 247.134171 
L 451.158413 248.022207 
L 451.825834 249.339344 
L 452.826967 252.069374 
L 453.8281 255.612676 
L 455.162943 261.376568 
L 456.831497 269.728042 
L 460.836028 290.244766 
L 462.170871 295.762392 
L 463.172004 299.0877 
L 464.173136 301.586867 
L 464.840558 302.749674 
L 465.507979 303.487177 
L 466.175401 303.786733 
L 466.509112 303.770017 
L 467.176534 303.402481 
L 467.843955 302.592542 
L 468.511377 301.349339 
L 469.178799 299.688152 
L 470.179931 296.460722 
L 471.181064 292.437532 
L 472.515907 286.049357 
L 474.518173 275.006756 
L 477.855281 256.224268 
L 479.190125 249.858392 
L 480.191257 245.892388 
L 481.19239 242.778339 
L 481.859811 241.233958 
L 482.527233 240.147288 
L 483.194655 239.538861 
L 483.528366 239.418527 
L 483.862077 239.422307 
L 484.195787 239.550767 
L 484.863209 240.181657 
L 485.530631 241.306286 
L 486.198053 242.912071 
L 487.199185 246.176598 
L 488.200318 250.376665 
L 489.535161 257.192699 
L 491.203715 267.074379 
L 494.874535 289.359277 
L 496.209378 295.878246 
L 497.210511 299.676883 
L 497.877932 301.579779 
L 498.545354 302.920213 
L 499.212776 303.655986 
L 499.546487 303.786177 
L 499.880198 303.75317 
L 500.213908 303.554138 
L 500.547619 303.186863 
L 501.215041 301.941863 
L 501.882463 300.013254 
L 502.549884 297.40685 
L 503.551017 292.266218 
L 504.55215 285.744547 
L 505.886993 275.182196 
L 507.555547 259.731103 
L 512.227499 214.613379 
L 513.562343 204.64386 
L 514.563475 198.865797 
L 515.230897 195.958086 
L 515.898319 193.872456 
L 516.56574 192.65182 
L 516.899451 192.375545 
L 517.233162 192.325326 
L 517.566873 192.502521 
L 517.900584 192.907542 
L 518.568006 194.397899 
L 519.235427 196.78038 
L 519.902849 200.023496 
L 520.903981 206.395631 
L 521.905114 214.376849 
L 523.239957 227.01826 
L 525.242223 248.519277 
L 527.578199 273.473455 
L 528.913042 285.691929 
L 529.914175 293.167627 
L 530.915307 298.832501 
L 531.582729 301.473639 
L 532.250151 303.137924 
L 532.583861 303.590582 
L 532.917572 303.785414 
L 533.251283 303.7202 
L 533.584994 303.393866 
L 533.918705 302.80649 
L 534.586127 300.854701 
L 535.253548 297.88846 
L 535.92097 293.9494 
L 536.922103 286.3502 
L 537.923235 276.964891 
L 539.258079 262.265703 
L 541.594055 233.305589 
L 543.930031 205.239875 
L 545.264874 191.806275 
L 546.266007 183.680082 
L 547.267139 177.562204 
L 547.934561 174.71203 
L 548.601982 172.899246 
L 548.935693 172.391053 
L 549.269404 172.150981 
L 549.603115 172.179609 
L 549.936826 172.476389 
L 550.270537 173.039647 
L 550.937958 174.953361 
L 551.60538 177.885437 
L 552.272802 181.783795 
L 553.273934 189.290762 
L 554.275067 198.527713 
L 555.60991 212.924833 
L 558.279597 245.202152 
L 560.281862 268.428326 
L 561.616706 281.658636 
L 562.617838 289.844943 
L 563.618971 296.270508 
L 564.286393 299.491071 
L 564.953814 301.824212 
L 565.621236 303.256181 
L 565.954947 303.634288 
L 566.288658 303.789147 
L 566.622369 303.723467 
L 566.95608 303.440899 
L 567.28979 302.946007 
L 567.957212 301.341872 
L 568.624634 298.964475 
L 569.625766 294.094719 
L 570.626899 287.898723 
L 571.961742 278.103743 
L 577.301116 236.506334 
L 578.302249 230.735538 
L 579.303381 226.1689 
L 579.970803 223.860452 
L 580.638225 222.172291 
L 581.305646 221.119558 
L 581.639357 220.833383 
L 581.973068 220.707096 
L 582.306779 220.73976 
L 582.64049 220.92985 
L 583.307911 221.773404 
L 583.975333 223.214647 
L 584.642755 225.222527 
L 585.643887 229.211588 
L 586.64502 234.23414 
L 587.979863 242.226861 
L 589.982129 256.024051 
L 593.652948 281.823467 
L 594.987791 289.774215 
L 595.988924 294.80239 
L 596.990057 298.848559 
L 597.657478 300.928064 
L 598.3249 302.467624 
L 598.992322 303.432427 
L 599.326033 303.68953 
L 599.659743 303.79177 
L 599.993454 303.736008 
L 600.327165 303.519411 
L 600.994587 302.594075 
L 601.662009 301.000347 
L 602.32943 298.729745 
L 602.996852 295.781751 
L 603.997984 290.110711 
L 604.999117 283.007159 
L 606.33396 271.530853 
L 608.002515 254.62977 
L 613.341888 197.661632 
L 614.343021 189.67321 
L 615.344154 183.440302 
L 616.011575 180.406794 
L 616.678997 178.353833 
L 617.012708 177.71247 
L 617.346419 177.334998 
L 617.68013 177.225351 
L 618.01384 177.386275 
L 618.347551 177.819297 
L 618.681262 178.524689 
L 619.348684 180.7473 
L 620.016106 184.030611 
L 620.683527 188.330405 
L 621.68466 196.539172 
L 622.685792 206.585034 
L 624.020636 222.153889 
L 628.692588 279.649848 
L 629.69372 289.044049 
L 630.694853 296.363415 
L 631.362275 299.927972 
L 632.029696 302.358705 
L 632.363407 303.134491 
L 632.697118 303.612719 
L 633.030829 303.792058 
L 633.36454 303.672835 
L 633.698251 303.257042 
L 634.031961 302.548321 
L 634.699383 300.274653 
L 635.366805 296.912265 
L 636.034227 292.54469 
L 637.035359 284.34174 
L 638.370203 271.001809 
L 640.706179 244.441098 
L 642.708444 222.785942 
L 644.043287 210.957182 
L 645.04442 204.094497 
L 645.711841 200.6256 
L 646.379263 198.103183 
L 647.046685 196.556968 
L 647.380396 196.153636 
L 647.714107 195.996281 
L 648.047817 196.082974 
L 648.381528 196.410601 
L 648.715239 196.974906 
L 649.382661 198.791104 
L 650.050083 201.476588 
L 650.717504 204.961604 
L 651.718637 211.505212 
L 653.05348 222.180585 
L 655.055745 240.655986 
L 658.059143 268.390475 
L 659.393986 278.963589 
L 660.72883 287.807878 
L 661.729962 293.165912 
L 662.731095 297.3914 
L 663.732228 300.49924 
L 664.399649 301.974543 
L 665.067071 302.997744 
L 665.734493 303.594699 
L 666.401914 303.793436 
L 667.069336 303.622739 
L 667.736758 303.111006 
L 668.40418 302.28567 
L 669.405312 300.516679 
L 670.406445 298.183904 
L 671.741288 294.329589 
L 673.076132 289.783764 
L 675.078397 282.051014 
L 679.750349 263.401678 
L 681.085192 259.074905 
L 682.086325 256.454388 
L 683.087457 254.500903 
L 683.754879 253.62166 
L 684.422301 253.112237 
L 685.089722 252.994084 
L 685.757144 253.282856 
L 686.424566 253.987601 
L 687.091987 255.110048 
L 687.759409 256.644033 
L 688.760542 259.682623 
L 689.761674 263.527518 
L 691.096518 269.680829 
L 693.098783 280.226907 
L 695.434759 292.312239 
L 696.769602 297.932323 
L 697.770735 301.086054 
L 698.438157 302.563979 
L 699.105578 303.480501 
L 699.439289 303.714671 
L 699.773 303.793551 
L 699.773 303.793551 
" clip-path="url(#p02dc4cd9e4)" style="fill: none; stroke: #d32f2f; stroke-width: 2; stroke-linecap: round"/>
   </g>
   <g id="line2d_38">
    <path d="M 32.685 303.793551 
L 699.773 303.793551 
" clip-path="url(#p02dc4cd9e4)" style="fill: none; stroke: #000000; stroke-width: 0.8; stroke-linecap: round"/>
   </g>
   <g id="patch_3">
    <path d="M 32.685 316.517187 
L 32.685 36.597187 
" style="fill: none; stroke: #cccccc; stroke-width: 1.25; stroke-linejoin: miter; stroke-linecap: square"/>
   </g>
   <g id="patch_4">
    <path d="M 699.773 316.517187 
L 699.773 36.597187 
" style="fill: none; stroke: #cccccc; stroke-width: 1.25; stroke-linejoin: miter; stroke-linecap: square"/>
   </g>
   <g id="patch_5">
    <path d="M 32.685 316.517187 
L 699.773 316.517187 
" style="fill: none; stroke: #cccccc; stroke-width: 1.25; stroke-linejoin: miter; stroke-linecap: square"/>
   </g>
   <g id="patch_6">
    <path d="M 32.685 36.597187 
L 699.773 36.597187 
" style="fill: none; stroke: #cccccc; stroke-width: 1.25; stroke-linejoin: miter; stroke-linecap: square"/>
   </g>
   <g id="text_3">
    <!-- Overfitting Sobre Puntos de Colocación -->
    <g style="fill: #262626" transform="translate(189.95275 21.597187) scale(0.18 -0.18)">
     <defs>
      <path id="DejaVuSans-4f" d="M 2522 4238 
Q 1834 4238 1429 3725 
Q 1025 3213 1025 2328 
Q 1025 1447 1429 934 
Q 1834 422 2522 422 
Q 3209 422 3611 934 
Q 4013 1447 4013 2328 
Q 4013 3213 3611 3725 
Q 3209 4238 2522 4238 
z
M 2522 4750 
Q 3503 4750 4090 4092 
Q 4678 3434 4678 2328 
Q 4678 1225 4090 567 
Q 3503 -91 2522 -91 
Q 1538 -91 948 565 
Q 359 1222 359 2328 
Q 359 3434 948 4092 
Q 1538 4750 2522 4750 
z
" transform="scale(0.015625)"/>
      <path id="DejaVuSans-76" d="M 191 3500 
L 800 3500 
L 1894 563 
L 2988 3500 
L 3597 3500 
L 2284 0 
L 1503 0 
L 191 3500 
z
" transform="scale(0.015625)"/>
      <path id="DejaVuSans-65" d="M 3597 1894 
L 3597 1613 
L 953 1613 
Q 991 1019 1311 708 
Q 1631 397 2203 397 
Q 2534 397 2845 478 
Q 3156 559 3463 722 
L 3463 178 
Q 3153 47 2828 -22 
Q 2503 -91 2169 -91 
Q 1331 -91 842 396 
Q 353 884 353 1716 
Q 353 2575 817 3079 
Q 1281 3584 2069 3584 
Q 2775 3584 3186 3129 
Q 3597 2675 3597 1894 
z
M 3022 2063 
Q 3016 2534 2758 2815 
Q 2500 3097 2075 3097 
Q 1594 3097 1305 2825 
Q 1016 2553 972 2059 
L 3022 2063 
z
" transform="scale(0.015625)"/>
      <path id="DejaVuSans-72" d="M 2631 2963 
Q 2534 3019 2420 3045 
Q 2306 3072 2169 3072 
Q 1681 3072 1420 2755 
Q 1159 2438 1159 1844 
L 1159 0 
L 581 0 
L 581 3500 
L 1159 3500 
L 1159 2956 
Q 1341 3275 1631 3429 
Q 1922 3584 2338 3584 
Q 2397 3584 2469 3576 
Q 2541 3569 2628 3553 
L 2631 2963 
z
" transform="scale(0.015625)"/>
      <path id="DejaVuSans-66" d="M 2375 4863 
L 2375 4384 
L 1825 4384 
Q 1516 4384 1395 4259 
Q 1275 4134 1275 3809 
L 1275 3500 
L 2222 3500 
L 2222 3053 
L 1275 3053 
L 1275 0 
L 697 0 
L 697 3053 
L 147 3053 
L 147 3500 
L 697 3500 
L 697 3744 
Q 697 4328 969 4595 
Q 1241 4863 1831 4863 
L 2375 4863 
z
" transform="scale(0.015625)"/>
      <path id="DejaVuSans-74" d="M 1172 4494 
L 1172 3500 
L 2356 3500 
L 2356 3053 
L 1172 3053 
L 1172 1153 
Q 1172 725 1289 603 
Q 1406 481 1766 481 
L 2356 481 
L 2356 0 
L 1766 0 
Q 1100 0 847 248 
Q 594 497 594 1153 
L 594 3053 
L 172 3053 
L 172 3500 
L 594 3500 
L 594 4494 
L 1172 4494 
z
" transform="scale(0.015625)"/>
      <path id="DejaVuSans-67" d="M 2906 1791 
Q 2906 2416 2648 2759 
Q 2391 3103 1925 3103 
Q 1463 3103 1205 2759 
Q 947 2416 947 1791 
Q 947 1169 1205 825 
Q 1463 481 1925 481 
Q 2391 481 2648 825 
Q 2906 1169 2906 1791 
z
M 3481 434 
Q 3481 -459 3084 -895 
Q 2688 -1331 1869 -1331 
Q 1566 -1331 1297 -1286 
Q 1028 -1241 775 -1147 
L 775 -588 
Q 1028 -725 1275 -790 
Q 1522 -856 1778 -856 
Q 2344 -856 2625 -561 
Q 2906 -266 2906 331 
L 2906 616 
Q 2728 306 2450 153 
Q 2172 0 1784 0 
Q 1141 0 747 490 
Q 353 981 353 1791 
Q 353 2603 747 3093 
Q 1141 3584 1784 3584 
Q 2172 3584 2450 3431 
Q 2728 3278 2906 2969 
L 2906 3500 
L 3481 3500 
L 3481 434 
z
" transform="scale(0.015625)"/>
      <path id="DejaVuSans-53" d="M 3425 4513 
L 3425 3897 
Q 3066 4069 2747 4153 
Q 2428 4238 2131 4238 
Q 1616 4238 1336 4038 
Q 1056 3838 1056 3469 
Q 1056 3159 1242 3001 
Q 1428 2844 1947 2747 
L 2328 2669 
Q 3034 2534 3370 2195 
Q 3706 1856 3706 1288 
Q 3706 609 3251 259 
Q 2797 -91 1919 -91 
Q 1588 -91 1214 -16 
Q 841 59 441 206 
L 441 856 
Q 825 641 1194 531 
Q 1563 422 1919 422 
Q 2459 422 2753 634 
Q 3047 847 3047 1241 
Q 3047 1584 2836 1778 
Q 2625 1972 2144 2069 
L 1759 2144 
Q 1053 2284 737 2584 
Q 422 2884 422 3419 
Q 422 4038 858 4394 
Q 1294 4750 2059 4750 
Q 2388 4750 2728 4690 
Q 3069 4631 3425 4513 
z
" transform="scale(0.015625)"/>
      <path id="DejaVuSans-62" d="M 3116 1747 
Q 3116 2381 2855 2742 
Q 2594 3103 2138 3103 
Q 1681 3103 1420 2742 
Q 1159 2381 1159 1747 
Q 1159 1113 1420 752 
Q 1681 391 2138 391 
Q 2594 391 2855 752 
Q 3116 1113 3116 1747 
z
M 1159 2969 
Q 1341 3281 1617 3432 
Q 1894 3584 2278 3584 
Q 2916 3584 3314 3078 
Q 3713 2572 3713 1747 
Q 3713 922 3314 415 
Q 2916 -91 2278 -91 
Q 1894 -91 1617 61 
Q 1341 213 1159 525 
L 1159 0 
L 581 0 
L 581 4863 
L 1159 4863 
L 1159 2969 
z
" transform="scale(0.015625)"/>
      <path id="DejaVuSans-50" d="M 1259 4147 
L 1259 2394 
L 2053 2394 
Q 2494 2394 2734 2622 
Q 2975 2850 2975 3272 
Q 2975 3691 2734 3919 
Q 2494 4147 2053 4147 
L 1259 4147 
z
M 628 4666 
L 2053 4666 
Q 2838 4666 3239 4311 
Q 3641 3956 3641 3272 
Q 3641 2581 3239 2228 
Q 2838 1875 2053 1875 
L 1259 1875 
L 1259 0 
L 628 0 
L 628 4666 
z
" transform="scale(0.015625)"/>
      <path id="DejaVuSans-75" d="M 544 1381 
L 544 3500 
L 1119 3500 
L 1119 1403 
Q 1119 906 1312 657 
Q 1506 409 1894 409 
Q 2359 409 2629 706 
Q 2900 1003 2900 1516 
L 2900 3500 
L 3475 3500 
L 3475 0 
L 2900 0 
L 2900 538 
Q 2691 219 2414 64 
Q 2138 -91 1772 -91 
Q 1169 -91 856 284 
Q 544 659 544 1381 
z
M 1991 3584 
L 1991 3584 
z
" transform="scale(0.015625)"/>
      <path id="DejaVuSans-73" d="M 2834 3397 
L 2834 2853 
Q 2591 2978 2328 3040 
Q 2066 3103 1784 3103 
Q 1356 3103 1142 2972 
Q 928 2841 928 2578 
Q 928 2378 1081 2264 
Q 1234 2150 1697 2047 
L 1894 2003 
Q 2506 1872 2764 1633 
Q 3022 1394 3022 966 
Q 3022 478 2636 193 
Q 2250 -91 1575 -91 
Q 1294 -91 989 -36 
Q 684 19 347 128 
L 347 722 
Q 666 556 975 473 
Q 1284 391 1588 391 
Q 1994 391 2212 530 
Q 2431 669 2431 922 
Q 2431 1156 2273 1281 
Q 2116 1406 1581 1522 
L 1381 1569 
Q 847 1681 609 1914 
Q 372 2147 372 2553 
Q 372 3047 722 3315 
Q 1072 3584 1716 3584 
Q 2034 3584 2315 3537 
Q 2597 3491 2834 3397 
z
" transform="scale(0.015625)"/>
      <path id="DejaVuSans-64" d="M 2906 2969 
L 2906 4863 
L 3481 4863 
L 3481 0 
L 2906 0 
L 2906 525 
Q 2725 213 2448 61 
Q 2172 -91 1784 -91 
Q 1150 -91 751 415 
Q 353 922 353 1747 
Q 353 2572 751 3078 
Q 1150 3584 1784 3584 
Q 2172 3584 2448 3432 
Q 2725 3281 2906 2969 
z
M 947 1747 
Q 947 1113 1208 752 
Q 1469 391 1925 391 
Q 2381 391 2643 752 
Q 2906 1113 2906 1747 
Q 2906 2381 2643 2742 
Q 2381 3103 1925 3103 
Q 1469 3103 1208 2742 
Q 947 2381 947 1747 
z
" transform="scale(0.015625)"/>
      <path id="DejaVuSans-43" d="M 4122 4306 
L 4122 3641 
Q 3803 3938 3442 4084 
Q 3081 4231 2675 4231 
Q 1875 4231 1450 3742 
Q 1025 3253 1025 2328 
Q 1025 1406 1450 917 
Q 1875 428 2675 428 
Q 3081 428 3442 575 
Q 3803 722 4122 1019 
L 4122 359 
Q 3791 134 3420 21 
Q 3050 -91 2638 -91 
Q 1578 -91 968 557 
Q 359 1206 359 2328 
Q 359 3453 968 4101 
Q 1578 4750 2638 4750 
Q 3056 4750 3426 4639 
Q 3797 4528 4122 4306 
z
" transform="scale(0.015625)"/>
      <path id="DejaVuSans-6c" d="M 603 4863 
L 1178 4863 
L 1178 0 
L 603 0 
L 603 4863 
z
" transform="scale(0.015625)"/>
      <path id="DejaVuSans-63" d="M 3122 3366 
L 3122 2828 
Q 2878 2963 2633 3030 
Q 2388 3097 2138 3097 
Q 1578 3097 1268 2742 
Q 959 2388 959 1747 
Q 959 1106 1268 751 
Q 1578 397 2138 397 
Q 2388 397 2633 464 
Q 2878 531 3122 666 
L 3122 134 
Q 2881 22 2623 -34 
Q 2366 -91 2075 -91 
Q 1284 -91 818 406 
Q 353 903 353 1747 
Q 353 2603 823 3093 
Q 1294 3584 2113 3584 
Q 2378 3584 2631 3529 
Q 2884 3475 3122 3366 
z
" transform="scale(0.015625)"/>
      <path id="DejaVuSans-61" d="M 2194 1759 
Q 1497 1759 1228 1600 
Q 959 1441 959 1056 
Q 959 750 1161 570 
Q 1363 391 1709 391 
Q 2188 391 2477 730 
Q 2766 1069 2766 1631 
L 2766 1759 
L 2194 1759 
z
M 3341 1997 
L 3341 0 
L 2766 0 
L 2766 531 
Q 2569 213 2275 61 
Q 1981 -91 1556 -91 
Q 1019 -91 701 211 
Q 384 513 384 1019 
Q 384 1609 779 1909 
Q 1175 2209 1959 2209 
L 2766 2209 
L 2766 2266 
Q 2766 2663 2505 2880 
Q 2244 3097 1772 3097 
Q 1472 3097 1187 3025 
Q 903 2953 641 2809 
L 641 3341 
Q 956 3463 1253 3523 
Q 1550 3584 1831 3584 
Q 2591 3584 2966 3190 
Q 3341 2797 3341 1997 
z
" transform="scale(0.015625)"/>
      <path id="DejaVuSans-f3" d="M 1959 3097 
Q 1497 3097 1228 2736 
Q 959 2375 959 1747 
Q 959 1119 1226 758 
Q 1494 397 1959 397 
Q 2419 397 2687 759 
Q 2956 1122 2956 1747 
Q 2956 2369 2687 2733 
Q 2419 3097 1959 3097 
z
M 1959 3584 
Q 2709 3584 3137 3096 
Q 3566 2609 3566 1747 
Q 3566 888 3137 398 
Q 2709 -91 1959 -91 
Q 1206 -91 779 398 
Q 353 888 353 1747 
Q 353 2609 779 3096 
Q 1206 3584 1959 3584 
z
M 2394 5119 
L 3016 5119 
L 1998 3944 
L 1519 3944 
L 2394 5119 
z
" transform="scale(0.015625)"/>
     </defs>
     <use xlink:href="#DejaVuSans-4f"/>
     <use xlink:href="#DejaVuSans-76" transform="translate(78.710938 0)"/>
     <use xlink:href="#DejaVuSans-65" transform="translate(137.890625 0)"/>
     <use xlink:href="#DejaVuSans-72" transform="translate(199.414062 0)"/>
     <use xlink:href="#DejaVuSans-66" transform="translate(240.527344 0)"/>
     <use xlink:href="#DejaVuSans-69" transform="translate(275.732422 0)"/>
     <use xlink:href="#DejaVuSans-74" transform="translate(303.515625 0)"/>
     <use xlink:href="#DejaVuSans-74" transform="translate(342.724609 0)"/>
     <use xlink:href="#DejaVuSans-69" transform="translate(381.933594 0)"/>
     <use xlink:href="#DejaVuSans-6e" transform="translate(409.716797 0)"/>
     <use xlink:href="#DejaVuSans-67" transform="translate(473.095703 0)"/>
     <use xlink:href="#DejaVuSans-20" transform="translate(536.572266 0)"/>
     <use xlink:href="#DejaVuSans-53" transform="translate(568.359375 0)"/>
     <use xlink:href="#DejaVuSans-6f" transform="translate(631.835938 0)"/>
     <use xlink:href="#DejaVuSans-62" transform="translate(693.017578 0)"/>
     <use xlink:href="#DejaVuSans-72" transform="translate(756.494141 0)"/>
     <use xlink:href="#DejaVuSans-65" transform="translate(795.357422 0)"/>
     <use xlink:href="#DejaVuSans-20" transform="translate(856.880859 0)"/>
     <use xlink:href="#DejaVuSans-50" transform="translate(888.667969 0)"/>
     <use xlink:href="#DejaVuSans-75" transform="translate(947.220703 0)"/>
     <use xlink:href="#DejaVuSans-6e" transform="translate(1010.599609 0)"/>
     <use xlink:href="#DejaVuSans-74" transform="translate(1073.978516 0)"/>
     <use xlink:href="#DejaVuSans-6f" transform="translate(1113.1875 0)"/>
     <use xlink:href="#DejaVuSans-73" transform="translate(1174.369141 0)"/>
     <use xlink:href="#DejaVuSans-20" transform="translate(1226.46875 0)"/>
     <use xlink:href="#DejaVuSans-64" transform="translate(1258.255859 0)"/>
     <use xlink:href="#DejaVuSans-65" transform="translate(1321.732422 0)"/>
     <use xlink:href="#DejaVuSans-20" transform="translate(1383.255859 0)"/>
     <use xlink:href="#DejaVuSans-43" transform="translate(1415.042969 0)"/>
     <use xlink:href="#DejaVuSans-6f" transform="translate(1484.867188 0)"/>
     <use xlink:href="#DejaVuSans-6c" transform="translate(1546.048828 0)"/>
     <use xlink:href="#DejaVuSans-6f" transform="translate(1573.832031 0)"/>
     <use xlink:href="#DejaVuSans-63" transform="translate(1635.013672 0)"/>
     <use xlink:href="#DejaVuSans-61" transform="translate(1689.994141 0)"/>
     <use xlink:href="#DejaVuSans-63" transform="translate(1751.273438 0)"/>
     <use xlink:href="#DejaVuSans-69" transform="translate(1806.253906 0)"/>
     <use xlink:href="#DejaVuSans-f3" transform="translate(1834.037109 0)"/>
     <use xlink:href="#DejaVuSans-6e" transform="translate(1895.21875 0)"/>
    </g>
   </g>
   <g id="PathCollection_1">
    <defs>
     <path id="m602a4d42ed" d="M 0 2.236068 
C 0.593012 2.236068 1.161816 2.000462 1.581139 1.581139 
C 2.000462 1.161816 2.236068 0.593012 2.236068 0 
C 2.236068 -0.593012 2.000462 -1.161816 1.581139 -1.581139 
C 1.161816 -2.000462 0.593012 -2.236068 0 -2.236068 
C -0.593012 -2.236068 -1.161816 -2.000462 -1.581139 -1.581139 
C -2.000462 -1.161816 -2.236068 -0.593012 -2.236068 0 
C -2.236068 0.593012 -2.000462 1.161816 -1.581139 1.581139 
C -1.161816 2.000462 -0.593012 2.236068 0 2.236068 
z
" style="stroke: #000000"/>
    </defs>
    <g clip-path="url(#p02dc4cd9e4)">
     <use xlink:href="#m602a4d42ed" x="32.685" y="303.793551" style="stroke: #000000"/>
     <use xlink:href="#m602a4d42ed" x="66.0394" y="303.793551" style="stroke: #000000"/>
     <use xlink:href="#m602a4d42ed" x="99.3938" y="303.793551" style="stroke: #000000"/>
     <use xlink:href="#m602a4d42ed" x="132.7482" y="303.793551" style="stroke: #000000"/>
     <use xlink:href="#m602a4d42ed" x="166.1026" y="303.793551" style="stroke: #000000"/>
     <use xlink:href="#m602a4d42ed" x="199.457" y="303.793551" style="stroke: #000000"/>
     <use xlink:href="#m602a4d42ed" x="232.8114" y="303.793551" style="stroke: #000000"/>
     <use xlink:href="#m602a4d42ed" x="266.1658" y="303.793551" style="stroke: #000000"/>
     <use xlink:href="#m602a4d42ed" x="299.5202" y="303.793551" style="stroke: #000000"/>
     <use xlink:href="#m602a4d42ed" x="332.8746" y="303.793551" style="stroke: #000000"/>
     <use xlink:href="#m602a4d42ed" x="366.229" y="303.793551" style="stroke: #000000"/>
     <use xlink:href="#m602a4d42ed" x="399.5834" y="303.793551" style="stroke: #000000"/>
     <use xlink:href="#m602a4d42ed" x="432.9378" y="303.793551" style="stroke: #000000"/>
     <use xlink:href="#m602a4d42ed" x="466.2922" y="303.793551" style="stroke: #000000"/>
     <use xlink:href="#m602a4d42ed" x="499.6466" y="303.793551" style="stroke: #000000"/>
     <use xlink:href="#m602a4d42ed" x="533.001" y="303.793551" style="stroke: #000000"/>
     <use xlink:href="#m602a4d42ed" x="566.3554" y="303.793551" style="stroke: #000000"/>
     <use xlink:href="#m602a4d42ed" x="599.7098" y="303.793551" style="stroke: #000000"/>
     <use xlink:href="#m602a4d42ed" x="633.0642" y="303.793551" style="stroke: #000000"/>
     <use xlink:href="#m602a4d42ed" x="666.4186" y="303.793551" style="stroke: #000000"/>
     <use xlink:href="#m602a4d42ed" x="699.773" y="303.793551" style="stroke: #000000"/>
    </g>
   </g>
   <g id="legend_1">
    <g id="patch_7">
     <path d="M 482.782375 96.314375 
L 691.273 96.314375 
Q 694.273 96.314375 694.273 93.314375 
L 694.273 49.097187 
Q 694.273 46.097187 691.273 46.097187 
L 482.782375 46.097187 
Q 479.782375 46.097187 479.782375 49.097187 
L 479.782375 93.314375 
Q 479.782375 96.314375 482.782375 96.314375 
z
" style="fill: #4d4d4d; opacity: 0.5; stroke: #4d4d4d; stroke-linejoin: miter"/>
    </g>
    <g id="patch_8">
     <path d="M 480.782375 94.314375 
L 689.273 94.314375 
Q 692.273 94.314375 692.273 91.314375 
L 692.273 47.097187 
Q 692.273 44.097187 689.273 44.097187 
L 480.782375 44.097187 
Q 477.782375 44.097187 477.782375 47.097187 
L 477.782375 91.314375 
Q 477.782375 94.314375 480.782375 94.314375 
z
" style="fill: #ffffff; stroke: #cccccc; stroke-linejoin: miter"/>
    </g>
    <g id="line2d_39">
     <path d="M 483.782375 56.397187 
L 498.782375 56.397187 
L 513.782375 56.397187 
" style="fill: none; stroke: #d32f2f; stroke-width: 2; stroke-linecap: round"/>
    </g>
    <g id="text_4">
     <!-- $\|x_{real} - x_{pred}\|_2$ -->
     <g style="fill: #262626" transform="translate(525.782375 61.647187) scale(0.15 -0.15)">
      <defs>
       <path id="DejaVuSans-2016" d="M 1344 4891 
L 1344 -1509 
L 813 -1509 
L 813 4891 
L 1344 4891 
z
M 2376 4891 
L 2376 -1509 
L 1845 -1509 
L 1845 4891 
L 2376 4891 
z
" transform="scale(0.015625)"/>
       <path id="DejaVuSans-Oblique-72" d="M 2853 2969 
Q 2766 3016 2653 3041 
Q 2541 3066 2413 3066 
Q 1953 3066 1609 2717 
Q 1266 2369 1153 1784 
L 800 0 
L 225 0 
L 909 3500 
L 1484 3500 
L 1375 2956 
Q 1603 3259 1920 3421 
Q 2238 3584 2597 3584 
Q 2691 3584 2781 3573 
Q 2872 3563 2963 3538 
L 2853 2969 
z
" transform="scale(0.015625)"/>
       <path id="DejaVuSans-Oblique-65" d="M 3078 2063 
Q 3088 2113 3092 2166 
Q 3097 2219 3097 2272 
Q 3097 2653 2873 2875 
Q 2650 3097 2266 3097 
Q 1838 3097 1509 2826 
Q 1181 2556 1013 2059 
L 3078 2063 
z
M 3578 1613 
L 903 1613 
Q 884 1494 878 1425 
Q 872 1356 872 1306 
Q 872 872 1139 634 
Q 1406 397 1894 397 
Q 2269 397 2603 481 
Q 2938 566 3225 728 
L 3116 159 
Q 2806 34 2476 -28 
Q 2147 -91 1806 -91 
Q 1078 -91 686 257 
Q 294 606 294 1247 
Q 294 1794 489 2264 
Q 684 2734 1063 3103 
Q 1306 3334 1642 3459 
Q 1978 3584 2356 3584 
Q 2950 3584 3301 3228 
Q 3653 2872 3653 2272 
Q 3653 2128 3634 1964 
Q 3616 1800 3578 1613 
z
" transform="scale(0.015625)"/>
       <path id="DejaVuSans-Oblique-61" d="M 3438 1997 
L 3047 0 
L 2472 0 
L 2578 531 
Q 2325 219 2001 64 
Q 1678 -91 1281 -91 
Q 834 -91 548 182 
Q 263 456 263 884 
Q 263 1497 752 1853 
Q 1241 2209 2100 2209 
L 2900 2209 
L 2931 2363 
Q 2938 2388 2941 2417 
Q 2944 2447 2944 2509 
Q 2944 2788 2717 2942 
Q 2491 3097 2081 3097 
Q 1800 3097 1504 3025 
Q 1209 2953 897 2809 
L 997 3341 
Q 1322 3463 1633 3523 
Q 1944 3584 2234 3584 
Q 2853 3584 3176 3315 
Q 3500 3047 3500 2534 
Q 3500 2431 3484 2292 
Q 3469 2153 3438 1997 
z
M 2816 1759 
L 2241 1759 
Q 1534 1759 1195 1570 
Q 856 1381 856 984 
Q 856 709 1029 553 
Q 1203 397 1509 397 
Q 1978 397 2328 733 
Q 2678 1069 2791 1631 
L 2816 1759 
z
" transform="scale(0.015625)"/>
       <path id="DejaVuSans-Oblique-6c" d="M 1172 4863 
L 1747 4863 
L 800 0 
L 225 0 
L 1172 4863 
z
" transform="scale(0.015625)"/>
       <path id="DejaVuSans-2212" d="M 678 2272 
L 4684 2272 
L 4684 1741 
L 678 1741 
L 678 2272 
z
" transform="scale(0.015625)"/>
       <path id="DejaVuSans-Oblique-70" d="M 3175 2156 
Q 3175 2616 2975 2859 
Q 2775 3103 2400 3103 
Q 2144 3103 1911 2972 
Q 1678 2841 1497 2591 
Q 1319 2344 1212 1994 
Q 1106 1644 1106 1300 
Q 1106 863 1306 627 
Q 1506 391 1875 391 
Q 2147 391 2380 519 
Q 2613 647 2778 891 
Q 2956 1147 3065 1494 
Q 3175 1841 3175 2156 
z
M 1394 2969 
Q 1625 3272 1939 3428 
Q 2253 3584 2638 3584 
Q 3175 3584 3472 3232 
Q 3769 2881 3769 2247 
Q 3769 1728 3584 1258 
Q 3400 788 3053 416 
Q 2822 169 2531 39 
Q 2241 -91 1919 -91 
Q 1547 -91 1294 64 
Q 1041 219 916 525 
L 556 -1331 
L -19 -1331 
L 922 3500 
L 1497 3500 
L 1394 2969 
z
" transform="scale(0.015625)"/>
       <path id="DejaVuSans-Oblique-64" d="M 2675 525 
Q 2444 222 2128 65 
Q 1813 -91 1428 -91 
Q 903 -91 598 267 
Q 294 625 294 1247 
Q 294 1766 478 2236 
Q 663 2706 1013 3078 
Q 1244 3325 1534 3454 
Q 1825 3584 2144 3584 
Q 2481 3584 2739 3421 
Q 2997 3259 3138 2956 
L 3513 4863 
L 4091 4863 
L 3144 0 
L 2566 0 
L 2675 525 
z
M 891 1350 
Q 891 897 1095 644 
Q 1300 391 1663 391 
Q 1931 391 2161 520 
Q 2391 650 2566 903 
Q 2750 1166 2856 1509 
Q 2963 1853 2963 2188 
Q 2963 2622 2758 2865 
Q 2553 3109 2194 3109 
Q 1922 3109 1687 2981 
Q 1453 2853 1288 2613 
Q 1106 2353 998 2009 
Q 891 1666 891 1350 
z
" transform="scale(0.015625)"/>
       <path id="DejaVuSans-32" d="M 1228 531 
L 3431 531 
L 3431 0 
L 469 0 
L 469 531 
Q 828 903 1448 1529 
Q 2069 2156 2228 2338 
Q 2531 2678 2651 2914 
Q 2772 3150 2772 3378 
Q 2772 3750 2511 3984 
Q 2250 4219 1831 4219 
Q 1534 4219 1204 4116 
Q 875 4013 500 3803 
L 500 4441 
Q 881 4594 1212 4672 
Q 1544 4750 1819 4750 
Q 2544 4750 2975 4387 
Q 3406 4025 3406 3419 
Q 3406 3131 3298 2873 
Q 3191 2616 2906 2266 
Q 2828 2175 2409 1742 
Q 1991 1309 1228 531 
z
" transform="scale(0.015625)"/>
      </defs>
      <use xlink:href="#DejaVuSans-2016" transform="translate(0 0.578125)"/>
      <use xlink:href="#DejaVuSans-Oblique-78" transform="translate(50 0.578125)"/>
      <use xlink:href="#DejaVuSans-Oblique-72" transform="translate(109.179688 -15.828125) scale(0.7)"/>
      <use xlink:href="#DejaVuSans-Oblique-65" transform="translate(137.958984 -15.828125) scale(0.7)"/>
      <use xlink:href="#DejaVuSans-Oblique-61" transform="translate(181.025391 -15.828125) scale(0.7)"/>
      <use xlink:href="#DejaVuSans-Oblique-6c" transform="translate(223.920898 -15.828125) scale(0.7)"/>
      <use xlink:href="#DejaVuSans-2212" transform="translate(265.585938 0.578125)"/>
      <use xlink:href="#DejaVuSans-Oblique-78" transform="translate(368.857422 0.578125)"/>
      <use xlink:href="#DejaVuSans-Oblique-70" transform="translate(428.037109 -15.828125) scale(0.7)"/>
      <use xlink:href="#DejaVuSans-Oblique-72" transform="translate(472.470703 -15.828125) scale(0.7)"/>
      <use xlink:href="#DejaVuSans-Oblique-65" transform="translate(501.25 -15.828125) scale(0.7)"/>
      <use xlink:href="#DejaVuSans-Oblique-64" transform="translate(544.316406 -15.828125) scale(0.7)"/>
      <use xlink:href="#DejaVuSans-2016" transform="translate(591.484375 0.578125)"/>
      <use xlink:href="#DejaVuSans-32" transform="translate(642.441406 -15.828125) scale(0.7)"/>
     </g>
    </g>
    <g id="PathCollection_2">
     <g>
      <use xlink:href="#m602a4d42ed" x="498.782375" y="81.257344" style="stroke: #000000"/>
     </g>
    </g>
    <g id="text_5">
     <!-- Puntos de Colocación -->
     <g style="fill: #262626" transform="translate(525.782375 85.194844) scale(0.15 -0.15)">
      <use xlink:href="#DejaVuSans-50"/>
      <use xlink:href="#DejaVuSans-75" transform="translate(58.552734 0)"/>
      <use xlink:href="#DejaVuSans-6e" transform="translate(121.931641 0)"/>
      <use xlink:href="#DejaVuSans-74" transform="translate(185.310547 0)"/>
      <use xlink:href="#DejaVuSans-6f" transform="translate(224.519531 0)"/>
      <use xlink:href="#DejaVuSans-73" transform="translate(285.701172 0)"/>
      <use xlink:href="#DejaVuSans-20" transform="translate(337.800781 0)"/>
      <use xlink:href="#DejaVuSans-64" transform="translate(369.587891 0)"/>
      <use xlink:href="#DejaVuSans-65" transform="translate(433.064453 0)"/>
      <use xlink:href="#DejaVuSans-20" transform="translate(494.587891 0)"/>
      <use xlink:href="#DejaVuSans-43" transform="translate(526.375 0)"/>
      <use xlink:href="#DejaVuSans-6f" transform="translate(596.199219 0)"/>
      <use xlink:href="#DejaVuSans-6c" transform="translate(657.380859 0)"/>
      <use xlink:href="#DejaVuSans-6f" transform="translate(685.164062 0)"/>
      <use xlink:href="#DejaVuSans-63" transform="translate(746.345703 0)"/>
      <use xlink:href="#DejaVuSans-61" transform="translate(801.326172 0)"/>
      <use xlink:href="#DejaVuSans-63" transform="translate(862.605469 0)"/>
      <use xlink:href="#DejaVuSans-69" transform="translate(917.585938 0)"/>
      <use xlink:href="#DejaVuSans-f3" transform="translate(945.369141 0)"/>
      <use xlink:href="#DejaVuSans-6e" transform="translate(1006.550781 0)"/>
     </g>
    </g>
   </g>
  </g>
 </g>
 <defs>
  <clipPath id="p02dc4cd9e4">
   <rect x="32.685" y="36.597187" width="667.088" height="279.92"/>
  </clipPath>
 </defs>
</svg>
