<?xml version="1.0" encoding="utf-8" standalone="no"?>
<!DOCTYPE svg PUBLIC "-//W3C//DTD SVG 1.1//EN"
  "http://www.w3.org/Graphics/SVG/1.1/DTD/svg11.dtd">
<svg xmlns:xlink="http://www.w3.org/1999/xlink" width="636.510469pt" height="452.983125pt" viewBox="0 0 636.510469 452.983125" xmlns="http://www.w3.org/2000/svg" version="1.1">
 <metadata>
  <rdf:RDF xmlns:dc="http://purl.org/dc/elements/1.1/" xmlns:cc="http://creativecommons.org/ns#" xmlns:rdf="http://www.w3.org/1999/02/22-rdf-syntax-ns#">
   <cc:Work>
    <dc:type rdf:resource="http://purl.org/dc/dcmitype/StillImage"/>
    <dc:date>2026-05-22T17:31:20.757746</dc:date>
    <dc:format>image/svg+xml</dc:format>
    <dc:creator>
     <cc:Agent>
      <dc:title>Matplotlib v3.10.0, https://matplotlib.org/</dc:title>
     </cc:Agent>
    </dc:creator>
   </cc:Work>
  </rdf:RDF>
 </metadata>
 <defs>
  <style type="text/css">*{stroke-linejoin: round; stroke-linecap: butt}</style>
 </defs>
 <g id="figure_1">
  <g id="patch_1">
   <path d="M 0 452.983125 
L 636.510469 452.983125 
L 636.510469 0 
L 0 0 
z
" style="fill: #ffffff"/>
  </g>
  <g id="axes_1">
   <g id="patch_2">
    <path d="M 60.960469 408.057188 
L 629.310469 408.057188 
L 629.310469 36.597187 
L 60.960469 36.597187 
z
" style="fill: #ffffff"/>
   </g>
   <g id="matplotlib.axis_1">
    <g id="xtick_1">
     <g id="line2d_1">
      <path d="M 60.960469 408.057188 
L 60.960469 36.597187 
" clip-path="url(#p2a2f36b32d)" style="fill: none; stroke: #cccccc; stroke-linecap: round"/>
     </g>
     <g id="line2d_2">
      <defs>
       <path id="m76eb9db401" d="M 0 0 
L 0 6 
" style="stroke: #d3d3d3; stroke-width: 1.25"/>
      </defs>
      <g>
       <use xlink:href="#m76eb9db401" x="60.960469" y="408.057188" style="fill: #d3d3d3; stroke: #d3d3d3; stroke-width: 1.25"/>
      </g>
     </g>
     <g id="text_1">
      <!-- 0 -->
      <g style="fill: #262626" transform="translate(57.461094 425.915469) scale(0.11 -0.11)">
       <defs>
        <path id="DejaVuSans-30" d="M 2034 4250 
Q 1547 4250 1301 3770 
Q 1056 3291 1056 2328 
Q 1056 1369 1301 889 
Q 1547 409 2034 409 
Q 2525 409 2770 889 
Q 3016 1369 3016 2328 
Q 3016 3291 2770 3770 
Q 2525 4250 2034 4250 
z
M 2034 4750 
Q 2819 4750 3233 4129 
Q 3647 3509 3647 2328 
Q 3647 1150 3233 529 
Q 2819 -91 2034 -91 
Q 1250 -91 836 529 
Q 422 1150 422 2328 
Q 422 3509 836 4129 
Q 1250 4750 2034 4750 
z
" transform="scale(0.015625)"/>
       </defs>
       <use xlink:href="#DejaVuSans-30"/>
      </g>
     </g>
    </g>
    <g id="xtick_2">
     <g id="line2d_3">
      <path d="M 151.416181 408.057188 
L 151.416181 36.597187 
" clip-path="url(#p2a2f36b32d)" style="fill: none; stroke: #cccccc; stroke-linecap: round"/>
     </g>
     <g id="line2d_4">
      <g>
       <use xlink:href="#m76eb9db401" x="151.416181" y="408.057188" style="fill: #d3d3d3; stroke: #d3d3d3; stroke-width: 1.25"/>
      </g>
     </g>
     <g id="text_2">
      <!-- 1 -->
      <g style="fill: #262626" transform="translate(147.916806 425.915469) scale(0.11 -0.11)">
       <defs>
        <path id="DejaVuSans-31" d="M 794 531 
L 1825 531 
L 1825 4091 
L 703 3866 
L 703 4441 
L 1819 4666 
L 2450 4666 
L 2450 531 
L 3481 531 
L 3481 0 
L 794 0 
L 794 531 
z
" transform="scale(0.015625)"/>
       </defs>
       <use xlink:href="#DejaVuSans-31"/>
      </g>
     </g>
    </g>
    <g id="xtick_3">
     <g id="line2d_5">
      <path d="M 241.871893 408.057188 
L 241.871893 36.597187 
" clip-path="url(#p2a2f36b32d)" style="fill: none; stroke: #cccccc; stroke-linecap: round"/>
     </g>
     <g id="line2d_6">
      <g>
       <use xlink:href="#m76eb9db401" x="241.871893" y="408.057188" style="fill: #d3d3d3; stroke: #d3d3d3; stroke-width: 1.25"/>
      </g>
     </g>
     <g id="text_3">
      <!-- 2 -->
      <g style="fill: #262626" transform="translate(238.372518 425.915469) scale(0.11 -0.11)">
       <defs>
        <path id="DejaVuSans-32" d="M 1228 531 
L 3431 531 
L 3431 0 
L 469 0 
L 469 531 
Q 828 903 1448 1529 
Q 2069 2156 2228 2338 
Q 2531 2678 2651 2914 
Q 2772 3150 2772 3378 
Q 2772 3750 2511 3984 
Q 2250 4219 1831 4219 
Q 1534 4219 1204 4116 
Q 875 4013 500 3803 
L 500 4441 
Q 881 4594 1212 4672 
Q 1544 4750 1819 4750 
Q 2544 4750 2975 4387 
Q 3406 4025 3406 3419 
Q 3406 3131 3298 2873 
Q 3191 2616 2906 2266 
Q 2828 2175 2409 1742 
Q 1991 1309 1228 531 
z
" transform="scale(0.015625)"/>
       </defs>
       <use xlink:href="#DejaVuSans-32"/>
      </g>
     </g>
    </g>
    <g id="xtick_4">
     <g id="line2d_7">
      <path d="M 332.327604 408.057188 
L 332.327604 36.597187 
" clip-path="url(#p2a2f36b32d)" style="fill: none; stroke: #cccccc; stroke-linecap: round"/>
     </g>
     <g id="line2d_8">
      <g>
       <use xlink:href="#m76eb9db401" x="332.327604" y="408.057188" style="fill: #d3d3d3; stroke: #d3d3d3; stroke-width: 1.25"/>
      </g>
     </g>
     <g id="text_4">
      <!-- 3 -->
      <g style="fill: #262626" transform="translate(328.828229 425.915469) scale(0.11 -0.11)">
       <defs>
        <path id="DejaVuSans-33" d="M 2597 2516 
Q 3050 2419 3304 2112 
Q 3559 1806 3559 1356 
Q 3559 666 3084 287 
Q 2609 -91 1734 -91 
Q 1441 -91 1130 -33 
Q 819 25 488 141 
L 488 750 
Q 750 597 1062 519 
Q 1375 441 1716 441 
Q 2309 441 2620 675 
Q 2931 909 2931 1356 
Q 2931 1769 2642 2001 
Q 2353 2234 1838 2234 
L 1294 2234 
L 1294 2753 
L 1863 2753 
Q 2328 2753 2575 2939 
Q 2822 3125 2822 3475 
Q 2822 3834 2567 4026 
Q 2313 4219 1838 4219 
Q 1578 4219 1281 4162 
Q 984 4106 628 3988 
L 628 4550 
Q 988 4650 1302 4700 
Q 1616 4750 1894 4750 
Q 2613 4750 3031 4423 
Q 3450 4097 3450 3541 
Q 3450 3153 3228 2886 
Q 3006 2619 2597 2516 
z
" transform="scale(0.015625)"/>
       </defs>
       <use xlink:href="#DejaVuSans-33"/>
      </g>
     </g>
    </g>
    <g id="xtick_5">
     <g id="line2d_9">
      <path d="M 422.783316 408.057188 
L 422.783316 36.597187 
" clip-path="url(#p2a2f36b32d)" style="fill: none; stroke: #cccccc; stroke-linecap: round"/>
     </g>
     <g id="line2d_10">
      <g>
       <use xlink:href="#m76eb9db401" x="422.783316" y="408.057188" style="fill: #d3d3d3; stroke: #d3d3d3; stroke-width: 1.25"/>
      </g>
     </g>
     <g id="text_5">
      <!-- 4 -->
      <g style="fill: #262626" transform="translate(419.283941 425.915469) scale(0.11 -0.11)">
       <defs>
        <path id="DejaVuSans-34" d="M 2419 4116 
L 825 1625 
L 2419 1625 
L 2419 4116 
z
M 2253 4666 
L 3047 4666 
L 3047 1625 
L 3713 1625 
L 3713 1100 
L 3047 1100 
L 3047 0 
L 2419 0 
L 2419 1100 
L 313 1100 
L 313 1709 
L 2253 4666 
z
" transform="scale(0.015625)"/>
       </defs>
       <use xlink:href="#DejaVuSans-34"/>
      </g>
     </g>
    </g>
    <g id="xtick_6">
     <g id="line2d_11">
      <path d="M 513.239028 408.057188 
L 513.239028 36.597187 
" clip-path="url(#p2a2f36b32d)" style="fill: none; stroke: #cccccc; stroke-linecap: round"/>
     </g>
     <g id="line2d_12">
      <g>
       <use xlink:href="#m76eb9db401" x="513.239028" y="408.057188" style="fill: #d3d3d3; stroke: #d3d3d3; stroke-width: 1.25"/>
      </g>
     </g>
     <g id="text_6">
      <!-- 5 -->
      <g style="fill: #262626" transform="translate(509.739653 425.915469) scale(0.11 -0.11)">
       <defs>
        <path id="DejaVuSans-35" d="M 691 4666 
L 3169 4666 
L 3169 4134 
L 1269 4134 
L 1269 2991 
Q 1406 3038 1543 3061 
Q 1681 3084 1819 3084 
Q 2600 3084 3056 2656 
Q 3513 2228 3513 1497 
Q 3513 744 3044 326 
Q 2575 -91 1722 -91 
Q 1428 -91 1123 -41 
Q 819 9 494 109 
L 494 744 
Q 775 591 1075 516 
Q 1375 441 1709 441 
Q 2250 441 2565 725 
Q 2881 1009 2881 1497 
Q 2881 1984 2565 2268 
Q 2250 2553 1709 2553 
Q 1456 2553 1204 2497 
Q 953 2441 691 2322 
L 691 4666 
z
" transform="scale(0.015625)"/>
       </defs>
       <use xlink:href="#DejaVuSans-35"/>
      </g>
     </g>
    </g>
    <g id="xtick_7">
     <g id="line2d_13">
      <path d="M 603.69474 408.057188 
L 603.69474 36.597187 
" clip-path="url(#p2a2f36b32d)" style="fill: none; stroke: #cccccc; stroke-linecap: round"/>
     </g>
     <g id="line2d_14">
      <g>
       <use xlink:href="#m76eb9db401" x="603.69474" y="408.057188" style="fill: #d3d3d3; stroke: #d3d3d3; stroke-width: 1.25"/>
      </g>
     </g>
     <g id="text_7">
      <!-- 6 -->
      <g style="fill: #262626" transform="translate(600.195365 425.915469) scale(0.11 -0.11)">
       <defs>
        <path id="DejaVuSans-36" d="M 2113 2584 
Q 1688 2584 1439 2293 
Q 1191 2003 1191 1497 
Q 1191 994 1439 701 
Q 1688 409 2113 409 
Q 2538 409 2786 701 
Q 3034 994 3034 1497 
Q 3034 2003 2786 2293 
Q 2538 2584 2113 2584 
z
M 3366 4563 
L 3366 3988 
Q 3128 4100 2886 4159 
Q 2644 4219 2406 4219 
Q 1781 4219 1451 3797 
Q 1122 3375 1075 2522 
Q 1259 2794 1537 2939 
Q 1816 3084 2150 3084 
Q 2853 3084 3261 2657 
Q 3669 2231 3669 1497 
Q 3669 778 3244 343 
Q 2819 -91 2113 -91 
Q 1303 -91 875 529 
Q 447 1150 447 2328 
Q 447 3434 972 4092 
Q 1497 4750 2381 4750 
Q 2619 4750 2861 4703 
Q 3103 4656 3366 4563 
z
" transform="scale(0.015625)"/>
       </defs>
       <use xlink:href="#DejaVuSans-36"/>
      </g>
     </g>
    </g>
    <g id="text_8">
     <!-- Espacio de entrada $x$ -->
     <g style="fill: #262626" transform="translate(271.285469 442.843125) scale(0.14 -0.14)">
      <defs>
       <path id="DejaVuSans-45" d="M 628 4666 
L 3578 4666 
L 3578 4134 
L 1259 4134 
L 1259 2753 
L 3481 2753 
L 3481 2222 
L 1259 2222 
L 1259 531 
L 3634 531 
L 3634 0 
L 628 0 
L 628 4666 
z
" transform="scale(0.015625)"/>
       <path id="DejaVuSans-73" d="M 2834 3397 
L 2834 2853 
Q 2591 2978 2328 3040 
Q 2066 3103 1784 3103 
Q 1356 3103 1142 2972 
Q 928 2841 928 2578 
Q 928 2378 1081 2264 
Q 1234 2150 1697 2047 
L 1894 2003 
Q 2506 1872 2764 1633 
Q 3022 1394 3022 966 
Q 3022 478 2636 193 
Q 2250 -91 1575 -91 
Q 1294 -91 989 -36 
Q 684 19 347 128 
L 347 722 
Q 666 556 975 473 
Q 1284 391 1588 391 
Q 1994 391 2212 530 
Q 2431 669 2431 922 
Q 2431 1156 2273 1281 
Q 2116 1406 1581 1522 
L 1381 1569 
Q 847 1681 609 1914 
Q 372 2147 372 2553 
Q 372 3047 722 3315 
Q 1072 3584 1716 3584 
Q 2034 3584 2315 3537 
Q 2597 3491 2834 3397 
z
" transform="scale(0.015625)"/>
       <path id="DejaVuSans-70" d="M 1159 525 
L 1159 -1331 
L 581 -1331 
L 581 3500 
L 1159 3500 
L 1159 2969 
Q 1341 3281 1617 3432 
Q 1894 3584 2278 3584 
Q 2916 3584 3314 3078 
Q 3713 2572 3713 1747 
Q 3713 922 3314 415 
Q 2916 -91 2278 -91 
Q 1894 -91 1617 61 
Q 1341 213 1159 525 
z
M 3116 1747 
Q 3116 2381 2855 2742 
Q 2594 3103 2138 3103 
Q 1681 3103 1420 2742 
Q 1159 2381 1159 1747 
Q 1159 1113 1420 752 
Q 1681 391 2138 391 
Q 2594 391 2855 752 
Q 3116 1113 3116 1747 
z
" transform="scale(0.015625)"/>
       <path id="DejaVuSans-61" d="M 2194 1759 
Q 1497 1759 1228 1600 
Q 959 1441 959 1056 
Q 959 750 1161 570 
Q 1363 391 1709 391 
Q 2188 391 2477 730 
Q 2766 1069 2766 1631 
L 2766 1759 
L 2194 1759 
z
M 3341 1997 
L 3341 0 
L 2766 0 
L 2766 531 
Q 2569 213 2275 61 
Q 1981 -91 1556 -91 
Q 1019 -91 701 211 
Q 384 513 384 1019 
Q 384 1609 779 1909 
Q 1175 2209 1959 2209 
L 2766 2209 
L 2766 2266 
Q 2766 2663 2505 2880 
Q 2244 3097 1772 3097 
Q 1472 3097 1187 3025 
Q 903 2953 641 2809 
L 641 3341 
Q 956 3463 1253 3523 
Q 1550 3584 1831 3584 
Q 2591 3584 2966 3190 
Q 3341 2797 3341 1997 
z
" transform="scale(0.015625)"/>
       <path id="DejaVuSans-63" d="M 3122 3366 
L 3122 2828 
Q 2878 2963 2633 3030 
Q 2388 3097 2138 3097 
Q 1578 3097 1268 2742 
Q 959 2388 959 1747 
Q 959 1106 1268 751 
Q 1578 397 2138 397 
Q 2388 397 2633 464 
Q 2878 531 3122 666 
L 3122 134 
Q 2881 22 2623 -34 
Q 2366 -91 2075 -91 
Q 1284 -91 818 406 
Q 353 903 353 1747 
Q 353 2603 823 3093 
Q 1294 3584 2113 3584 
Q 2378 3584 2631 3529 
Q 2884 3475 3122 3366 
z
" transform="scale(0.015625)"/>
       <path id="DejaVuSans-69" d="M 603 3500 
L 1178 3500 
L 1178 0 
L 603 0 
L 603 3500 
z
M 603 4863 
L 1178 4863 
L 1178 4134 
L 603 4134 
L 603 4863 
z
" transform="scale(0.015625)"/>
       <path id="DejaVuSans-6f" d="M 1959 3097 
Q 1497 3097 1228 2736 
Q 959 2375 959 1747 
Q 959 1119 1226 758 
Q 1494 397 1959 397 
Q 2419 397 2687 759 
Q 2956 1122 2956 1747 
Q 2956 2369 2687 2733 
Q 2419 3097 1959 3097 
z
M 1959 3584 
Q 2709 3584 3137 3096 
Q 3566 2609 3566 1747 
Q 3566 888 3137 398 
Q 2709 -91 1959 -91 
Q 1206 -91 779 398 
Q 353 888 353 1747 
Q 353 2609 779 3096 
Q 1206 3584 1959 3584 
z
" transform="scale(0.015625)"/>
       <path id="DejaVuSans-20" transform="scale(0.015625)"/>
       <path id="DejaVuSans-64" d="M 2906 2969 
L 2906 4863 
L 3481 4863 
L 3481 0 
L 2906 0 
L 2906 525 
Q 2725 213 2448 61 
Q 2172 -91 1784 -91 
Q 1150 -91 751 415 
Q 353 922 353 1747 
Q 353 2572 751 3078 
Q 1150 3584 1784 3584 
Q 2172 3584 2448 3432 
Q 2725 3281 2906 2969 
z
M 947 1747 
Q 947 1113 1208 752 
Q 1469 391 1925 391 
Q 2381 391 2643 752 
Q 2906 1113 2906 1747 
Q 2906 2381 2643 2742 
Q 2381 3103 1925 3103 
Q 1469 3103 1208 2742 
Q 947 2381 947 1747 
z
" transform="scale(0.015625)"/>
       <path id="DejaVuSans-65" d="M 3597 1894 
L 3597 1613 
L 953 1613 
Q 991 1019 1311 708 
Q 1631 397 2203 397 
Q 2534 397 2845 478 
Q 3156 559 3463 722 
L 3463 178 
Q 3153 47 2828 -22 
Q 2503 -91 2169 -91 
Q 1331 -91 842 396 
Q 353 884 353 1716 
Q 353 2575 817 3079 
Q 1281 3584 2069 3584 
Q 2775 3584 3186 3129 
Q 3597 2675 3597 1894 
z
M 3022 2063 
Q 3016 2534 2758 2815 
Q 2500 3097 2075 3097 
Q 1594 3097 1305 2825 
Q 1016 2553 972 2059 
L 3022 2063 
z
" transform="scale(0.015625)"/>
       <path id="DejaVuSans-6e" d="M 3513 2113 
L 3513 0 
L 2938 0 
L 2938 2094 
Q 2938 2591 2744 2837 
Q 2550 3084 2163 3084 
Q 1697 3084 1428 2787 
Q 1159 2491 1159 1978 
L 1159 0 
L 581 0 
L 581 3500 
L 1159 3500 
L 1159 2956 
Q 1366 3272 1645 3428 
Q 1925 3584 2291 3584 
Q 2894 3584 3203 3211 
Q 3513 2838 3513 2113 
z
" transform="scale(0.015625)"/>
       <path id="DejaVuSans-74" d="M 1172 4494 
L 1172 3500 
L 2356 3500 
L 2356 3053 
L 1172 3053 
L 1172 1153 
Q 1172 725 1289 603 
Q 1406 481 1766 481 
L 2356 481 
L 2356 0 
L 1766 0 
Q 1100 0 847 248 
Q 594 497 594 1153 
L 594 3053 
L 172 3053 
L 172 3500 
L 594 3500 
L 594 4494 
L 1172 4494 
z
" transform="scale(0.015625)"/>
       <path id="DejaVuSans-72" d="M 2631 2963 
Q 2534 3019 2420 3045 
Q 2306 3072 2169 3072 
Q 1681 3072 1420 2755 
Q 1159 2438 1159 1844 
L 1159 0 
L 581 0 
L 581 3500 
L 1159 3500 
L 1159 2956 
Q 1341 3275 1631 3429 
Q 1922 3584 2338 3584 
Q 2397 3584 2469 3576 
Q 2541 3569 2628 3553 
L 2631 2963 
z
" transform="scale(0.015625)"/>
       <path id="DejaVuSans-Oblique-78" d="M 3841 3500 
L 2234 1784 
L 3219 0 
L 2559 0 
L 1819 1388 
L 531 0 
L -166 0 
L 1556 1844 
L 641 3500 
L 1300 3500 
L 1972 2234 
L 3144 3500 
L 3841 3500 
z
" transform="scale(0.015625)"/>
      </defs>
      <use xlink:href="#DejaVuSans-45" transform="translate(0 0.015625)"/>
      <use xlink:href="#DejaVuSans-73" transform="translate(63.183594 0.015625)"/>
      <use xlink:href="#DejaVuSans-70" transform="translate(115.283203 0.015625)"/>
      <use xlink:href="#DejaVuSans-61" transform="translate(178.759766 0.015625)"/>
      <use xlink:href="#DejaVuSans-63" transform="translate(240.039062 0.015625)"/>
      <use xlink:href="#DejaVuSans-69" transform="translate(295.019531 0.015625)"/>
      <use xlink:href="#DejaVuSans-6f" transform="translate(322.802734 0.015625)"/>
      <use xlink:href="#DejaVuSans-20" transform="translate(383.984375 0.015625)"/>
      <use xlink:href="#DejaVuSans-64" transform="translate(415.771484 0.015625)"/>
      <use xlink:href="#DejaVuSans-65" transform="translate(479.248047 0.015625)"/>
      <use xlink:href="#DejaVuSans-20" transform="translate(540.771484 0.015625)"/>
      <use xlink:href="#DejaVuSans-65" transform="translate(572.558594 0.015625)"/>
      <use xlink:href="#DejaVuSans-6e" transform="translate(634.082031 0.015625)"/>
      <use xlink:href="#DejaVuSans-74" transform="translate(697.460938 0.015625)"/>
      <use xlink:href="#DejaVuSans-72" transform="translate(736.669922 0.015625)"/>
      <use xlink:href="#DejaVuSans-61" transform="translate(777.783203 0.015625)"/>
      <use xlink:href="#DejaVuSans-64" transform="translate(839.0625 0.015625)"/>
      <use xlink:href="#DejaVuSans-61" transform="translate(902.539062 0.015625)"/>
      <use xlink:href="#DejaVuSans-20" transform="translate(963.818359 0.015625)"/>
      <use xlink:href="#DejaVuSans-Oblique-78" transform="translate(995.605469 0.015625)"/>
     </g>
    </g>
   </g>
   <g id="matplotlib.axis_2">
    <g id="ytick_1">
     <g id="line2d_15">
      <path d="M 60.960469 377.102188 
L 629.310469 377.102188 
" clip-path="url(#p2a2f36b32d)" style="fill: none; stroke: #cccccc; stroke-linecap: round"/>
     </g>
     <g id="line2d_16">
      <defs>
       <path id="me2f255f743" d="M 0 0 
L -6 0 
" style="stroke: #d3d3d3; stroke-width: 1.25"/>
      </defs>
      <g>
       <use xlink:href="#me2f255f743" x="60.960469" y="377.102188" style="fill: #d3d3d3; stroke: #d3d3d3; stroke-width: 1.25"/>
      </g>
     </g>
     <g id="text_9">
      <!-- −1.5 -->
      <g style="fill: #262626" transform="translate(24.749375 381.281328) scale(0.11 -0.11)">
       <defs>
        <path id="DejaVuSans-2212" d="M 678 2272 
L 4684 2272 
L 4684 1741 
L 678 1741 
L 678 2272 
z
" transform="scale(0.015625)"/>
        <path id="DejaVuSans-2e" d="M 684 794 
L 1344 794 
L 1344 0 
L 684 0 
L 684 794 
z
" transform="scale(0.015625)"/>
       </defs>
       <use xlink:href="#DejaVuSans-2212"/>
       <use xlink:href="#DejaVuSans-31" transform="translate(83.789062 0)"/>
       <use xlink:href="#DejaVuSans-2e" transform="translate(147.412109 0)"/>
       <use xlink:href="#DejaVuSans-35" transform="translate(179.199219 0)"/>
      </g>
     </g>
    </g>
    <g id="ytick_2">
     <g id="line2d_17">
      <path d="M 60.960469 325.510521 
L 629.310469 325.510521 
" clip-path="url(#p2a2f36b32d)" style="fill: none; stroke: #cccccc; stroke-linecap: round"/>
     </g>
     <g id="line2d_18">
      <g>
       <use xlink:href="#me2f255f743" x="60.960469" y="325.510521" style="fill: #d3d3d3; stroke: #d3d3d3; stroke-width: 1.25"/>
      </g>
     </g>
     <g id="text_10">
      <!-- −1.0 -->
      <g style="fill: #262626" transform="translate(24.749375 329.689661) scale(0.11 -0.11)">
       <use xlink:href="#DejaVuSans-2212"/>
       <use xlink:href="#DejaVuSans-31" transform="translate(83.789062 0)"/>
       <use xlink:href="#DejaVuSans-2e" transform="translate(147.412109 0)"/>
       <use xlink:href="#DejaVuSans-30" transform="translate(179.199219 0)"/>
      </g>
     </g>
    </g>
    <g id="ytick_3">
     <g id="line2d_19">
      <path d="M 60.960469 273.918854 
L 629.310469 273.918854 
" clip-path="url(#p2a2f36b32d)" style="fill: none; stroke: #cccccc; stroke-linecap: round"/>
     </g>
     <g id="line2d_20">
      <g>
       <use xlink:href="#me2f255f743" x="60.960469" y="273.918854" style="fill: #d3d3d3; stroke: #d3d3d3; stroke-width: 1.25"/>
      </g>
     </g>
     <g id="text_11">
      <!-- −0.5 -->
      <g style="fill: #262626" transform="translate(24.749375 278.097995) scale(0.11 -0.11)">
       <use xlink:href="#DejaVuSans-2212"/>
       <use xlink:href="#DejaVuSans-30" transform="translate(83.789062 0)"/>
       <use xlink:href="#DejaVuSans-2e" transform="translate(147.412109 0)"/>
       <use xlink:href="#DejaVuSans-35" transform="translate(179.199219 0)"/>
      </g>
     </g>
    </g>
    <g id="ytick_4">
     <g id="line2d_21">
      <path d="M 60.960469 222.327187 
L 629.310469 222.327187 
" clip-path="url(#p2a2f36b32d)" style="fill: none; stroke: #cccccc; stroke-linecap: round"/>
     </g>
     <g id="line2d_22">
      <g>
       <use xlink:href="#me2f255f743" x="60.960469" y="222.327187" style="fill: #d3d3d3; stroke: #d3d3d3; stroke-width: 1.25"/>
      </g>
     </g>
     <g id="text_12">
      <!-- 0.0 -->
      <g style="fill: #262626" transform="translate(33.967031 226.506328) scale(0.11 -0.11)">
       <use xlink:href="#DejaVuSans-30"/>
       <use xlink:href="#DejaVuSans-2e" transform="translate(63.623047 0)"/>
       <use xlink:href="#DejaVuSans-30" transform="translate(95.410156 0)"/>
      </g>
     </g>
    </g>
    <g id="ytick_5">
     <g id="line2d_23">
      <path d="M 60.960469 170.735521 
L 629.310469 170.735521 
" clip-path="url(#p2a2f36b32d)" style="fill: none; stroke: #cccccc; stroke-linecap: round"/>
     </g>
     <g id="line2d_24">
      <g>
       <use xlink:href="#me2f255f743" x="60.960469" y="170.735521" style="fill: #d3d3d3; stroke: #d3d3d3; stroke-width: 1.25"/>
      </g>
     </g>
     <g id="text_13">
      <!-- 0.5 -->
      <g style="fill: #262626" transform="translate(33.967031 174.914661) scale(0.11 -0.11)">
       <use xlink:href="#DejaVuSans-30"/>
       <use xlink:href="#DejaVuSans-2e" transform="translate(63.623047 0)"/>
       <use xlink:href="#DejaVuSans-35" transform="translate(95.410156 0)"/>
      </g>
     </g>
    </g>
    <g id="ytick_6">
     <g id="line2d_25">
      <path d="M 60.960469 119.143854 
L 629.310469 119.143854 
" clip-path="url(#p2a2f36b32d)" style="fill: none; stroke: #cccccc; stroke-linecap: round"/>
     </g>
     <g id="line2d_26">
      <g>
       <use xlink:href="#me2f255f743" x="60.960469" y="119.143854" style="fill: #d3d3d3; stroke: #d3d3d3; stroke-width: 1.25"/>
      </g>
     </g>
     <g id="text_14">
      <!-- 1.0 -->
      <g style="fill: #262626" transform="translate(33.967031 123.322995) scale(0.11 -0.11)">
       <use xlink:href="#DejaVuSans-31"/>
       <use xlink:href="#DejaVuSans-2e" transform="translate(63.623047 0)"/>
       <use xlink:href="#DejaVuSans-30" transform="translate(95.410156 0)"/>
      </g>
     </g>
    </g>
    <g id="ytick_7">
     <g id="line2d_27">
      <path d="M 60.960469 67.552187 
L 629.310469 67.552187 
" clip-path="url(#p2a2f36b32d)" style="fill: none; stroke: #cccccc; stroke-linecap: round"/>
     </g>
     <g id="line2d_28">
      <g>
       <use xlink:href="#me2f255f743" x="60.960469" y="67.552187" style="fill: #d3d3d3; stroke: #d3d3d3; stroke-width: 1.25"/>
      </g>
     </g>
     <g id="text_15">
      <!-- 1.5 -->
      <g style="fill: #262626" transform="translate(33.967031 71.731328) scale(0.11 -0.11)">
       <use xlink:href="#DejaVuSans-31"/>
       <use xlink:href="#DejaVuSans-2e" transform="translate(63.623047 0)"/>
       <use xlink:href="#DejaVuSans-35" transform="translate(95.410156 0)"/>
      </g>
     </g>
    </g>
    <g id="text_16">
     <!-- Amplitud -->
     <g style="fill: #262626" transform="translate(17.837813 253.891719) rotate(-90) scale(0.14 -0.14)">
      <defs>
       <path id="DejaVuSans-41" d="M 2188 4044 
L 1331 1722 
L 3047 1722 
L 2188 4044 
z
M 1831 4666 
L 2547 4666 
L 4325 0 
L 3669 0 
L 3244 1197 
L 1141 1197 
L 716 0 
L 50 0 
L 1831 4666 
z
" transform="scale(0.015625)"/>
       <path id="DejaVuSans-6d" d="M 3328 2828 
Q 3544 3216 3844 3400 
Q 4144 3584 4550 3584 
Q 5097 3584 5394 3201 
Q 5691 2819 5691 2113 
L 5691 0 
L 5113 0 
L 5113 2094 
Q 5113 2597 4934 2840 
Q 4756 3084 4391 3084 
Q 3944 3084 3684 2787 
Q 3425 2491 3425 1978 
L 3425 0 
L 2847 0 
L 2847 2094 
Q 2847 2600 2669 2842 
Q 2491 3084 2119 3084 
Q 1678 3084 1418 2786 
Q 1159 2488 1159 1978 
L 1159 0 
L 581 0 
L 581 3500 
L 1159 3500 
L 1159 2956 
Q 1356 3278 1631 3431 
Q 1906 3584 2284 3584 
Q 2666 3584 2933 3390 
Q 3200 3197 3328 2828 
z
" transform="scale(0.015625)"/>
       <path id="DejaVuSans-6c" d="M 603 4863 
L 1178 4863 
L 1178 0 
L 603 0 
L 603 4863 
z
" transform="scale(0.015625)"/>
       <path id="DejaVuSans-75" d="M 544 1381 
L 544 3500 
L 1119 3500 
L 1119 1403 
Q 1119 906 1312 657 
Q 1506 409 1894 409 
Q 2359 409 2629 706 
Q 2900 1003 2900 1516 
L 2900 3500 
L 3475 3500 
L 3475 0 
L 2900 0 
L 2900 538 
Q 2691 219 2414 64 
Q 2138 -91 1772 -91 
Q 1169 -91 856 284 
Q 544 659 544 1381 
z
M 1991 3584 
L 1991 3584 
z
" transform="scale(0.015625)"/>
      </defs>
      <use xlink:href="#DejaVuSans-41"/>
      <use xlink:href="#DejaVuSans-6d" transform="translate(68.408203 0)"/>
      <use xlink:href="#DejaVuSans-70" transform="translate(165.820312 0)"/>
      <use xlink:href="#DejaVuSans-6c" transform="translate(229.296875 0)"/>
      <use xlink:href="#DejaVuSans-69" transform="translate(257.080078 0)"/>
      <use xlink:href="#DejaVuSans-74" transform="translate(284.863281 0)"/>
      <use xlink:href="#DejaVuSans-75" transform="translate(324.072266 0)"/>
      <use xlink:href="#DejaVuSans-64" transform="translate(387.451172 0)"/>
     </g>
    </g>
   </g>
   <g id="line2d_29">
    <path d="M 60.960469 222.327187 
L 63.809341 203.09667 
L 66.658213 185.441526 
L 68.082649 177.658712 
L 69.507085 170.782465 
L 70.931521 164.943289 
L 72.355957 160.246088 
L 73.780394 156.767571 
L 75.20483 154.554371 
L 76.629266 153.621894 
L 78.053702 153.953952 
L 79.478138 155.503172 
L 80.902574 158.192179 
L 82.32701 161.915518 
L 83.751446 166.542276 
L 85.175882 171.919329 
L 88.024754 184.224027 
L 92.298063 203.658075 
L 93.722499 209.604484 
L 95.146935 214.970064 
L 96.571371 219.584923 
L 97.995807 223.297977 
L 99.420243 225.980702 
L 100.844679 227.530317 
L 102.269115 227.872344 
L 103.693551 226.962453 
L 105.117988 224.787575 
L 106.542424 221.366225 
L 107.96686 216.748064 
L 109.391296 211.012668 
L 110.815732 204.267575 
L 112.240168 196.645627 
L 115.08904 179.408857 
L 122.211221 133.479433 
L 123.635657 125.374804 
L 125.060093 118.054734 
L 126.484529 111.669945 
L 127.908965 106.34842 
L 129.333401 102.192246 
L 130.757837 99.275094 
L 132.182273 97.640403 
L 133.606709 97.300314 
L 135.031145 98.235373 
L 136.455582 100.395023 
L 137.880018 103.698859 
L 139.304454 108.038627 
L 140.72889 113.280907 
L 142.153326 119.270424 
L 145.002198 132.784319 
L 149.275506 153.980418 
L 150.699942 160.500479 
L 152.124379 166.434309 
L 153.548815 171.613556 
L 154.973251 175.889072 
L 156.397687 179.134608 
L 157.822123 181.249947 
L 159.246559 182.163381 
L 160.670995 181.833499 
L 162.095431 180.250211 
L 163.519867 177.435004 
L 164.944303 173.440415 
L 166.368739 168.348735 
L 167.793176 162.269976 
L 169.217612 155.339152 
L 172.066484 139.565823 
L 179.188664 97.801092 
L 180.6131 90.612979 
L 182.037536 84.233848 
L 183.461973 78.812093 
L 184.886409 74.473027 
L 186.310845 71.315781 
L 187.735281 69.410855 
L 189.159717 68.798374 
L 190.584153 69.487099 
L 192.008589 71.454207 
L 193.433025 74.645862 
L 194.857461 78.978547 
L 196.281897 84.341131 
L 197.706333 90.59762 
L 199.13077 97.590526 
L 201.979642 113.071973 
L 206.25295 137.108239 
L 207.677386 144.545314 
L 209.101822 151.382686 
L 210.526258 157.4535 
L 211.950694 162.6105 
L 213.37513 166.729667 
L 214.799566 169.713287 
L 216.224003 171.492374 
L 217.648439 172.028367 
L 219.072875 171.31409 
L 220.497311 169.373927 
L 221.921747 166.263212 
L 223.346183 162.066865 
L 224.770619 156.897283 
L 226.195055 150.891558 
L 229.043927 137.022635 
L 234.741672 107.132917 
L 236.166108 100.36296 
L 237.590544 94.250895 
L 239.01498 88.962521 
L 240.439416 84.643829 
L 241.863852 81.417397 
L 243.288288 79.379344 
L 244.712724 78.596953 
L 246.13716 79.106996 
L 247.561597 80.914826 
L 248.986033 83.994236 
L 250.410469 88.288106 
L 251.834905 93.709806 
L 253.259341 100.145343 
L 254.683777 107.45617 
L 257.532649 124.047819 
L 264.65483 168.135776 
L 266.079266 175.838211 
L 267.503702 182.752513 
L 268.928138 188.733362 
L 270.352574 193.659014 
L 271.77701 197.434304 
L 273.201446 199.992997 
L 274.625882 201.299417 
L 276.050318 201.349327 
L 277.474754 200.170025 
L 278.899191 197.819661 
L 280.323627 194.385791 
L 281.748063 189.983203 
L 283.172499 184.75107 
L 284.596935 178.849497 
L 287.445807 165.758877 
L 291.719115 145.83753 
L 293.143551 139.910048 
L 294.567988 134.647851 
L 295.992424 130.21474 
L 297.41686 126.75433 
L 298.841296 124.386492 
L 300.265732 123.204374 
L 301.690168 123.272086 
L 303.114604 124.623111 
L 304.53904 127.259461 
L 305.963476 131.151624 
L 307.387912 136.23928 
L 308.812348 142.43279 
L 310.236785 149.615401 
L 311.661221 157.646129 
L 314.510093 175.588234 
L 320.207837 213.665073 
L 323.056709 230.657254 
L 324.481145 238.00959 
L 325.905582 244.401642 
L 327.330018 249.71407 
L 328.754454 253.854384 
L 330.17889 256.759224 
L 331.603326 258.395916 
L 333.027762 258.76327 
L 334.452198 257.891604 
L 335.876634 255.84198 
L 337.30107 252.704683 
L 338.725506 248.59698 
L 340.149942 243.660207 
L 341.574379 238.05626 
L 344.423251 225.572724 
L 348.696559 206.598115 
L 350.120995 200.994168 
L 351.545431 196.057395 
L 352.969867 191.949692 
L 354.394303 188.812395 
L 355.818739 186.762771 
L 357.243176 185.891105 
L 358.667612 186.258459 
L 360.092048 187.895151 
L 361.516484 190.799991 
L 362.94092 194.940305 
L 364.365356 200.252733 
L 365.789792 206.644785 
L 367.214228 213.997121 
L 368.638664 222.166499 
L 371.487536 240.285585 
L 377.185281 278.291136 
L 380.034153 295.038974 
L 381.458589 302.221585 
L 382.883025 308.415095 
L 384.307461 313.502751 
L 385.731897 317.394914 
L 387.156333 320.031264 
L 388.58077 321.382289 
L 390.005206 321.450001 
L 391.429642 320.267883 
L 392.854078 317.900045 
L 394.278514 314.439635 
L 395.70295 310.006524 
L 397.127386 304.744327 
L 398.551822 298.816845 
L 401.400694 285.697389 
L 405.674003 265.804878 
L 407.098439 259.903305 
L 408.522875 254.671172 
L 409.947311 250.268584 
L 411.371747 246.834714 
L 412.796183 244.48435 
L 414.220619 243.305048 
L 415.645055 243.354958 
L 417.069491 244.661378 
L 418.493927 247.220071 
L 419.918363 250.995361 
L 421.3428 255.921013 
L 422.767236 261.901862 
L 424.191672 268.816164 
L 425.616108 276.518599 
L 428.46498 293.610755 
L 434.162724 329.171761 
L 435.58716 337.198205 
L 437.011597 344.509032 
L 438.436033 350.944569 
L 439.860469 356.366269 
L 441.284905 360.660139 
L 442.709341 363.739549 
L 444.133777 365.547379 
L 445.558213 366.057422 
L 446.982649 365.275031 
L 448.407085 363.236978 
L 449.831521 360.010546 
L 451.255957 355.691854 
L 452.680394 350.40348 
L 454.10483 344.291415 
L 456.953702 330.275098 
L 462.651446 300.44629 
L 464.075882 293.762817 
L 465.500318 287.757092 
L 466.924754 282.58751 
L 468.349191 278.391163 
L 469.773627 275.280448 
L 471.198063 273.340285 
L 472.622499 272.626008 
L 474.046935 273.162001 
L 475.471371 274.941088 
L 476.895807 277.924708 
L 478.320243 282.043875 
L 479.744679 287.200875 
L 481.169115 293.271689 
L 482.593551 300.109061 
L 485.442424 315.400597 
L 489.715732 339.509614 
L 492.564604 354.056755 
L 493.98904 360.313244 
L 495.413476 365.675828 
L 496.837912 370.008513 
L 498.262348 373.200168 
L 499.686785 375.167276 
L 501.111221 375.856001 
L 502.535657 375.24352 
L 503.960093 373.338594 
L 505.384529 370.181348 
L 506.808965 365.842282 
L 508.233401 360.420527 
L 509.657837 354.041396 
L 511.082273 346.853283 
L 513.931145 330.736599 
L 519.62889 296.941431 
L 521.053326 289.315223 
L 522.477762 282.384399 
L 523.902198 276.30564 
L 525.326634 271.21396 
L 526.75107 267.219371 
L 528.175506 264.404164 
L 529.599942 262.820876 
L 531.024379 262.490994 
L 532.448815 263.404428 
L 533.873251 265.519767 
L 535.297687 268.765303 
L 536.722123 273.040819 
L 538.146559 278.220066 
L 539.570995 284.153896 
L 542.419867 297.596867 
L 546.693176 318.820482 
L 548.117612 325.383951 
L 549.542048 331.373468 
L 550.966484 336.615748 
L 552.39092 340.955516 
L 553.815356 344.259352 
L 555.239792 346.419002 
L 556.664228 347.354061 
L 558.088664 347.013972 
L 559.5131 345.379281 
L 560.937536 342.462129 
L 562.361973 338.305955 
L 563.786409 332.98443 
L 565.210845 326.599641 
L 566.635281 319.279571 
L 569.484153 302.455489 
L 578.03077 248.008748 
L 579.455206 240.3868 
L 580.879642 233.641707 
L 582.304078 227.906311 
L 583.728514 223.28815 
L 585.15295 219.8668 
L 586.577386 217.691922 
L 588.001822 216.782031 
L 589.426258 217.124058 
L 590.850694 218.673673 
L 592.27513 221.356398 
L 593.699566 225.069452 
L 595.124003 229.684311 
L 596.548439 235.049891 
L 599.397311 247.339052 
L 603.670619 266.779232 
L 605.095055 272.735046 
L 606.519491 278.112099 
L 607.943927 282.738857 
L 609.368363 286.462196 
L 610.7928 289.151203 
L 612.217236 290.700423 
L 613.641672 291.032481 
L 615.066108 290.100004 
L 616.490544 287.886804 
L 617.91498 284.408287 
L 619.339416 279.711086 
L 620.763852 273.87191 
L 622.188288 266.995663 
L 623.612724 259.212849 
L 626.461597 241.557705 
L 629.310469 222.327188 
L 629.310469 222.327188 
" clip-path="url(#p2a2f36b32d)" style="fill: none; stroke: #000000; stroke-opacity: 0.6; stroke-width: 1.5; stroke-linecap: round"/>
   </g>
   <g id="line2d_30">
    <path d="M 60.960469 195.19531 
L 69.507085 195.19531 
L 70.931521 159.870452 
L 73.780394 159.870452 
L 75.20483 155.412366 
L 78.053702 155.412366 
L 79.478138 158.027244 
L 82.32701 158.027244 
L 83.751446 172.099654 
L 86.600318 172.099654 
L 88.024754 190.80055 
L 90.873627 190.80055 
L 92.298063 209.121452 
L 95.146935 209.121452 
L 96.571371 224.020739 
L 99.420243 224.020739 
L 100.844679 225.866365 
L 103.693551 225.866365 
L 105.117988 221.394702 
L 107.96686 221.394702 
L 109.391296 203.822605 
L 112.240168 203.822605 
L 113.664604 179.283369 
L 116.513476 179.283369 
L 117.937912 151.576043 
L 120.786785 151.576043 
L 122.211221 125.570236 
L 125.060093 125.570236 
L 126.484529 106.06861 
L 129.333401 106.06861 
L 130.757837 99.609436 
L 133.606709 99.609436 
L 135.031145 100.849084 
L 137.880018 100.849084 
L 139.304454 113.44951 
L 142.153326 113.44951 
L 143.577762 132.832142 
L 146.426634 132.832142 
L 147.85107 153.796045 
L 150.699942 153.796045 
L 152.124379 171.391153 
L 154.973251 171.391153 
L 156.397687 179.963929 
L 163.519867 179.856189 
L 164.944303 167.918639 
L 167.793176 167.918639 
L 169.217612 147.46008 
L 172.066484 147.46008 
L 173.49092 122.55543 
L 176.339792 122.55543 
L 177.764228 98.136201 
L 180.6131 98.136201 
L 182.037536 78.864059 
L 184.886409 78.864059 
L 186.310845 71.261066 
L 189.159717 71.261066 
L 190.584153 71.861681 
L 193.433025 71.861681 
L 194.857461 84.530409 
L 197.706333 84.530409 
L 199.13077 105.575042 
L 201.979642 105.575042 
L 203.404078 129.119336 
L 206.25295 129.119336 
L 207.677386 151.089674 
L 210.526258 151.089674 
L 211.950694 166.821104 
L 214.799566 166.821104 
L 216.224003 169.406871 
L 219.072875 169.406871 
L 220.497311 166.717528 
L 223.346183 166.717528 
L 224.770619 150.544178 
L 227.619491 150.544178 
L 229.043927 129.649395 
L 231.8928 129.649395 
L 233.317236 107.454048 
L 236.166108 107.454048 
L 237.590544 89.465046 
L 240.439416 89.465046 
L 241.863852 81.118762 
L 244.712724 81.118762 
L 246.13716 81.326802 
L 248.986033 81.326802 
L 250.410469 94.040689 
L 253.259341 94.040689 
L 254.683777 115.533133 
L 257.532649 115.533133 
L 258.957085 142.091778 
L 261.805957 142.091778 
L 263.230394 167.969089 
L 266.079266 167.969089 
L 267.503702 188.223486 
L 270.352574 188.223486 
L 271.77701 198.977634 
L 278.899191 198.977634 
L 280.323627 189.594089 
L 283.172499 189.594089 
L 284.596935 172.834914 
L 287.445807 172.834914 
L 288.870243 151.64809 
L 291.719115 151.64809 
L 293.143551 134.98187 
L 295.992424 134.98187 
L 297.41686 125.551417 
L 304.53904 125.551417 
L 305.963476 136.462179 
L 308.812348 136.462179 
L 310.236785 157.866862 
L 313.085657 157.866862 
L 314.510093 185.122043 
L 317.358965 185.122043 
L 318.783401 213.077657 
L 321.632273 213.077657 
L 323.056709 237.949777 
L 325.905582 237.949777 
L 327.330018 254.151633 
L 330.17889 254.151633 
L 331.603326 256.578209 
L 334.452198 256.578209 
L 335.876634 253.172539 
L 338.725506 253.172539 
L 340.149942 237.903059 
L 342.998815 237.903059 
L 344.423251 219.115314 
L 347.272123 219.115314 
L 348.696559 201.228048 
L 351.545431 201.228048 
L 352.969867 188.823321 
L 355.818739 188.823321 
L 357.243176 187.94735 
L 360.092048 187.94735 
L 361.516484 194.888397 
L 364.365356 194.888397 
L 365.789792 214.35997 
L 368.638664 214.35997 
L 370.0631 240.427253 
L 372.911973 240.427253 
L 374.336409 269.110635 
L 377.185281 269.110635 
L 378.609717 294.903086 
L 381.458589 294.903086 
L 382.883025 313.250061 
L 385.731897 313.250061 
L 387.156333 318.946002 
L 390.005206 318.946002 
L 391.429642 318.496145 
L 394.278514 318.496145 
L 395.70295 304.348189 
L 398.551822 304.348189 
L 399.976258 286.242632 
L 402.82513 286.242632 
L 404.249566 265.690512 
L 407.098439 265.690512 
L 408.522875 250.103908 
L 411.371747 250.103908 
L 412.796183 245.547082 
L 415.645055 245.547082 
L 417.069491 247.183536 
L 419.918363 247.183536 
L 421.3428 262.534444 
L 424.191672 262.534444 
L 425.616108 284.974301 
L 428.46498 284.974301 
L 429.889416 311.673886 
L 432.738288 311.673886 
L 434.162724 336.983149 
L 437.011597 336.983149 
L 438.436033 355.927408 
L 441.284905 355.927408 
L 442.709341 363.553543 
L 445.558213 363.553543 
L 446.982649 362.897876 
L 449.831521 362.897876 
L 451.255957 350.399419 
L 454.10483 350.399419 
L 455.529266 330.098543 
L 458.378138 330.098543 
L 459.802574 307.053274 
L 462.651446 307.053274 
L 464.075882 287.975488 
L 466.924754 287.975488 
L 468.349191 275.68189 
L 471.198063 275.68189 
L 472.622499 274.923568 
L 475.471371 274.923568 
L 476.895807 282.465034 
L 479.744679 282.465034 
L 481.169115 300.113918 
L 484.017988 300.113918 
L 485.442424 323.415905 
L 488.291296 323.415905 
L 489.715732 346.850835 
L 492.564604 346.850835 
L 493.98904 365.465798 
L 496.837912 365.465798 
L 498.262348 373.304216 
L 501.111221 373.304216 
L 502.535657 372.962517 
L 505.384529 372.962517 
L 506.808965 359.979745 
L 509.657837 359.979745 
L 511.082273 339.707109 
L 513.931145 339.707109 
L 515.355582 312.86157 
L 518.204454 312.86157 
L 519.62889 289.495792 
L 522.477762 289.495792 
L 523.902198 271.551351 
L 526.75107 271.551351 
L 528.175506 264.577262 
L 531.024379 264.577262 
L 532.448815 265.69489 
L 535.297687 265.69489 
L 536.722123 278.576089 
L 539.570995 278.576089 
L 540.995431 297.728216 
L 543.844303 297.728216 
L 545.268739 318.655573 
L 548.117612 318.655573 
L 549.542048 336.47123 
L 552.39092 336.47123 
L 553.815356 344.793241 
L 560.937536 344.793241 
L 562.361973 332.650467 
L 565.210845 332.650467 
L 566.635281 310.856575 
L 569.484153 310.856575 
L 570.908589 283.884031 
L 573.757461 283.884031 
L 575.181897 256.792847 
L 578.03077 256.792847 
L 579.455206 233.926943 
L 582.304078 233.926943 
L 583.728514 219.935919 
L 586.577386 219.935919 
L 588.001822 219.127462 
L 590.850694 219.127462 
L 592.27513 225.259217 
L 595.124003 225.259217 
L 596.548439 240.87835 
L 599.397311 240.87835 
L 600.821747 260.522927 
L 603.670619 260.522927 
L 605.095055 277.67959 
L 607.943927 277.67959 
L 609.368363 288.724117 
L 616.490544 288.710401 
L 617.91498 279.288656 
L 620.763852 279.288656 
L 622.188288 245.681793 
L 629.310469 245.681793 
L 629.310469 245.681793 
" clip-path="url(#p2a2f36b32d)" style="fill: none; stroke: #e65100; stroke-opacity: 0.85; stroke-width: 2.5; stroke-linecap: round"/>
   </g>
   <g id="patch_3">
    <path d="M 60.960469 408.057188 
L 60.960469 36.597187 
" style="fill: none; stroke: #cccccc; stroke-width: 1.25; stroke-linejoin: miter; stroke-linecap: square"/>
   </g>
   <g id="patch_4">
    <path d="M 629.310469 408.057188 
L 629.310469 36.597187 
" style="fill: none; stroke: #cccccc; stroke-width: 1.25; stroke-linejoin: miter; stroke-linecap: square"/>
   </g>
   <g id="patch_5">
    <path d="M 60.960469 408.057188 
L 629.310469 408.057188 
" style="fill: none; stroke: #cccccc; stroke-width: 1.25; stroke-linejoin: miter; stroke-linecap: square"/>
   </g>
   <g id="patch_6">
    <path d="M 60.960469 36.597187 
L 629.310469 36.597187 
" style="fill: none; stroke: #cccccc; stroke-width: 1.25; stroke-linejoin: miter; stroke-linecap: square"/>
   </g>
   <g id="text_17">
    <!-- Predicción con LightGBM -->
    <g style="fill: #262626" transform="translate(233.754844 21.597187) scale(0.18 -0.18)">
     <defs>
      <path id="DejaVuSans-50" d="M 1259 4147 
L 1259 2394 
L 2053 2394 
Q 2494 2394 2734 2622 
Q 2975 2850 2975 3272 
Q 2975 3691 2734 3919 
Q 2494 4147 2053 4147 
L 1259 4147 
z
M 628 4666 
L 2053 4666 
Q 2838 4666 3239 4311 
Q 3641 3956 3641 3272 
Q 3641 2581 3239 2228 
Q 2838 1875 2053 1875 
L 1259 1875 
L 1259 0 
L 628 0 
L 628 4666 
z
" transform="scale(0.015625)"/>
      <path id="DejaVuSans-f3" d="M 1959 3097 
Q 1497 3097 1228 2736 
Q 959 2375 959 1747 
Q 959 1119 1226 758 
Q 1494 397 1959 397 
Q 2419 397 2687 759 
Q 2956 1122 2956 1747 
Q 2956 2369 2687 2733 
Q 2419 3097 1959 3097 
z
M 1959 3584 
Q 2709 3584 3137 3096 
Q 3566 2609 3566 1747 
Q 3566 888 3137 398 
Q 2709 -91 1959 -91 
Q 1206 -91 779 398 
Q 353 888 353 1747 
Q 353 2609 779 3096 
Q 1206 3584 1959 3584 
z
M 2394 5119 
L 3016 5119 
L 1998 3944 
L 1519 3944 
L 2394 5119 
z
" transform="scale(0.015625)"/>
      <path id="DejaVuSans-4c" d="M 628 4666 
L 1259 4666 
L 1259 531 
L 3531 531 
L 3531 0 
L 628 0 
L 628 4666 
z
" transform="scale(0.015625)"/>
      <path id="DejaVuSans-67" d="M 2906 1791 
Q 2906 2416 2648 2759 
Q 2391 3103 1925 3103 
Q 1463 3103 1205 2759 
Q 947 2416 947 1791 
Q 947 1169 1205 825 
Q 1463 481 1925 481 
Q 2391 481 2648 825 
Q 2906 1169 2906 1791 
z
M 3481 434 
Q 3481 -459 3084 -895 
Q 2688 -1331 1869 -1331 
Q 1566 -1331 1297 -1286 
Q 1028 -1241 775 -1147 
L 775 -588 
Q 1028 -725 1275 -790 
Q 1522 -856 1778 -856 
Q 2344 -856 2625 -561 
Q 2906 -266 2906 331 
L 2906 616 
Q 2728 306 2450 153 
Q 2172 0 1784 0 
Q 1141 0 747 490 
Q 353 981 353 1791 
Q 353 2603 747 3093 
Q 1141 3584 1784 3584 
Q 2172 3584 2450 3431 
Q 2728 3278 2906 2969 
L 2906 3500 
L 3481 3500 
L 3481 434 
z
" transform="scale(0.015625)"/>
      <path id="DejaVuSans-68" d="M 3513 2113 
L 3513 0 
L 2938 0 
L 2938 2094 
Q 2938 2591 2744 2837 
Q 2550 3084 2163 3084 
Q 1697 3084 1428 2787 
Q 1159 2491 1159 1978 
L 1159 0 
L 581 0 
L 581 4863 
L 1159 4863 
L 1159 2956 
Q 1366 3272 1645 3428 
Q 1925 3584 2291 3584 
Q 2894 3584 3203 3211 
Q 3513 2838 3513 2113 
z
" transform="scale(0.015625)"/>
      <path id="DejaVuSans-47" d="M 3809 666 
L 3809 1919 
L 2778 1919 
L 2778 2438 
L 4434 2438 
L 4434 434 
Q 4069 175 3628 42 
Q 3188 -91 2688 -91 
Q 1594 -91 976 548 
Q 359 1188 359 2328 
Q 359 3472 976 4111 
Q 1594 4750 2688 4750 
Q 3144 4750 3555 4637 
Q 3966 4525 4313 4306 
L 4313 3634 
Q 3963 3931 3569 4081 
Q 3175 4231 2741 4231 
Q 1884 4231 1454 3753 
Q 1025 3275 1025 2328 
Q 1025 1384 1454 906 
Q 1884 428 2741 428 
Q 3075 428 3337 486 
Q 3600 544 3809 666 
z
" transform="scale(0.015625)"/>
      <path id="DejaVuSans-42" d="M 1259 2228 
L 1259 519 
L 2272 519 
Q 2781 519 3026 730 
Q 3272 941 3272 1375 
Q 3272 1813 3026 2020 
Q 2781 2228 2272 2228 
L 1259 2228 
z
M 1259 4147 
L 1259 2741 
L 2194 2741 
Q 2656 2741 2882 2914 
Q 3109 3088 3109 3444 
Q 3109 3797 2882 3972 
Q 2656 4147 2194 4147 
L 1259 4147 
z
M 628 4666 
L 2241 4666 
Q 2963 4666 3353 4366 
Q 3744 4066 3744 3513 
Q 3744 3084 3544 2831 
Q 3344 2578 2956 2516 
Q 3422 2416 3680 2098 
Q 3938 1781 3938 1306 
Q 3938 681 3513 340 
Q 3088 0 2303 0 
L 628 0 
L 628 4666 
z
" transform="scale(0.015625)"/>
      <path id="DejaVuSans-4d" d="M 628 4666 
L 1569 4666 
L 2759 1491 
L 3956 4666 
L 4897 4666 
L 4897 0 
L 4281 0 
L 4281 4097 
L 3078 897 
L 2444 897 
L 1241 4097 
L 1241 0 
L 628 0 
L 628 4666 
z
" transform="scale(0.015625)"/>
     </defs>
     <use xlink:href="#DejaVuSans-50"/>
     <use xlink:href="#DejaVuSans-72" transform="translate(58.552734 0)"/>
     <use xlink:href="#DejaVuSans-65" transform="translate(97.416016 0)"/>
     <use xlink:href="#DejaVuSans-64" transform="translate(158.939453 0)"/>
     <use xlink:href="#DejaVuSans-69" transform="translate(222.416016 0)"/>
     <use xlink:href="#DejaVuSans-63" transform="translate(250.199219 0)"/>
     <use xlink:href="#DejaVuSans-63" transform="translate(305.179688 0)"/>
     <use xlink:href="#DejaVuSans-69" transform="translate(360.160156 0)"/>
     <use xlink:href="#DejaVuSans-f3" transform="translate(387.943359 0)"/>
     <use xlink:href="#DejaVuSans-6e" transform="translate(449.125 0)"/>
     <use xlink:href="#DejaVuSans-20" transform="translate(512.503906 0)"/>
     <use xlink:href="#DejaVuSans-63" transform="translate(544.291016 0)"/>
     <use xlink:href="#DejaVuSans-6f" transform="translate(599.271484 0)"/>
     <use xlink:href="#DejaVuSans-6e" transform="translate(660.453125 0)"/>
     <use xlink:href="#DejaVuSans-20" transform="translate(723.832031 0)"/>
     <use xlink:href="#DejaVuSans-4c" transform="translate(755.619141 0)"/>
     <use xlink:href="#DejaVuSans-69" transform="translate(811.332031 0)"/>
     <use xlink:href="#DejaVuSans-67" transform="translate(839.115234 0)"/>
     <use xlink:href="#DejaVuSans-68" transform="translate(902.591797 0)"/>
     <use xlink:href="#DejaVuSans-74" transform="translate(965.970703 0)"/>
     <use xlink:href="#DejaVuSans-47" transform="translate(1005.179688 0)"/>
     <use xlink:href="#DejaVuSans-42" transform="translate(1082.669922 0)"/>
     <use xlink:href="#DejaVuSans-4d" transform="translate(1151.273438 0)"/>
    </g>
   </g>
   <g id="legend_1">
    <g id="patch_7">
     <path d="M 71.360469 404.057188 
L 235.400469 404.057188 
Q 237.800469 404.057188 237.800469 401.657188 
L 237.800469 366.643438 
Q 237.800469 364.243438 235.400469 364.243438 
L 71.360469 364.243438 
Q 68.960469 364.243438 68.960469 366.643438 
L 68.960469 401.657188 
Q 68.960469 404.057188 71.360469 404.057188 
z
" style="fill: #4d4d4d; opacity: 0.5; stroke: #4d4d4d; stroke-linejoin: miter"/>
    </g>
    <g id="patch_8">
     <path d="M 69.360469 402.057188 
L 233.400469 402.057188 
Q 235.800469 402.057188 235.800469 399.657188 
L 235.800469 364.643438 
Q 235.800469 362.243438 233.400469 362.243438 
L 69.360469 362.243438 
Q 66.960469 362.243438 66.960469 364.643438 
L 66.960469 399.657188 
Q 66.960469 402.057188 69.360469 402.057188 
z
" style="fill: #ffffff; stroke: #cccccc; stroke-linejoin: miter"/>
    </g>
    <g id="line2d_31">
     <path d="M 71.760469 372.443438 
L 83.760469 372.443438 
L 95.760469 372.443438 
" style="fill: none; stroke: #000000; stroke-opacity: 0.6; stroke-width: 1.5; stroke-linecap: round"/>
    </g>
    <g id="text_18">
     <!-- Función Objetivo $f(x)$ -->
     <g style="fill: #262626" transform="translate(105.360469 376.643438) scale(0.12 -0.12)">
      <defs>
       <path id="DejaVuSans-46" d="M 628 4666 
L 3309 4666 
L 3309 4134 
L 1259 4134 
L 1259 2759 
L 3109 2759 
L 3109 2228 
L 1259 2228 
L 1259 0 
L 628 0 
L 628 4666 
z
" transform="scale(0.015625)"/>
       <path id="DejaVuSans-4f" d="M 2522 4238 
Q 1834 4238 1429 3725 
Q 1025 3213 1025 2328 
Q 1025 1447 1429 934 
Q 1834 422 2522 422 
Q 3209 422 3611 934 
Q 4013 1447 4013 2328 
Q 4013 3213 3611 3725 
Q 3209 4238 2522 4238 
z
M 2522 4750 
Q 3503 4750 4090 4092 
Q 4678 3434 4678 2328 
Q 4678 1225 4090 567 
Q 3503 -91 2522 -91 
Q 1538 -91 948 565 
Q 359 1222 359 2328 
Q 359 3434 948 4092 
Q 1538 4750 2522 4750 
z
" transform="scale(0.015625)"/>
       <path id="DejaVuSans-62" d="M 3116 1747 
Q 3116 2381 2855 2742 
Q 2594 3103 2138 3103 
Q 1681 3103 1420 2742 
Q 1159 2381 1159 1747 
Q 1159 1113 1420 752 
Q 1681 391 2138 391 
Q 2594 391 2855 752 
Q 3116 1113 3116 1747 
z
M 1159 2969 
Q 1341 3281 1617 3432 
Q 1894 3584 2278 3584 
Q 2916 3584 3314 3078 
Q 3713 2572 3713 1747 
Q 3713 922 3314 415 
Q 2916 -91 2278 -91 
Q 1894 -91 1617 61 
Q 1341 213 1159 525 
L 1159 0 
L 581 0 
L 581 4863 
L 1159 4863 
L 1159 2969 
z
" transform="scale(0.015625)"/>
       <path id="DejaVuSans-6a" d="M 603 3500 
L 1178 3500 
L 1178 -63 
Q 1178 -731 923 -1031 
Q 669 -1331 103 -1331 
L -116 -1331 
L -116 -844 
L 38 -844 
Q 366 -844 484 -692 
Q 603 -541 603 -63 
L 603 3500 
z
M 603 4863 
L 1178 4863 
L 1178 4134 
L 603 4134 
L 603 4863 
z
" transform="scale(0.015625)"/>
       <path id="DejaVuSans-76" d="M 191 3500 
L 800 3500 
L 1894 563 
L 2988 3500 
L 3597 3500 
L 2284 0 
L 1503 0 
L 191 3500 
z
" transform="scale(0.015625)"/>
       <path id="DejaVuSans-Oblique-66" d="M 3059 4863 
L 2969 4384 
L 2419 4384 
Q 2106 4384 1964 4261 
Q 1822 4138 1753 3809 
L 1691 3500 
L 2638 3500 
L 2553 3053 
L 1606 3053 
L 1013 0 
L 434 0 
L 1031 3053 
L 481 3053 
L 563 3500 
L 1113 3500 
L 1159 3744 
Q 1278 4363 1576 4613 
Q 1875 4863 2516 4863 
L 3059 4863 
z
" transform="scale(0.015625)"/>
       <path id="DejaVuSans-28" d="M 1984 4856 
Q 1566 4138 1362 3434 
Q 1159 2731 1159 2009 
Q 1159 1288 1364 580 
Q 1569 -128 1984 -844 
L 1484 -844 
Q 1016 -109 783 600 
Q 550 1309 550 2009 
Q 550 2706 781 3412 
Q 1013 4119 1484 4856 
L 1984 4856 
z
" transform="scale(0.015625)"/>
       <path id="DejaVuSans-29" d="M 513 4856 
L 1013 4856 
Q 1481 4119 1714 3412 
Q 1947 2706 1947 2009 
Q 1947 1309 1714 600 
Q 1481 -109 1013 -844 
L 513 -844 
Q 928 -128 1133 580 
Q 1338 1288 1338 2009 
Q 1338 2731 1133 3434 
Q 928 4138 513 4856 
z
" transform="scale(0.015625)"/>
      </defs>
      <use xlink:href="#DejaVuSans-46" transform="translate(0 0.015625)"/>
      <use xlink:href="#DejaVuSans-75" transform="translate(57.519531 0.015625)"/>
      <use xlink:href="#DejaVuSans-6e" transform="translate(120.898438 0.015625)"/>
      <use xlink:href="#DejaVuSans-63" transform="translate(184.277344 0.015625)"/>
      <use xlink:href="#DejaVuSans-69" transform="translate(239.257812 0.015625)"/>
      <use xlink:href="#DejaVuSans-f3" transform="translate(267.041016 0.015625)"/>
      <use xlink:href="#DejaVuSans-6e" transform="translate(328.222656 0.015625)"/>
      <use xlink:href="#DejaVuSans-20" transform="translate(391.601562 0.015625)"/>
      <use xlink:href="#DejaVuSans-4f" transform="translate(423.388672 0.015625)"/>
      <use xlink:href="#DejaVuSans-62" transform="translate(502.099609 0.015625)"/>
      <use xlink:href="#DejaVuSans-6a" transform="translate(565.576172 0.015625)"/>
      <use xlink:href="#DejaVuSans-65" transform="translate(593.359375 0.015625)"/>
      <use xlink:href="#DejaVuSans-74" transform="translate(654.882812 0.015625)"/>
      <use xlink:href="#DejaVuSans-69" transform="translate(694.091797 0.015625)"/>
      <use xlink:href="#DejaVuSans-76" transform="translate(721.875 0.015625)"/>
      <use xlink:href="#DejaVuSans-6f" transform="translate(781.054688 0.015625)"/>
      <use xlink:href="#DejaVuSans-20" transform="translate(842.236328 0.015625)"/>
      <use xlink:href="#DejaVuSans-Oblique-66" transform="translate(874.023438 0.015625)"/>
      <use xlink:href="#DejaVuSans-28" transform="translate(909.228516 0.015625)"/>
      <use xlink:href="#DejaVuSans-Oblique-78" transform="translate(948.242188 0.015625)"/>
      <use xlink:href="#DejaVuSans-29" transform="translate(1007.421875 0.015625)"/>
     </g>
    </g>
    <g id="line2d_32">
     <path d="M 71.760469 390.561563 
L 83.760469 390.561563 
L 95.760469 390.561563 
" style="fill: none; stroke: #e65100; stroke-opacity: 0.85; stroke-width: 2.5; stroke-linecap: round"/>
    </g>
    <g id="text_19">
     <!-- Predicción LightGBM -->
     <g style="fill: #262626" transform="translate(105.360469 394.761563) scale(0.12 -0.12)">
      <use xlink:href="#DejaVuSans-50"/>
      <use xlink:href="#DejaVuSans-72" transform="translate(58.552734 0)"/>
      <use xlink:href="#DejaVuSans-65" transform="translate(97.416016 0)"/>
      <use xlink:href="#DejaVuSans-64" transform="translate(158.939453 0)"/>
      <use xlink:href="#DejaVuSans-69" transform="translate(222.416016 0)"/>
      <use xlink:href="#DejaVuSans-63" transform="translate(250.199219 0)"/>
      <use xlink:href="#DejaVuSans-63" transform="translate(305.179688 0)"/>
      <use xlink:href="#DejaVuSans-69" transform="translate(360.160156 0)"/>
      <use xlink:href="#DejaVuSans-f3" transform="translate(387.943359 0)"/>
      <use xlink:href="#DejaVuSans-6e" transform="translate(449.125 0)"/>
      <use xlink:href="#DejaVuSans-20" transform="translate(512.503906 0)"/>
      <use xlink:href="#DejaVuSans-4c" transform="translate(544.291016 0)"/>
      <use xlink:href="#DejaVuSans-69" transform="translate(600.003906 0)"/>
      <use xlink:href="#DejaVuSans-67" transform="translate(627.787109 0)"/>
      <use xlink:href="#DejaVuSans-68" transform="translate(691.263672 0)"/>
      <use xlink:href="#DejaVuSans-74" transform="translate(754.642578 0)"/>
      <use xlink:href="#DejaVuSans-47" transform="translate(793.851562 0)"/>
      <use xlink:href="#DejaVuSans-42" transform="translate(871.341797 0)"/>
      <use xlink:href="#DejaVuSans-4d" transform="translate(939.945312 0)"/>
     </g>
    </g>
   </g>
  </g>
 </g>
 <defs>
  <clipPath id="p2a2f36b32d">
   <rect x="60.960469" y="36.597187" width="568.35" height="371.46"/>
  </clipPath>
 </defs>
</svg>
