<?xml version="1.0" encoding="utf-8" standalone="no"?>
<!DOCTYPE svg PUBLIC "-//W3C//DTD SVG 1.1//EN"
  "http://www.w3.org/Graphics/SVG/1.1/DTD/svg11.dtd">
<svg xmlns:xlink="http://www.w3.org/1999/xlink" width="634.126094pt" height="452.763125pt" viewBox="0 0 634.126094 452.763125" xmlns="http://www.w3.org/2000/svg" version="1.1">
 <metadata>
  <rdf:RDF xmlns:dc="http://purl.org/dc/elements/1.1/" xmlns:cc="http://creativecommons.org/ns#" xmlns:rdf="http://www.w3.org/1999/02/22-rdf-syntax-ns#">
   <cc:Work>
    <dc:type rdf:resource="http://purl.org/dc/dcmitype/StillImage"/>
    <dc:date>2026-05-22T17:20:07.402553</dc:date>
    <dc:format>image/svg+xml</dc:format>
    <dc:creator>
     <cc:Agent>
      <dc:title>Matplotlib v3.10.0, https://matplotlib.org/</dc:title>
     </cc:Agent>
    </dc:creator>
   </cc:Work>
  </rdf:RDF>
 </metadata>
 <defs>
  <style type="text/css">*{stroke-linejoin: round; stroke-linecap: butt}</style>
 </defs>
 <g id="figure_1">
  <g id="patch_1">
   <path d="M 0 452.763125 
L 634.126094 452.763125 
L 634.126094 0 
L 0 0 
z
" style="fill: #ffffff"/>
  </g>
  <g id="axes_1">
   <g id="patch_2">
    <path d="M 62.896094 405.897187 
L 626.926094 405.897187 
L 626.926094 36.597187 
L 62.896094 36.597187 
z
" style="fill: #ffffff"/>
   </g>
   <g id="matplotlib.axis_1">
    <g id="xtick_1">
     <g id="line2d_1">
      <path d="M 109.898594 405.897187 
L 109.898594 36.597187 
" clip-path="url(#p57c0ddfd2d)" style="fill: none; stroke-dasharray: 3.7,1.6; stroke-dashoffset: 0; stroke: #cccccc; stroke-opacity: 0.5"/>
     </g>
     <g id="text_1">
      <!-- $-2\pi$ -->
      <g style="fill: #262626" transform="translate(98.458594 423.755469) scale(0.11 -0.11)">
       <defs>
        <path id="DejaVuSans-2212" d="M 678 2272 
L 4684 2272 
L 4684 1741 
L 678 1741 
L 678 2272 
z
" transform="scale(0.015625)"/>
        <path id="DejaVuSans-32" d="M 1228 531 
L 3431 531 
L 3431 0 
L 469 0 
L 469 531 
Q 828 903 1448 1529 
Q 2069 2156 2228 2338 
Q 2531 2678 2651 2914 
Q 2772 3150 2772 3378 
Q 2772 3750 2511 3984 
Q 2250 4219 1831 4219 
Q 1534 4219 1204 4116 
Q 875 4013 500 3803 
L 500 4441 
Q 881 4594 1212 4672 
Q 1544 4750 1819 4750 
Q 2544 4750 2975 4387 
Q 3406 4025 3406 3419 
Q 3406 3131 3298 2873 
Q 3191 2616 2906 2266 
Q 2828 2175 2409 1742 
Q 1991 1309 1228 531 
z
" transform="scale(0.015625)"/>
        <path id="DejaVuSans-Oblique-3c0" d="M 584 3500 
L 3938 3500 
L 3825 2925 
L 3384 2925 
L 2966 775 
Q 2922 550 2981 450 
Q 3038 353 3209 353 
Q 3256 353 3325 363 
Q 3397 369 3419 372 
L 3338 -44 
Q 3222 -84 3103 -103 
Q 2981 -122 2866 -122 
Q 2491 -122 2388 81 
Q 2284 288 2391 838 
L 2797 2925 
L 1506 2925 
L 938 0 
L 350 0 
L 919 2925 
L 472 2925 
L 584 3500 
z
" transform="scale(0.015625)"/>
       </defs>
       <use xlink:href="#DejaVuSans-2212" transform="translate(0 0.78125)"/>
       <use xlink:href="#DejaVuSans-32" transform="translate(83.789062 0.78125)"/>
       <use xlink:href="#DejaVuSans-Oblique-3c0" transform="translate(147.412109 0.78125)"/>
      </g>
     </g>
    </g>
    <g id="xtick_2">
     <g id="line2d_2">
      <path d="M 168.651719 405.897187 
L 168.651719 36.597187 
" clip-path="url(#p57c0ddfd2d)" style="fill: none; stroke-dasharray: 3.7,1.6; stroke-dashoffset: 0; stroke: #cccccc; stroke-opacity: 0.5"/>
     </g>
     <g id="text_2">
      <!-- $-1.5\pi$ -->
      <g style="fill: #262626" transform="translate(151.931719 423.755469) scale(0.11 -0.11)">
       <defs>
        <path id="DejaVuSans-31" d="M 794 531 
L 1825 531 
L 1825 4091 
L 703 3866 
L 703 4441 
L 1819 4666 
L 2450 4666 
L 2450 531 
L 3481 531 
L 3481 0 
L 794 0 
L 794 531 
z
" transform="scale(0.015625)"/>
        <path id="DejaVuSans-2e" d="M 684 794 
L 1344 794 
L 1344 0 
L 684 0 
L 684 794 
z
" transform="scale(0.015625)"/>
        <path id="DejaVuSans-35" d="M 691 4666 
L 3169 4666 
L 3169 4134 
L 1269 4134 
L 1269 2991 
Q 1406 3038 1543 3061 
Q 1681 3084 1819 3084 
Q 2600 3084 3056 2656 
Q 3513 2228 3513 1497 
Q 3513 744 3044 326 
Q 2575 -91 1722 -91 
Q 1428 -91 1123 -41 
Q 819 9 494 109 
L 494 744 
Q 775 591 1075 516 
Q 1375 441 1709 441 
Q 2250 441 2565 725 
Q 2881 1009 2881 1497 
Q 2881 1984 2565 2268 
Q 2250 2553 1709 2553 
Q 1456 2553 1204 2497 
Q 953 2441 691 2322 
L 691 4666 
z
" transform="scale(0.015625)"/>
       </defs>
       <use xlink:href="#DejaVuSans-2212" transform="translate(0 0.09375)"/>
       <use xlink:href="#DejaVuSans-31" transform="translate(83.789062 0.09375)"/>
       <use xlink:href="#DejaVuSans-2e" transform="translate(147.412109 0.09375)"/>
       <use xlink:href="#DejaVuSans-35" transform="translate(179.199219 0.09375)"/>
       <use xlink:href="#DejaVuSans-Oblique-3c0" transform="translate(242.822266 0.09375)"/>
      </g>
     </g>
    </g>
    <g id="xtick_3">
     <g id="line2d_3">
      <path d="M 227.404844 405.897187 
L 227.404844 36.597187 
" clip-path="url(#p57c0ddfd2d)" style="fill: none; stroke-dasharray: 3.7,1.6; stroke-dashoffset: 0; stroke: #cccccc; stroke-opacity: 0.5"/>
     </g>
     <g id="text_3">
      <!-- $-\pi$ -->
      <g style="fill: #262626" transform="translate(219.484844 423.755469) scale(0.11 -0.11)">
       <use xlink:href="#DejaVuSans-2212" transform="translate(0 0.3125)"/>
       <use xlink:href="#DejaVuSans-Oblique-3c0" transform="translate(83.789062 0.3125)"/>
      </g>
     </g>
    </g>
    <g id="xtick_4">
     <g id="line2d_4">
      <path d="M 286.157969 405.897187 
L 286.157969 36.597187 
" clip-path="url(#p57c0ddfd2d)" style="fill: none; stroke-dasharray: 3.7,1.6; stroke-dashoffset: 0; stroke: #cccccc; stroke-opacity: 0.5"/>
     </g>
     <g id="text_4">
      <!-- $-\pi/2$ -->
      <g style="fill: #262626" transform="translate(273.067969 423.755469) scale(0.11 -0.11)">
       <defs>
        <path id="DejaVuSans-2f" d="M 1625 4666 
L 2156 4666 
L 531 -594 
L 0 -594 
L 1625 4666 
z
" transform="scale(0.015625)"/>
       </defs>
       <use xlink:href="#DejaVuSans-2212" transform="translate(0 0.78125)"/>
       <use xlink:href="#DejaVuSans-Oblique-3c0" transform="translate(83.789062 0.78125)"/>
       <use xlink:href="#DejaVuSans-2f" transform="translate(143.994141 0.78125)"/>
       <use xlink:href="#DejaVuSans-32" transform="translate(174.060547 0.78125)"/>
      </g>
     </g>
    </g>
    <g id="xtick_5">
     <g id="line2d_5">
      <path d="M 344.911094 405.897187 
L 344.911094 36.597187 
" clip-path="url(#p57c0ddfd2d)" style="fill: none; stroke-dasharray: 3.7,1.6; stroke-dashoffset: 0; stroke: #cccccc; stroke-opacity: 0.5"/>
     </g>
     <g id="text_5">
      <!-- 0 -->
      <g style="fill: #262626" transform="translate(341.411719 423.755469) scale(0.11 -0.11)">
       <defs>
        <path id="DejaVuSans-30" d="M 2034 4250 
Q 1547 4250 1301 3770 
Q 1056 3291 1056 2328 
Q 1056 1369 1301 889 
Q 1547 409 2034 409 
Q 2525 409 2770 889 
Q 3016 1369 3016 2328 
Q 3016 3291 2770 3770 
Q 2525 4250 2034 4250 
z
M 2034 4750 
Q 2819 4750 3233 4129 
Q 3647 3509 3647 2328 
Q 3647 1150 3233 529 
Q 2819 -91 2034 -91 
Q 1250 -91 836 529 
Q 422 1150 422 2328 
Q 422 3509 836 4129 
Q 1250 4750 2034 4750 
z
" transform="scale(0.015625)"/>
       </defs>
       <use xlink:href="#DejaVuSans-30"/>
      </g>
     </g>
    </g>
    <g id="xtick_6">
     <g id="line2d_6">
      <path d="M 403.664219 405.897187 
L 403.664219 36.597187 
" clip-path="url(#p57c0ddfd2d)" style="fill: none; stroke-dasharray: 3.7,1.6; stroke-dashoffset: 0; stroke: #cccccc; stroke-opacity: 0.5"/>
     </g>
     <g id="text_6">
      <!-- $\pi/2$ -->
      <g style="fill: #262626" transform="translate(395.194219 423.755469) scale(0.11 -0.11)">
       <use xlink:href="#DejaVuSans-Oblique-3c0" transform="translate(0 0.78125)"/>
       <use xlink:href="#DejaVuSans-2f" transform="translate(60.205078 0.78125)"/>
       <use xlink:href="#DejaVuSans-32" transform="translate(90.271484 0.78125)"/>
      </g>
     </g>
    </g>
    <g id="xtick_7">
     <g id="line2d_7">
      <path d="M 462.417344 405.897187 
L 462.417344 36.597187 
" clip-path="url(#p57c0ddfd2d)" style="fill: none; stroke-dasharray: 3.7,1.6; stroke-dashoffset: 0; stroke: #cccccc; stroke-opacity: 0.5"/>
     </g>
     <g id="text_7">
      <!-- $\pi$ -->
      <g style="fill: #262626" transform="translate(459.062344 423.755469) scale(0.11 -0.11)">
       <use xlink:href="#DejaVuSans-Oblique-3c0" transform="translate(0 0.3125)"/>
      </g>
     </g>
    </g>
    <g id="xtick_8">
     <g id="line2d_8">
      <path d="M 521.170469 405.897187 
L 521.170469 36.597187 
" clip-path="url(#p57c0ddfd2d)" style="fill: none; stroke-dasharray: 3.7,1.6; stroke-dashoffset: 0; stroke: #cccccc; stroke-opacity: 0.5"/>
     </g>
     <g id="text_8">
      <!-- $1.5\pi$ -->
      <g style="fill: #262626" transform="translate(509.070469 423.755469) scale(0.11 -0.11)">
       <use xlink:href="#DejaVuSans-31" transform="translate(0 0.09375)"/>
       <use xlink:href="#DejaVuSans-2e" transform="translate(63.623047 0.09375)"/>
       <use xlink:href="#DejaVuSans-35" transform="translate(95.410156 0.09375)"/>
       <use xlink:href="#DejaVuSans-Oblique-3c0" transform="translate(159.033203 0.09375)"/>
      </g>
     </g>
    </g>
    <g id="xtick_9">
     <g id="line2d_9">
      <path d="M 579.923594 405.897187 
L 579.923594 36.597187 
" clip-path="url(#p57c0ddfd2d)" style="fill: none; stroke-dasharray: 3.7,1.6; stroke-dashoffset: 0; stroke: #cccccc; stroke-opacity: 0.5"/>
     </g>
     <g id="text_9">
      <!-- $2\pi$ -->
      <g style="fill: #262626" transform="translate(573.103594 423.755469) scale(0.11 -0.11)">
       <use xlink:href="#DejaVuSans-32" transform="translate(0 0.78125)"/>
       <use xlink:href="#DejaVuSans-Oblique-3c0" transform="translate(63.623047 0.78125)"/>
      </g>
     </g>
    </g>
    <g id="text_10">
     <!-- Espacio de entrada $t$ -->
     <g style="fill: #262626" transform="translate(262.111094 442.203125) scale(0.16 -0.16)">
      <defs>
       <path id="DejaVuSans-45" d="M 628 4666 
L 3578 4666 
L 3578 4134 
L 1259 4134 
L 1259 2753 
L 3481 2753 
L 3481 2222 
L 1259 2222 
L 1259 531 
L 3634 531 
L 3634 0 
L 628 0 
L 628 4666 
z
" transform="scale(0.015625)"/>
       <path id="DejaVuSans-73" d="M 2834 3397 
L 2834 2853 
Q 2591 2978 2328 3040 
Q 2066 3103 1784 3103 
Q 1356 3103 1142 2972 
Q 928 2841 928 2578 
Q 928 2378 1081 2264 
Q 1234 2150 1697 2047 
L 1894 2003 
Q 2506 1872 2764 1633 
Q 3022 1394 3022 966 
Q 3022 478 2636 193 
Q 2250 -91 1575 -91 
Q 1294 -91 989 -36 
Q 684 19 347 128 
L 347 722 
Q 666 556 975 473 
Q 1284 391 1588 391 
Q 1994 391 2212 530 
Q 2431 669 2431 922 
Q 2431 1156 2273 1281 
Q 2116 1406 1581 1522 
L 1381 1569 
Q 847 1681 609 1914 
Q 372 2147 372 2553 
Q 372 3047 722 3315 
Q 1072 3584 1716 3584 
Q 2034 3584 2315 3537 
Q 2597 3491 2834 3397 
z
" transform="scale(0.015625)"/>
       <path id="DejaVuSans-70" d="M 1159 525 
L 1159 -1331 
L 581 -1331 
L 581 3500 
L 1159 3500 
L 1159 2969 
Q 1341 3281 1617 3432 
Q 1894 3584 2278 3584 
Q 2916 3584 3314 3078 
Q 3713 2572 3713 1747 
Q 3713 922 3314 415 
Q 2916 -91 2278 -91 
Q 1894 -91 1617 61 
Q 1341 213 1159 525 
z
M 3116 1747 
Q 3116 2381 2855 2742 
Q 2594 3103 2138 3103 
Q 1681 3103 1420 2742 
Q 1159 2381 1159 1747 
Q 1159 1113 1420 752 
Q 1681 391 2138 391 
Q 2594 391 2855 752 
Q 3116 1113 3116 1747 
z
" transform="scale(0.015625)"/>
       <path id="DejaVuSans-61" d="M 2194 1759 
Q 1497 1759 1228 1600 
Q 959 1441 959 1056 
Q 959 750 1161 570 
Q 1363 391 1709 391 
Q 2188 391 2477 730 
Q 2766 1069 2766 1631 
L 2766 1759 
L 2194 1759 
z
M 3341 1997 
L 3341 0 
L 2766 0 
L 2766 531 
Q 2569 213 2275 61 
Q 1981 -91 1556 -91 
Q 1019 -91 701 211 
Q 384 513 384 1019 
Q 384 1609 779 1909 
Q 1175 2209 1959 2209 
L 2766 2209 
L 2766 2266 
Q 2766 2663 2505 2880 
Q 2244 3097 1772 3097 
Q 1472 3097 1187 3025 
Q 903 2953 641 2809 
L 641 3341 
Q 956 3463 1253 3523 
Q 1550 3584 1831 3584 
Q 2591 3584 2966 3190 
Q 3341 2797 3341 1997 
z
" transform="scale(0.015625)"/>
       <path id="DejaVuSans-63" d="M 3122 3366 
L 3122 2828 
Q 2878 2963 2633 3030 
Q 2388 3097 2138 3097 
Q 1578 3097 1268 2742 
Q 959 2388 959 1747 
Q 959 1106 1268 751 
Q 1578 397 2138 397 
Q 2388 397 2633 464 
Q 2878 531 3122 666 
L 3122 134 
Q 2881 22 2623 -34 
Q 2366 -91 2075 -91 
Q 1284 -91 818 406 
Q 353 903 353 1747 
Q 353 2603 823 3093 
Q 1294 3584 2113 3584 
Q 2378 3584 2631 3529 
Q 2884 3475 3122 3366 
z
" transform="scale(0.015625)"/>
       <path id="DejaVuSans-69" d="M 603 3500 
L 1178 3500 
L 1178 0 
L 603 0 
L 603 3500 
z
M 603 4863 
L 1178 4863 
L 1178 4134 
L 603 4134 
L 603 4863 
z
" transform="scale(0.015625)"/>
       <path id="DejaVuSans-6f" d="M 1959 3097 
Q 1497 3097 1228 2736 
Q 959 2375 959 1747 
Q 959 1119 1226 758 
Q 1494 397 1959 397 
Q 2419 397 2687 759 
Q 2956 1122 2956 1747 
Q 2956 2369 2687 2733 
Q 2419 3097 1959 3097 
z
M 1959 3584 
Q 2709 3584 3137 3096 
Q 3566 2609 3566 1747 
Q 3566 888 3137 398 
Q 2709 -91 1959 -91 
Q 1206 -91 779 398 
Q 353 888 353 1747 
Q 353 2609 779 3096 
Q 1206 3584 1959 3584 
z
" transform="scale(0.015625)"/>
       <path id="DejaVuSans-20" transform="scale(0.015625)"/>
       <path id="DejaVuSans-64" d="M 2906 2969 
L 2906 4863 
L 3481 4863 
L 3481 0 
L 2906 0 
L 2906 525 
Q 2725 213 2448 61 
Q 2172 -91 1784 -91 
Q 1150 -91 751 415 
Q 353 922 353 1747 
Q 353 2572 751 3078 
Q 1150 3584 1784 3584 
Q 2172 3584 2448 3432 
Q 2725 3281 2906 2969 
z
M 947 1747 
Q 947 1113 1208 752 
Q 1469 391 1925 391 
Q 2381 391 2643 752 
Q 2906 1113 2906 1747 
Q 2906 2381 2643 2742 
Q 2381 3103 1925 3103 
Q 1469 3103 1208 2742 
Q 947 2381 947 1747 
z
" transform="scale(0.015625)"/>
       <path id="DejaVuSans-65" d="M 3597 1894 
L 3597 1613 
L 953 1613 
Q 991 1019 1311 708 
Q 1631 397 2203 397 
Q 2534 397 2845 478 
Q 3156 559 3463 722 
L 3463 178 
Q 3153 47 2828 -22 
Q 2503 -91 2169 -91 
Q 1331 -91 842 396 
Q 353 884 353 1716 
Q 353 2575 817 3079 
Q 1281 3584 2069 3584 
Q 2775 3584 3186 3129 
Q 3597 2675 3597 1894 
z
M 3022 2063 
Q 3016 2534 2758 2815 
Q 2500 3097 2075 3097 
Q 1594 3097 1305 2825 
Q 1016 2553 972 2059 
L 3022 2063 
z
" transform="scale(0.015625)"/>
       <path id="DejaVuSans-6e" d="M 3513 2113 
L 3513 0 
L 2938 0 
L 2938 2094 
Q 2938 2591 2744 2837 
Q 2550 3084 2163 3084 
Q 1697 3084 1428 2787 
Q 1159 2491 1159 1978 
L 1159 0 
L 581 0 
L 581 3500 
L 1159 3500 
L 1159 2956 
Q 1366 3272 1645 3428 
Q 1925 3584 2291 3584 
Q 2894 3584 3203 3211 
Q 3513 2838 3513 2113 
z
" transform="scale(0.015625)"/>
       <path id="DejaVuSans-74" d="M 1172 4494 
L 1172 3500 
L 2356 3500 
L 2356 3053 
L 1172 3053 
L 1172 1153 
Q 1172 725 1289 603 
Q 1406 481 1766 481 
L 2356 481 
L 2356 0 
L 1766 0 
Q 1100 0 847 248 
Q 594 497 594 1153 
L 594 3053 
L 172 3053 
L 172 3500 
L 594 3500 
L 594 4494 
L 1172 4494 
z
" transform="scale(0.015625)"/>
       <path id="DejaVuSans-72" d="M 2631 2963 
Q 2534 3019 2420 3045 
Q 2306 3072 2169 3072 
Q 1681 3072 1420 2755 
Q 1159 2438 1159 1844 
L 1159 0 
L 581 0 
L 581 3500 
L 1159 3500 
L 1159 2956 
Q 1341 3275 1631 3429 
Q 1922 3584 2338 3584 
Q 2397 3584 2469 3576 
Q 2541 3569 2628 3553 
L 2631 2963 
z
" transform="scale(0.015625)"/>
       <path id="DejaVuSans-Oblique-74" d="M 2706 3500 
L 2619 3053 
L 1472 3053 
L 1100 1153 
Q 1081 1047 1072 975 
Q 1063 903 1063 863 
Q 1063 663 1183 572 
Q 1303 481 1569 481 
L 2150 481 
L 2053 0 
L 1503 0 
Q 991 0 739 200 
Q 488 400 488 806 
Q 488 878 497 964 
Q 506 1050 525 1153 
L 897 3053 
L 409 3053 
L 500 3500 
L 978 3500 
L 1172 4494 
L 1747 4494 
L 1556 3500 
L 2706 3500 
z
" transform="scale(0.015625)"/>
      </defs>
      <use xlink:href="#DejaVuSans-45" transform="translate(0 0.015625)"/>
      <use xlink:href="#DejaVuSans-73" transform="translate(63.183594 0.015625)"/>
      <use xlink:href="#DejaVuSans-70" transform="translate(115.283203 0.015625)"/>
      <use xlink:href="#DejaVuSans-61" transform="translate(178.759766 0.015625)"/>
      <use xlink:href="#DejaVuSans-63" transform="translate(240.039062 0.015625)"/>
      <use xlink:href="#DejaVuSans-69" transform="translate(295.019531 0.015625)"/>
      <use xlink:href="#DejaVuSans-6f" transform="translate(322.802734 0.015625)"/>
      <use xlink:href="#DejaVuSans-20" transform="translate(383.984375 0.015625)"/>
      <use xlink:href="#DejaVuSans-64" transform="translate(415.771484 0.015625)"/>
      <use xlink:href="#DejaVuSans-65" transform="translate(479.248047 0.015625)"/>
      <use xlink:href="#DejaVuSans-20" transform="translate(540.771484 0.015625)"/>
      <use xlink:href="#DejaVuSans-65" transform="translate(572.558594 0.015625)"/>
      <use xlink:href="#DejaVuSans-6e" transform="translate(634.082031 0.015625)"/>
      <use xlink:href="#DejaVuSans-74" transform="translate(697.460938 0.015625)"/>
      <use xlink:href="#DejaVuSans-72" transform="translate(736.669922 0.015625)"/>
      <use xlink:href="#DejaVuSans-61" transform="translate(777.783203 0.015625)"/>
      <use xlink:href="#DejaVuSans-64" transform="translate(839.0625 0.015625)"/>
      <use xlink:href="#DejaVuSans-61" transform="translate(902.539062 0.015625)"/>
      <use xlink:href="#DejaVuSans-20" transform="translate(963.818359 0.015625)"/>
      <use xlink:href="#DejaVuSans-Oblique-74" transform="translate(995.605469 0.015625)"/>
     </g>
    </g>
   </g>
   <g id="matplotlib.axis_2">
    <g id="ytick_1">
     <g id="line2d_10">
      <path d="M 62.896094 405.897187 
L 626.926094 405.897187 
" clip-path="url(#p57c0ddfd2d)" style="fill: none; stroke-dasharray: 3.7,1.6; stroke-dashoffset: 0; stroke: #cccccc; stroke-opacity: 0.5"/>
     </g>
     <g id="text_11">
      <!-- −1.5 -->
      <g style="fill: #262626" transform="translate(26.685 410.076328) scale(0.11 -0.11)">
       <use xlink:href="#DejaVuSans-2212"/>
       <use xlink:href="#DejaVuSans-31" transform="translate(83.789062 0)"/>
       <use xlink:href="#DejaVuSans-2e" transform="translate(147.412109 0)"/>
       <use xlink:href="#DejaVuSans-35" transform="translate(179.199219 0)"/>
      </g>
     </g>
    </g>
    <g id="ytick_2">
     <g id="line2d_11">
      <path d="M 62.896094 353.140045 
L 626.926094 353.140045 
" clip-path="url(#p57c0ddfd2d)" style="fill: none; stroke-dasharray: 3.7,1.6; stroke-dashoffset: 0; stroke: #cccccc; stroke-opacity: 0.5"/>
     </g>
     <g id="text_12">
      <!-- −1.0 -->
      <g style="fill: #262626" transform="translate(26.685 357.319185) scale(0.11 -0.11)">
       <use xlink:href="#DejaVuSans-2212"/>
       <use xlink:href="#DejaVuSans-31" transform="translate(83.789062 0)"/>
       <use xlink:href="#DejaVuSans-2e" transform="translate(147.412109 0)"/>
       <use xlink:href="#DejaVuSans-30" transform="translate(179.199219 0)"/>
      </g>
     </g>
    </g>
    <g id="ytick_3">
     <g id="line2d_12">
      <path d="M 62.896094 300.382902 
L 626.926094 300.382902 
" clip-path="url(#p57c0ddfd2d)" style="fill: none; stroke-dasharray: 3.7,1.6; stroke-dashoffset: 0; stroke: #cccccc; stroke-opacity: 0.5"/>
     </g>
     <g id="text_13">
      <!-- −0.5 -->
      <g style="fill: #262626" transform="translate(26.685 304.562042) scale(0.11 -0.11)">
       <use xlink:href="#DejaVuSans-2212"/>
       <use xlink:href="#DejaVuSans-30" transform="translate(83.789062 0)"/>
       <use xlink:href="#DejaVuSans-2e" transform="translate(147.412109 0)"/>
       <use xlink:href="#DejaVuSans-35" transform="translate(179.199219 0)"/>
      </g>
     </g>
    </g>
    <g id="ytick_4">
     <g id="line2d_13">
      <path d="M 62.896094 247.625759 
L 626.926094 247.625759 
" clip-path="url(#p57c0ddfd2d)" style="fill: none; stroke-dasharray: 3.7,1.6; stroke-dashoffset: 0; stroke: #cccccc; stroke-opacity: 0.5"/>
     </g>
     <g id="text_14">
      <!-- 0.0 -->
      <g style="fill: #262626" transform="translate(35.902656 251.8049) scale(0.11 -0.11)">
       <use xlink:href="#DejaVuSans-30"/>
       <use xlink:href="#DejaVuSans-2e" transform="translate(63.623047 0)"/>
       <use xlink:href="#DejaVuSans-30" transform="translate(95.410156 0)"/>
      </g>
     </g>
    </g>
    <g id="ytick_5">
     <g id="line2d_14">
      <path d="M 62.896094 194.868616 
L 626.926094 194.868616 
" clip-path="url(#p57c0ddfd2d)" style="fill: none; stroke-dasharray: 3.7,1.6; stroke-dashoffset: 0; stroke: #cccccc; stroke-opacity: 0.5"/>
     </g>
     <g id="text_15">
      <!-- 0.5 -->
      <g style="fill: #262626" transform="translate(35.902656 199.047757) scale(0.11 -0.11)">
       <use xlink:href="#DejaVuSans-30"/>
       <use xlink:href="#DejaVuSans-2e" transform="translate(63.623047 0)"/>
       <use xlink:href="#DejaVuSans-35" transform="translate(95.410156 0)"/>
      </g>
     </g>
    </g>
    <g id="ytick_6">
     <g id="line2d_15">
      <path d="M 62.896094 142.111473 
L 626.926094 142.111473 
" clip-path="url(#p57c0ddfd2d)" style="fill: none; stroke-dasharray: 3.7,1.6; stroke-dashoffset: 0; stroke: #cccccc; stroke-opacity: 0.5"/>
     </g>
     <g id="text_16">
      <!-- 1.0 -->
      <g style="fill: #262626" transform="translate(35.902656 146.290614) scale(0.11 -0.11)">
       <use xlink:href="#DejaVuSans-31"/>
       <use xlink:href="#DejaVuSans-2e" transform="translate(63.623047 0)"/>
       <use xlink:href="#DejaVuSans-30" transform="translate(95.410156 0)"/>
      </g>
     </g>
    </g>
    <g id="ytick_7">
     <g id="line2d_16">
      <path d="M 62.896094 89.35433 
L 626.926094 89.35433 
" clip-path="url(#p57c0ddfd2d)" style="fill: none; stroke-dasharray: 3.7,1.6; stroke-dashoffset: 0; stroke: #cccccc; stroke-opacity: 0.5"/>
     </g>
     <g id="text_17">
      <!-- 1.5 -->
      <g style="fill: #262626" transform="translate(35.902656 93.533471) scale(0.11 -0.11)">
       <use xlink:href="#DejaVuSans-31"/>
       <use xlink:href="#DejaVuSans-2e" transform="translate(63.623047 0)"/>
       <use xlink:href="#DejaVuSans-35" transform="translate(95.410156 0)"/>
      </g>
     </g>
    </g>
    <g id="ytick_8">
     <g id="line2d_17">
      <path d="M 62.896094 36.597187 
L 626.926094 36.597187 
" clip-path="url(#p57c0ddfd2d)" style="fill: none; stroke-dasharray: 3.7,1.6; stroke-dashoffset: 0; stroke: #cccccc; stroke-opacity: 0.5"/>
     </g>
     <g id="text_18">
      <!-- 2.0 -->
      <g style="fill: #262626" transform="translate(35.902656 40.776328) scale(0.11 -0.11)">
       <use xlink:href="#DejaVuSans-32"/>
       <use xlink:href="#DejaVuSans-2e" transform="translate(63.623047 0)"/>
       <use xlink:href="#DejaVuSans-30" transform="translate(95.410156 0)"/>
      </g>
     </g>
    </g>
    <g id="text_19">
     <!-- Solución $x(\theta;t)$ -->
     <g style="fill: #262626" transform="translate(19.3575 280.927187) rotate(-90) scale(0.16 -0.16)">
      <defs>
       <path id="DejaVuSans-53" d="M 3425 4513 
L 3425 3897 
Q 3066 4069 2747 4153 
Q 2428 4238 2131 4238 
Q 1616 4238 1336 4038 
Q 1056 3838 1056 3469 
Q 1056 3159 1242 3001 
Q 1428 2844 1947 2747 
L 2328 2669 
Q 3034 2534 3370 2195 
Q 3706 1856 3706 1288 
Q 3706 609 3251 259 
Q 2797 -91 1919 -91 
Q 1588 -91 1214 -16 
Q 841 59 441 206 
L 441 856 
Q 825 641 1194 531 
Q 1563 422 1919 422 
Q 2459 422 2753 634 
Q 3047 847 3047 1241 
Q 3047 1584 2836 1778 
Q 2625 1972 2144 2069 
L 1759 2144 
Q 1053 2284 737 2584 
Q 422 2884 422 3419 
Q 422 4038 858 4394 
Q 1294 4750 2059 4750 
Q 2388 4750 2728 4690 
Q 3069 4631 3425 4513 
z
" transform="scale(0.015625)"/>
       <path id="DejaVuSans-6c" d="M 603 4863 
L 1178 4863 
L 1178 0 
L 603 0 
L 603 4863 
z
" transform="scale(0.015625)"/>
       <path id="DejaVuSans-75" d="M 544 1381 
L 544 3500 
L 1119 3500 
L 1119 1403 
Q 1119 906 1312 657 
Q 1506 409 1894 409 
Q 2359 409 2629 706 
Q 2900 1003 2900 1516 
L 2900 3500 
L 3475 3500 
L 3475 0 
L 2900 0 
L 2900 538 
Q 2691 219 2414 64 
Q 2138 -91 1772 -91 
Q 1169 -91 856 284 
Q 544 659 544 1381 
z
M 1991 3584 
L 1991 3584 
z
" transform="scale(0.015625)"/>
       <path id="DejaVuSans-f3" d="M 1959 3097 
Q 1497 3097 1228 2736 
Q 959 2375 959 1747 
Q 959 1119 1226 758 
Q 1494 397 1959 397 
Q 2419 397 2687 759 
Q 2956 1122 2956 1747 
Q 2956 2369 2687 2733 
Q 2419 3097 1959 3097 
z
M 1959 3584 
Q 2709 3584 3137 3096 
Q 3566 2609 3566 1747 
Q 3566 888 3137 398 
Q 2709 -91 1959 -91 
Q 1206 -91 779 398 
Q 353 888 353 1747 
Q 353 2609 779 3096 
Q 1206 3584 1959 3584 
z
M 2394 5119 
L 3016 5119 
L 1998 3944 
L 1519 3944 
L 2394 5119 
z
" transform="scale(0.015625)"/>
       <path id="DejaVuSans-Oblique-78" d="M 3841 3500 
L 2234 1784 
L 3219 0 
L 2559 0 
L 1819 1388 
L 531 0 
L -166 0 
L 1556 1844 
L 641 3500 
L 1300 3500 
L 1972 2234 
L 3144 3500 
L 3841 3500 
z
" transform="scale(0.015625)"/>
       <path id="DejaVuSans-28" d="M 1984 4856 
Q 1566 4138 1362 3434 
Q 1159 2731 1159 2009 
Q 1159 1288 1364 580 
Q 1569 -128 1984 -844 
L 1484 -844 
Q 1016 -109 783 600 
Q 550 1309 550 2009 
Q 550 2706 781 3412 
Q 1013 4119 1484 4856 
L 1984 4856 
z
" transform="scale(0.015625)"/>
       <path id="DejaVuSans-Oblique-3b8" d="M 2913 2219 
L 925 2219 
Q 791 1284 928 888 
Q 1100 400 1566 400 
Q 2034 400 2391 891 
Q 2703 1322 2913 2219 
z
M 3009 2750 
Q 3094 3638 2984 3950 
Q 2813 4444 2353 4444 
Q 1875 4444 1525 3956 
Q 1250 3563 1034 2750 
L 3009 2750 
z
M 2444 4913 
Q 3194 4913 3494 4250 
Q 3794 3591 3566 2422 
Q 3341 1256 2781 594 
Q 2225 -72 1475 -72 
Q 722 -72 425 594 
Q 128 1256 353 2422 
Q 581 3591 1134 4250 
Q 1691 4913 2444 4913 
z
" transform="scale(0.015625)"/>
       <path id="DejaVuSans-3b" d="M 750 3309 
L 1409 3309 
L 1409 2516 
L 750 2516 
L 750 3309 
z
M 750 794 
L 1409 794 
L 1409 256 
L 897 -744 
L 494 -744 
L 750 256 
L 750 794 
z
" transform="scale(0.015625)"/>
       <path id="DejaVuSans-29" d="M 513 4856 
L 1013 4856 
Q 1481 4119 1714 3412 
Q 1947 2706 1947 2009 
Q 1947 1309 1714 600 
Q 1481 -109 1013 -844 
L 513 -844 
Q 928 -128 1133 580 
Q 1338 1288 1338 2009 
Q 1338 2731 1133 3434 
Q 928 4138 513 4856 
z
" transform="scale(0.015625)"/>
      </defs>
      <use xlink:href="#DejaVuSans-53" transform="translate(0 0.015625)"/>
      <use xlink:href="#DejaVuSans-6f" transform="translate(63.476562 0.015625)"/>
      <use xlink:href="#DejaVuSans-6c" transform="translate(124.658203 0.015625)"/>
      <use xlink:href="#DejaVuSans-75" transform="translate(152.441406 0.015625)"/>
      <use xlink:href="#DejaVuSans-63" transform="translate(215.820312 0.015625)"/>
      <use xlink:href="#DejaVuSans-69" transform="translate(270.800781 0.015625)"/>
      <use xlink:href="#DejaVuSans-f3" transform="translate(298.583984 0.015625)"/>
      <use xlink:href="#DejaVuSans-6e" transform="translate(359.765625 0.015625)"/>
      <use xlink:href="#DejaVuSans-20" transform="translate(423.144531 0.015625)"/>
      <use xlink:href="#DejaVuSans-Oblique-78" transform="translate(454.931641 0.015625)"/>
      <use xlink:href="#DejaVuSans-28" transform="translate(514.111328 0.015625)"/>
      <use xlink:href="#DejaVuSans-Oblique-3b8" transform="translate(553.125 0.015625)"/>
      <use xlink:href="#DejaVuSans-3b" transform="translate(614.306641 0.015625)"/>
      <use xlink:href="#DejaVuSans-Oblique-74" transform="translate(667.480469 0.015625)"/>
      <use xlink:href="#DejaVuSans-29" transform="translate(706.689453 0.015625)"/>
     </g>
    </g>
   </g>
   <g id="line2d_18">
    <path d="M 62.896094 277.653982 
L 65.154472 256.471106 
L 66.848256 242.697301 
L 67.977445 234.978843 
L 69.106634 228.651559 
L 70.235823 223.849358 
L 70.800418 222.047542 
L 71.365013 220.652954 
L 71.929607 219.666982 
L 72.494202 219.087496 
L 73.058796 218.908871 
L 73.623391 219.122044 
L 74.187986 219.714598 
L 74.75258 220.670873 
L 75.317175 221.972105 
L 76.446364 225.519872 
L 77.575553 230.152512 
L 79.269337 238.597745 
L 84.350688 265.698334 
L 85.479878 270.214154 
L 86.609067 273.618631 
L 87.173661 274.839783 
L 87.738256 275.711247 
L 88.302851 276.214983 
L 88.867445 276.336091 
L 89.43204 276.062941 
L 89.996634 275.38728 
L 90.561229 274.304309 
L 91.125823 272.812732 
L 91.690418 270.914776 
L 92.819607 265.926154 
L 93.948796 259.425634 
L 95.077986 251.553202 
L 96.771769 237.596329 
L 99.030148 216.280945 
L 102.98231 178.217259 
L 104.676094 164.326363 
L 105.805283 156.586215 
L 106.934472 150.334535 
L 108.063661 145.756699 
L 108.628256 144.140062 
L 109.192851 142.988813 
L 109.757445 142.311545 
L 110.32204 142.113315 
L 110.886634 142.395602 
L 111.451229 143.156299 
L 112.015823 144.389726 
L 112.580418 146.086679 
L 113.709607 150.817189 
L 114.838796 157.20721 
L 115.967986 165.067319 
L 117.661769 179.096326 
L 119.920148 200.509847 
L 123.307715 233.396413 
L 125.001499 247.948921 
L 126.130688 256.334917 
L 127.259878 263.421171 
L 128.389067 269.047079 
L 129.518256 273.103259 
L 130.082851 274.523377 
L 130.647445 275.534861 
L 131.21204 276.139623 
L 131.776634 276.343072 
L 132.341229 276.154057 
L 132.905823 275.584789 
L 133.470418 274.650728 
L 134.035013 273.370449 
L 135.164202 269.860106 
L 136.293391 265.257873 
L 137.987175 256.842916 
L 143.068526 229.709699 
L 144.197715 225.162812 
L 145.326905 221.720355 
L 145.891499 220.478016 
L 146.456094 219.584136 
L 147.020688 219.056947 
L 147.585283 218.911549 
L 148.149878 219.159781 
L 148.714472 219.810109 
L 149.279067 220.867548 
L 149.843661 222.333615 
L 150.408256 224.206305 
L 151.537445 229.145991 
L 152.666634 235.601118 
L 153.795823 243.433292 
L 155.489607 257.342486 
L 157.747986 278.623803 
L 161.700148 316.72111 
L 163.393932 330.661682 
L 164.523121 338.444868 
L 165.65231 344.74611 
L 166.781499 349.378584 
L 167.346094 351.023943 
L 167.910688 352.204566 
L 168.475283 352.911643 
L 169.039878 353.139894 
L 169.604472 352.887615 
L 170.169067 352.156689 
L 170.733661 350.952574 
L 171.298256 349.284256 
L 171.862851 347.164178 
L 172.99204 341.635163 
L 174.121229 334.529692 
L 175.250418 326.058044 
L 176.944202 311.343779 
L 179.767175 283.915323 
L 182.590148 257.092736 
L 184.283932 243.221964 
L 185.413121 235.422151 
L 186.54231 229.003462 
L 187.671499 224.103012 
L 188.236094 222.250566 
L 188.800688 220.804926 
L 189.365283 219.767922 
L 189.929878 219.137861 
L 190.494472 218.909554 
L 191.059067 219.074364 
L 191.623661 219.620286 
L 192.188256 220.53206 
L 192.752851 221.791301 
L 193.88204 225.264021 
L 195.011229 229.83561 
L 196.705013 238.219886 
L 201.786364 265.384457 
L 202.915553 269.962176 
L 204.044742 273.442415 
L 204.609337 274.705859 
L 205.173932 275.622084 
L 205.738526 276.172667 
L 206.303121 276.342307 
L 206.867715 276.118961 
L 207.43231 275.493947 
L 207.996905 274.462033 
L 208.561499 273.021483 
L 209.126094 271.174082 
L 210.255283 266.283414 
L 211.384472 259.873816 
L 212.513661 252.082084 
L 214.207445 238.220919 
L 216.465823 216.974241 
L 220.417986 178.844382 
L 222.111769 164.854534 
L 223.240959 157.028536 
L 224.370148 150.677914 
L 225.499337 145.990938 
L 226.063932 144.316905 
L 226.628526 143.106941 
L 227.193121 142.370076 
L 227.757715 142.111811 
L 228.32231 142.334075 
L 228.886905 143.035209 
L 229.451499 144.209977 
L 230.016094 145.849611 
L 230.580688 147.941882 
L 231.709878 153.418732 
L 232.839067 160.477898 
L 233.968256 168.910445 
L 235.66204 183.581932 
L 238.485013 210.986888 
L 241.307986 237.846731 
L 243.001769 251.765463 
L 244.130959 259.60568 
L 245.260148 266.069871 
L 246.389337 271.019324 
L 246.953932 272.897054 
L 247.518526 274.36821 
L 248.083121 275.430741 
L 248.647715 276.086119 
L 249.21231 276.339318 
L 249.776905 276.198761 
L 250.341499 275.676245 
L 250.906094 274.78683 
L 251.470688 273.54871 
L 252.599878 270.113812 
L 253.729067 265.573102 
L 255.422851 257.219909 
L 260.504202 230.025263 
L 261.633391 225.416946 
L 262.76258 221.899124 
L 263.327175 220.614659 
L 263.891769 219.676162 
L 264.456364 219.102245 
L 265.020959 218.908408 
L 265.585553 219.106903 
L 266.150148 219.706623 
L 266.714742 220.713018 
L 267.279337 222.128045 
L 267.843932 223.950137 
L 268.973121 228.791703 
L 270.10231 235.155639 
L 271.231499 242.906748 
L 272.925283 256.719534 
L 275.183661 277.931005 
L 279.135823 316.092346 
L 280.829607 330.131068 
L 281.958796 337.999652 
L 283.087986 344.39947 
L 284.217175 349.140812 
L 284.781769 350.843469 
L 285.346364 352.082738 
L 285.910959 352.84937 
L 286.475553 353.137641 
L 287.040148 352.945399 
L 287.604742 352.274078 
L 288.169337 351.128692 
L 288.733932 349.517789 
L 289.298526 347.453385 
L 290.427715 342.02886 
L 291.556905 335.016203 
L 292.686094 326.622999 
L 294.379878 311.994712 
L 297.202851 284.614027 
L 300.025823 257.71765 
L 301.719607 243.75131 
L 302.848796 235.870871 
L 303.977986 229.361314 
L 305.107175 224.362944 
L 305.671769 222.45995 
L 306.236364 220.963287 
L 306.800959 219.875224 
L 307.365553 219.194508 
L 307.930148 218.916384 
L 308.494742 219.032642 
L 309.059337 219.531694 
L 309.623932 220.39868 
L 310.188526 221.615596 
L 311.317715 225.012474 
L 312.446905 229.522071 
L 313.576094 234.906359 
L 315.834472 247.207743 
L 318.092851 259.587479 
L 319.786634 267.507614 
L 320.915823 271.632739 
L 322.045013 274.566506 
L 322.609607 275.527203 
L 323.174202 276.124394 
L 323.738796 276.342379 
L 324.303391 276.1687 
L 324.867986 275.594252 
L 325.43258 274.613368 
L 325.997175 273.223872 
L 326.561769 271.427109 
L 327.690959 266.634724 
L 328.820148 260.316584 
L 329.949337 252.606277 
L 331.643121 238.842218 
L 333.901499 217.666522 
L 337.853661 179.474769 
L 339.547445 165.387576 
L 340.676634 157.476634 
L 341.805823 151.027806 
L 342.935013 146.232237 
L 343.499607 144.501004 
L 344.064202 143.232465 
L 344.628796 142.436089 
L 345.193391 142.11782 
L 345.757986 142.280036 
L 346.32258 142.921524 
L 346.887175 144.037495 
L 347.451769 145.619619 
L 348.016364 147.656096 
L 349.145553 153.028139 
L 350.274742 159.994082 
L 351.403932 168.347701 
L 353.097715 182.93237 
L 355.920688 210.288015 
L 358.743661 237.2202 
L 360.437445 251.233794 
L 361.566634 259.15427 
L 362.695823 265.709056 
L 363.825013 270.756259 
L 364.389607 272.684492 
L 364.954202 274.206654 
L 365.518796 275.320255 
L 366.083391 276.026326 
L 366.647986 276.329407 
L 367.21258 276.237493 
L 367.777175 275.761964 
L 368.341769 274.917479 
L 368.906364 273.721849 
L 370.035553 270.363185 
L 371.164742 265.884935 
L 372.293932 260.524061 
L 374.55231 248.242833 
L 376.810688 235.845939 
L 378.504472 227.889651 
L 379.633661 223.73073 
L 380.762851 220.756711 
L 381.327445 219.773888 
L 381.89204 219.153486 
L 382.456634 218.911401 
L 383.021229 219.060299 
L 383.585823 219.609496 
L 384.150418 220.564878 
L 384.715013 221.928839 
L 385.279607 223.700254 
L 386.408796 228.443379 
L 387.537986 234.715594 
L 388.667175 242.384918 
L 390.360959 256.099905 
L 392.619337 277.23926 
L 396.571499 315.460353 
L 398.265283 329.595613 
L 399.394472 337.548685 
L 400.523661 344.046335 
L 401.652851 348.895993 
L 402.217445 350.655751 
L 402.78204 351.953521 
L 403.346634 352.779618 
L 403.911229 353.127876 
L 404.475823 352.995693 
L 405.040418 352.384056 
L 405.605013 351.297532 
L 406.169607 349.744232 
L 406.734202 347.735742 
L 407.863391 342.416337 
L 408.99258 335.497309 
L 410.121769 327.183517 
L 411.815553 312.642884 
L 414.638526 285.313048 
L 417.461499 258.345783 
L 419.155283 244.285288 
L 420.284472 236.324962 
L 421.413661 229.725086 
L 422.542851 224.629138 
L 423.107445 222.675688 
L 423.67204 221.128037 
L 424.236634 219.988896 
L 424.801229 219.25745 
L 425.365823 218.929381 
L 425.930418 218.996906 
L 426.495013 219.448856 
L 427.059607 220.270771 
L 427.624202 221.445034 
L 428.753391 224.765287 
L 429.88258 229.211959 
L 431.011769 234.549157 
L 433.270148 246.809656 
L 435.528526 259.22313 
L 437.22231 267.21518 
L 438.351499 271.407676 
L 439.480688 274.421764 
L 440.045283 275.426639 
L 440.609878 276.070191 
L 441.174472 276.336326 
L 441.739067 276.212173 
L 442.303661 275.688203 
L 442.868256 274.758314 
L 443.432851 273.419893 
L 443.997445 271.673844 
L 445.126634 266.980056 
L 446.255823 260.753897 
L 447.385013 253.125732 
L 449.078796 239.460162 
L 451.337175 218.357711 
L 455.289337 180.108349 
L 456.983121 165.925428 
L 458.11231 157.930457 
L 459.241499 151.384173 
L 460.370688 146.480568 
L 460.935283 144.692336 
L 461.499878 143.365372 
L 462.064472 142.509577 
L 462.629067 142.131342 
L 463.193661 142.233489 
L 463.758256 142.815257 
L 464.322851 143.872301 
L 464.887445 145.396732 
L 465.45204 147.377176 
L 466.581229 152.643788 
L 467.710418 159.5157 
L 468.839607 167.789425 
L 470.533391 182.285606 
L 472.791769 203.994921 
L 476.179337 236.590481 
L 477.873121 250.697521 
L 479.00231 258.697509 
L 480.131499 265.342334 
L 481.260688 270.486939 
L 481.825283 272.465581 
L 482.389878 274.03871 
L 482.954472 275.203396 
L 483.519067 275.960233 
L 484.083661 276.31332 
L 484.648256 276.270227 
L 485.212851 275.841914 
L 485.777445 275.042637 
L 486.34204 273.889822 
L 487.471229 270.608173 
L 488.600418 266.193311 
L 489.729607 260.880049 
L 491.423391 251.812062 
L 494.810959 233.353276 
L 495.940148 228.183955 
L 497.069337 223.958107 
L 498.198526 220.904134 
L 498.763121 219.877282 
L 499.327715 219.210642 
L 499.89231 218.920508 
L 500.456905 219.019954 
L 501.021499 219.518721 
L 501.586094 220.423127 
L 502.150688 221.736004 
L 502.715283 223.45667 
L 503.844472 228.101046 
L 504.973661 234.281022 
L 506.102851 241.867851 
L 507.796634 255.483663 
L 510.055013 276.548645 
L 514.007175 314.825204 
L 515.700959 329.055379 
L 516.830148 337.092019 
L 517.959337 343.686747 
L 519.088526 348.644156 
L 519.653121 350.46081 
L 520.217715 351.816929 
L 520.78231 352.702396 
L 521.346905 353.110599 
L 521.911499 353.03849 
L 522.476094 352.486608 
L 523.040688 351.459074 
L 523.605283 349.963558 
L 524.169878 348.011217 
L 525.299067 342.797551 
L 526.428256 335.972954 
L 527.557445 327.739534 
L 529.251229 313.288222 
L 531.509607 291.605738 
L 534.897175 258.97707 
L 536.590959 244.823845 
L 537.720148 236.784382 
L 538.849337 230.09475 
L 539.978526 224.90158 
L 541.107715 221.299175 
L 541.67231 220.108942 
L 542.236905 219.326699 
L 542.801499 218.948563 
L 543.366094 218.967181 
L 543.930688 219.371802 
L 544.495283 220.148372 
L 545.059878 221.279659 
L 545.624472 222.745408 
L 546.753661 226.585216 
L 547.882851 231.452497 
L 549.576634 240.125259 
L 553.528796 261.724269 
L 554.657986 266.919021 
L 555.787175 271.177997 
L 556.916364 274.271672 
L 557.480959 275.320425 
L 558.045553 276.010088 
L 558.610148 276.324171 
L 559.174742 276.249394 
L 559.739337 275.775806 
L 560.303932 274.896872 
L 560.868526 273.60954 
L 561.433121 271.914275 
L 562.56231 267.319385 
L 563.691499 261.185717 
L 564.820688 253.640398 
L 566.514472 240.074686 
L 568.208256 224.516924 
L 573.289607 175.742842 
L 574.983391 162.263612 
L 576.11258 154.875719 
L 577.241769 149.026955 
L 578.370959 144.89088 
L 578.935553 143.505645 
L 579.500148 142.590532 
L 580.064742 142.152374 
L 580.629337 142.194441 
L 581.193932 142.716421 
L 581.758526 143.714415 
L 582.323121 145.180973 
L 582.887715 147.105155 
L 584.016905 152.265723 
L 585.146094 159.042807 
L 586.275283 167.235683 
L 587.969067 181.641714 
L 590.227445 203.296753 
L 593.615013 235.957642 
L 595.308796 250.156693 
L 596.437986 258.235439 
L 597.567175 264.969735 
L 598.696364 270.211379 
L 599.825553 273.864379 
L 600.390148 275.080161 
L 600.954742 275.887826 
L 601.519337 276.291039 
L 602.083932 276.296937 
L 602.648526 275.916063 
L 603.213121 275.162268 
L 603.777715 274.052588 
L 604.34231 272.607095 
L 605.471499 268.803066 
L 606.600688 263.964268 
L 608.294472 255.318511 
L 612.811229 230.991658 
L 613.940418 226.204759 
L 615.069607 222.465682 
L 615.634202 221.056886 
L 616.198796 219.986307 
L 616.763391 219.273686 
L 617.327986 218.935706 
L 617.89258 218.985852 
L 618.457175 219.434288 
L 619.021769 220.287762 
L 619.586364 221.549546 
L 620.150959 223.219396 
L 621.280148 227.764728 
L 622.409337 233.851962 
L 623.538526 241.355597 
L 625.23231 254.870871 
L 626.926094 270.396279 
L 626.926094 270.396279 
" clip-path="url(#p57c0ddfd2d)" style="fill: none; stroke: #1a1a1a; stroke-opacity: 0.7; stroke-width: 1.5; stroke-linecap: round"/>
   </g>
   <g id="line2d_19">
    <path d="M 62.896094 247.625759 
L 626.926094 247.625759 
" clip-path="url(#p57c0ddfd2d)" style="fill: none; stroke: #000000; stroke-width: 0.8; stroke-linecap: round"/>
   </g>
   <g id="line2d_20">
    <path d="M 344.911094 405.897187 
L 344.911094 36.597187 
" clip-path="url(#p57c0ddfd2d)" style="fill: none; stroke: #000000; stroke-width: 0.8; stroke-linecap: round"/>
   </g>
   <g id="patch_3">
    <path d="M 62.896094 405.897187 
L 62.896094 36.597187 
" style="fill: none; stroke: #cccccc; stroke-width: 1.25; stroke-linejoin: miter; stroke-linecap: square"/>
   </g>
   <g id="patch_4">
    <path d="M 626.926094 405.897187 
L 626.926094 36.597187 
" style="fill: none; stroke: #cccccc; stroke-width: 1.25; stroke-linejoin: miter; stroke-linecap: square"/>
   </g>
   <g id="patch_5">
    <path d="M 62.896094 405.897187 
L 626.926094 405.897187 
" style="fill: none; stroke: #cccccc; stroke-width: 1.25; stroke-linejoin: miter; stroke-linecap: square"/>
   </g>
   <g id="patch_6">
    <path d="M 62.896094 36.597187 
L 626.926094 36.597187 
" style="fill: none; stroke: #cccccc; stroke-width: 1.25; stroke-linejoin: miter; stroke-linecap: square"/>
   </g>
   <g id="text_20">
    <!-- Sincronización de Sampleo y Frecuencia Natural -->
    <g style="fill: #262626" transform="translate(128.191094 21.597187) scale(0.18 -0.18)">
     <defs>
      <path id="DejaVuSans-7a" d="M 353 3500 
L 3084 3500 
L 3084 2975 
L 922 459 
L 3084 459 
L 3084 0 
L 275 0 
L 275 525 
L 2438 3041 
L 353 3041 
L 353 3500 
z
" transform="scale(0.015625)"/>
      <path id="DejaVuSans-6d" d="M 3328 2828 
Q 3544 3216 3844 3400 
Q 4144 3584 4550 3584 
Q 5097 3584 5394 3201 
Q 5691 2819 5691 2113 
L 5691 0 
L 5113 0 
L 5113 2094 
Q 5113 2597 4934 2840 
Q 4756 3084 4391 3084 
Q 3944 3084 3684 2787 
Q 3425 2491 3425 1978 
L 3425 0 
L 2847 0 
L 2847 2094 
Q 2847 2600 2669 2842 
Q 2491 3084 2119 3084 
Q 1678 3084 1418 2786 
Q 1159 2488 1159 1978 
L 1159 0 
L 581 0 
L 581 3500 
L 1159 3500 
L 1159 2956 
Q 1356 3278 1631 3431 
Q 1906 3584 2284 3584 
Q 2666 3584 2933 3390 
Q 3200 3197 3328 2828 
z
" transform="scale(0.015625)"/>
      <path id="DejaVuSans-79" d="M 2059 -325 
Q 1816 -950 1584 -1140 
Q 1353 -1331 966 -1331 
L 506 -1331 
L 506 -850 
L 844 -850 
Q 1081 -850 1212 -737 
Q 1344 -625 1503 -206 
L 1606 56 
L 191 3500 
L 800 3500 
L 1894 763 
L 2988 3500 
L 3597 3500 
L 2059 -325 
z
" transform="scale(0.015625)"/>
      <path id="DejaVuSans-46" d="M 628 4666 
L 3309 4666 
L 3309 4134 
L 1259 4134 
L 1259 2759 
L 3109 2759 
L 3109 2228 
L 1259 2228 
L 1259 0 
L 628 0 
L 628 4666 
z
" transform="scale(0.015625)"/>
      <path id="DejaVuSans-4e" d="M 628 4666 
L 1478 4666 
L 3547 763 
L 3547 4666 
L 4159 4666 
L 4159 0 
L 3309 0 
L 1241 3903 
L 1241 0 
L 628 0 
L 628 4666 
z
" transform="scale(0.015625)"/>
     </defs>
     <use xlink:href="#DejaVuSans-53"/>
     <use xlink:href="#DejaVuSans-69" transform="translate(63.476562 0)"/>
     <use xlink:href="#DejaVuSans-6e" transform="translate(91.259766 0)"/>
     <use xlink:href="#DejaVuSans-63" transform="translate(154.638672 0)"/>
     <use xlink:href="#DejaVuSans-72" transform="translate(209.619141 0)"/>
     <use xlink:href="#DejaVuSans-6f" transform="translate(248.482422 0)"/>
     <use xlink:href="#DejaVuSans-6e" transform="translate(309.664062 0)"/>
     <use xlink:href="#DejaVuSans-69" transform="translate(373.042969 0)"/>
     <use xlink:href="#DejaVuSans-7a" transform="translate(400.826172 0)"/>
     <use xlink:href="#DejaVuSans-61" transform="translate(453.316406 0)"/>
     <use xlink:href="#DejaVuSans-63" transform="translate(514.595703 0)"/>
     <use xlink:href="#DejaVuSans-69" transform="translate(569.576172 0)"/>
     <use xlink:href="#DejaVuSans-f3" transform="translate(597.359375 0)"/>
     <use xlink:href="#DejaVuSans-6e" transform="translate(658.541016 0)"/>
     <use xlink:href="#DejaVuSans-20" transform="translate(721.919922 0)"/>
     <use xlink:href="#DejaVuSans-64" transform="translate(753.707031 0)"/>
     <use xlink:href="#DejaVuSans-65" transform="translate(817.183594 0)"/>
     <use xlink:href="#DejaVuSans-20" transform="translate(878.707031 0)"/>
     <use xlink:href="#DejaVuSans-53" transform="translate(910.494141 0)"/>
     <use xlink:href="#DejaVuSans-61" transform="translate(973.970703 0)"/>
     <use xlink:href="#DejaVuSans-6d" transform="translate(1035.25 0)"/>
     <use xlink:href="#DejaVuSans-70" transform="translate(1132.662109 0)"/>
     <use xlink:href="#DejaVuSans-6c" transform="translate(1196.138672 0)"/>
     <use xlink:href="#DejaVuSans-65" transform="translate(1223.921875 0)"/>
     <use xlink:href="#DejaVuSans-6f" transform="translate(1285.445312 0)"/>
     <use xlink:href="#DejaVuSans-20" transform="translate(1346.626953 0)"/>
     <use xlink:href="#DejaVuSans-79" transform="translate(1378.414062 0)"/>
     <use xlink:href="#DejaVuSans-20" transform="translate(1437.59375 0)"/>
     <use xlink:href="#DejaVuSans-46" transform="translate(1469.380859 0)"/>
     <use xlink:href="#DejaVuSans-72" transform="translate(1519.650391 0)"/>
     <use xlink:href="#DejaVuSans-65" transform="translate(1558.513672 0)"/>
     <use xlink:href="#DejaVuSans-63" transform="translate(1620.037109 0)"/>
     <use xlink:href="#DejaVuSans-75" transform="translate(1675.017578 0)"/>
     <use xlink:href="#DejaVuSans-65" transform="translate(1738.396484 0)"/>
     <use xlink:href="#DejaVuSans-6e" transform="translate(1799.919922 0)"/>
     <use xlink:href="#DejaVuSans-63" transform="translate(1863.298828 0)"/>
     <use xlink:href="#DejaVuSans-69" transform="translate(1918.279297 0)"/>
     <use xlink:href="#DejaVuSans-61" transform="translate(1946.0625 0)"/>
     <use xlink:href="#DejaVuSans-20" transform="translate(2007.341797 0)"/>
     <use xlink:href="#DejaVuSans-4e" transform="translate(2039.128906 0)"/>
     <use xlink:href="#DejaVuSans-61" transform="translate(2113.933594 0)"/>
     <use xlink:href="#DejaVuSans-74" transform="translate(2175.212891 0)"/>
     <use xlink:href="#DejaVuSans-75" transform="translate(2214.421875 0)"/>
     <use xlink:href="#DejaVuSans-72" transform="translate(2277.800781 0)"/>
     <use xlink:href="#DejaVuSans-61" transform="translate(2318.914062 0)"/>
     <use xlink:href="#DejaVuSans-6c" transform="translate(2380.193359 0)"/>
    </g>
   </g>
   <g id="legend_1">
    <g id="patch_7">
     <path d="M 409.935469 117.24875 
L 618.426094 117.24875 
Q 621.426094 117.24875 621.426094 114.24875 
L 621.426094 49.097187 
Q 621.426094 46.097187 618.426094 46.097187 
L 409.935469 46.097187 
Q 406.935469 46.097187 406.935469 49.097187 
L 406.935469 114.24875 
Q 406.935469 117.24875 409.935469 117.24875 
z
" style="fill: #4d4d4d; opacity: 0.5; stroke: #4d4d4d; stroke-linejoin: miter"/>
    </g>
    <g id="patch_8">
     <path d="M 407.935469 115.24875 
L 616.426094 115.24875 
Q 619.426094 115.24875 619.426094 112.24875 
L 619.426094 47.097187 
Q 619.426094 44.097187 616.426094 44.097187 
L 407.935469 44.097187 
Q 404.935469 44.097187 404.935469 47.097187 
L 404.935469 112.24875 
Q 404.935469 115.24875 407.935469 115.24875 
z
" style="fill: #ffffff; stroke: #cccccc; stroke-linejoin: miter"/>
    </g>
    <g id="line2d_21">
     <path d="M 410.935469 56.844844 
L 425.935469 56.844844 
L 440.935469 56.844844 
" style="fill: none; stroke: #1a1a1a; stroke-opacity: 0.7; stroke-width: 1.5; stroke-linecap: round"/>
    </g>
    <g id="text_21">
     <!-- Función Original -->
     <g style="fill: #262626" transform="translate(452.935469 62.094844) scale(0.15 -0.15)">
      <defs>
       <path id="DejaVuSans-4f" d="M 2522 4238 
Q 1834 4238 1429 3725 
Q 1025 3213 1025 2328 
Q 1025 1447 1429 934 
Q 1834 422 2522 422 
Q 3209 422 3611 934 
Q 4013 1447 4013 2328 
Q 4013 3213 3611 3725 
Q 3209 4238 2522 4238 
z
M 2522 4750 
Q 3503 4750 4090 4092 
Q 4678 3434 4678 2328 
Q 4678 1225 4090 567 
Q 3503 -91 2522 -91 
Q 1538 -91 948 565 
Q 359 1222 359 2328 
Q 359 3434 948 4092 
Q 1538 4750 2522 4750 
z
" transform="scale(0.015625)"/>
       <path id="DejaVuSans-67" d="M 2906 1791 
Q 2906 2416 2648 2759 
Q 2391 3103 1925 3103 
Q 1463 3103 1205 2759 
Q 947 2416 947 1791 
Q 947 1169 1205 825 
Q 1463 481 1925 481 
Q 2391 481 2648 825 
Q 2906 1169 2906 1791 
z
M 3481 434 
Q 3481 -459 3084 -895 
Q 2688 -1331 1869 -1331 
Q 1566 -1331 1297 -1286 
Q 1028 -1241 775 -1147 
L 775 -588 
Q 1028 -725 1275 -790 
Q 1522 -856 1778 -856 
Q 2344 -856 2625 -561 
Q 2906 -266 2906 331 
L 2906 616 
Q 2728 306 2450 153 
Q 2172 0 1784 0 
Q 1141 0 747 490 
Q 353 981 353 1791 
Q 353 2603 747 3093 
Q 1141 3584 1784 3584 
Q 2172 3584 2450 3431 
Q 2728 3278 2906 2969 
L 2906 3500 
L 3481 3500 
L 3481 434 
z
" transform="scale(0.015625)"/>
      </defs>
      <use xlink:href="#DejaVuSans-46"/>
      <use xlink:href="#DejaVuSans-75" transform="translate(52.019531 0)"/>
      <use xlink:href="#DejaVuSans-6e" transform="translate(115.398438 0)"/>
      <use xlink:href="#DejaVuSans-63" transform="translate(178.777344 0)"/>
      <use xlink:href="#DejaVuSans-69" transform="translate(233.757812 0)"/>
      <use xlink:href="#DejaVuSans-f3" transform="translate(261.541016 0)"/>
      <use xlink:href="#DejaVuSans-6e" transform="translate(322.722656 0)"/>
      <use xlink:href="#DejaVuSans-20" transform="translate(386.101562 0)"/>
      <use xlink:href="#DejaVuSans-4f" transform="translate(417.888672 0)"/>
      <use xlink:href="#DejaVuSans-72" transform="translate(496.599609 0)"/>
      <use xlink:href="#DejaVuSans-69" transform="translate(537.712891 0)"/>
      <use xlink:href="#DejaVuSans-67" transform="translate(565.496094 0)"/>
      <use xlink:href="#DejaVuSans-69" transform="translate(628.972656 0)"/>
      <use xlink:href="#DejaVuSans-6e" transform="translate(656.755859 0)"/>
      <use xlink:href="#DejaVuSans-61" transform="translate(720.134766 0)"/>
      <use xlink:href="#DejaVuSans-6c" transform="translate(781.414062 0)"/>
     </g>
    </g>
    <g id="line2d_22">
     <path d="M 410.935469 78.862031 
L 425.935469 78.862031 
L 440.935469 78.862031 
" style="fill: none; stroke: #8b0000; stroke-width: 1.5; stroke-linecap: round"/>
    </g>
    <g id="text_22">
     <!-- Aproximador Suave -->
     <g style="fill: #262626" transform="translate(452.935469 84.112031) scale(0.15 -0.15)">
      <defs>
       <path id="DejaVuSans-41" d="M 2188 4044 
L 1331 1722 
L 3047 1722 
L 2188 4044 
z
M 1831 4666 
L 2547 4666 
L 4325 0 
L 3669 0 
L 3244 1197 
L 1141 1197 
L 716 0 
L 50 0 
L 1831 4666 
z
" transform="scale(0.015625)"/>
       <path id="DejaVuSans-78" d="M 3513 3500 
L 2247 1797 
L 3578 0 
L 2900 0 
L 1881 1375 
L 863 0 
L 184 0 
L 1544 1831 
L 300 3500 
L 978 3500 
L 1906 2253 
L 2834 3500 
L 3513 3500 
z
" transform="scale(0.015625)"/>
       <path id="DejaVuSans-76" d="M 191 3500 
L 800 3500 
L 1894 563 
L 2988 3500 
L 3597 3500 
L 2284 0 
L 1503 0 
L 191 3500 
z
" transform="scale(0.015625)"/>
      </defs>
      <use xlink:href="#DejaVuSans-41"/>
      <use xlink:href="#DejaVuSans-70" transform="translate(68.408203 0)"/>
      <use xlink:href="#DejaVuSans-72" transform="translate(131.884766 0)"/>
      <use xlink:href="#DejaVuSans-6f" transform="translate(170.748047 0)"/>
      <use xlink:href="#DejaVuSans-78" transform="translate(228.804688 0)"/>
      <use xlink:href="#DejaVuSans-69" transform="translate(287.984375 0)"/>
      <use xlink:href="#DejaVuSans-6d" transform="translate(315.767578 0)"/>
      <use xlink:href="#DejaVuSans-61" transform="translate(413.179688 0)"/>
      <use xlink:href="#DejaVuSans-64" transform="translate(474.458984 0)"/>
      <use xlink:href="#DejaVuSans-6f" transform="translate(537.935547 0)"/>
      <use xlink:href="#DejaVuSans-72" transform="translate(599.117188 0)"/>
      <use xlink:href="#DejaVuSans-20" transform="translate(640.230469 0)"/>
      <use xlink:href="#DejaVuSans-53" transform="translate(672.017578 0)"/>
      <use xlink:href="#DejaVuSans-75" transform="translate(735.494141 0)"/>
      <use xlink:href="#DejaVuSans-61" transform="translate(798.873047 0)"/>
      <use xlink:href="#DejaVuSans-76" transform="translate(860.152344 0)"/>
      <use xlink:href="#DejaVuSans-65" transform="translate(919.332031 0)"/>
     </g>
    </g>
    <g id="line2d_23">
     <defs>
      <path id="mfef8bdb9d0" d="M 0 3 
C 0.795609 3 1.55874 2.683901 2.12132 2.12132 
C 2.683901 1.55874 3 0.795609 3 0 
C 3 -0.795609 2.683901 -1.55874 2.12132 -2.12132 
C 1.55874 -2.683901 0.795609 -3 0 -3 
C -0.795609 -3 -1.55874 -2.683901 -2.12132 -2.12132 
C -2.683901 -1.55874 -3 -0.795609 -3 0 
C -3 0.795609 -2.683901 1.55874 -2.12132 2.12132 
C -1.55874 2.683901 -0.795609 3 0 3 
z
" style="stroke: #1a1a1a"/>
     </defs>
     <g>
      <use xlink:href="#mfef8bdb9d0" x="425.935469" y="100.879219" style="fill: #1a1a1a; stroke: #1a1a1a"/>
     </g>
    </g>
    <g id="text_23">
     <!-- Puntos de Colocación -->
     <g style="fill: #262626" transform="translate(452.935469 106.129219) scale(0.15 -0.15)">
      <defs>
       <path id="DejaVuSans-50" d="M 1259 4147 
L 1259 2394 
L 2053 2394 
Q 2494 2394 2734 2622 
Q 2975 2850 2975 3272 
Q 2975 3691 2734 3919 
Q 2494 4147 2053 4147 
L 1259 4147 
z
M 628 4666 
L 2053 4666 
Q 2838 4666 3239 4311 
Q 3641 3956 3641 3272 
Q 3641 2581 3239 2228 
Q 2838 1875 2053 1875 
L 1259 1875 
L 1259 0 
L 628 0 
L 628 4666 
z
" transform="scale(0.015625)"/>
       <path id="DejaVuSans-43" d="M 4122 4306 
L 4122 3641 
Q 3803 3938 3442 4084 
Q 3081 4231 2675 4231 
Q 1875 4231 1450 3742 
Q 1025 3253 1025 2328 
Q 1025 1406 1450 917 
Q 1875 428 2675 428 
Q 3081 428 3442 575 
Q 3803 722 4122 1019 
L 4122 359 
Q 3791 134 3420 21 
Q 3050 -91 2638 -91 
Q 1578 -91 968 557 
Q 359 1206 359 2328 
Q 359 3453 968 4101 
Q 1578 4750 2638 4750 
Q 3056 4750 3426 4639 
Q 3797 4528 4122 4306 
z
" transform="scale(0.015625)"/>
      </defs>
      <use xlink:href="#DejaVuSans-50"/>
      <use xlink:href="#DejaVuSans-75" transform="translate(58.552734 0)"/>
      <use xlink:href="#DejaVuSans-6e" transform="translate(121.931641 0)"/>
      <use xlink:href="#DejaVuSans-74" transform="translate(185.310547 0)"/>
      <use xlink:href="#DejaVuSans-6f" transform="translate(224.519531 0)"/>
      <use xlink:href="#DejaVuSans-73" transform="translate(285.701172 0)"/>
      <use xlink:href="#DejaVuSans-20" transform="translate(337.800781 0)"/>
      <use xlink:href="#DejaVuSans-64" transform="translate(369.587891 0)"/>
      <use xlink:href="#DejaVuSans-65" transform="translate(433.064453 0)"/>
      <use xlink:href="#DejaVuSans-20" transform="translate(494.587891 0)"/>
      <use xlink:href="#DejaVuSans-43" transform="translate(526.375 0)"/>
      <use xlink:href="#DejaVuSans-6f" transform="translate(596.199219 0)"/>
      <use xlink:href="#DejaVuSans-6c" transform="translate(657.380859 0)"/>
      <use xlink:href="#DejaVuSans-6f" transform="translate(685.164062 0)"/>
      <use xlink:href="#DejaVuSans-63" transform="translate(746.345703 0)"/>
      <use xlink:href="#DejaVuSans-61" transform="translate(801.326172 0)"/>
      <use xlink:href="#DejaVuSans-63" transform="translate(862.605469 0)"/>
      <use xlink:href="#DejaVuSans-69" transform="translate(917.585938 0)"/>
      <use xlink:href="#DejaVuSans-f3" transform="translate(945.369141 0)"/>
      <use xlink:href="#DejaVuSans-6e" transform="translate(1006.550781 0)"/>
     </g>
    </g>
   </g>
   <g id="line2d_24">
    <path d="M 109.898594 142.111473 
L 227.404844 142.111473 
L 344.911094 142.111473 
L 462.417344 142.111473 
L 579.923594 142.111473 
" clip-path="url(#p57c0ddfd2d)" style="fill: none; stroke: #8b0000; stroke-width: 1.5; stroke-linecap: round"/>
   </g>
   <g id="line2d_25">
    <g clip-path="url(#p57c0ddfd2d)">
     <use xlink:href="#mfef8bdb9d0" x="109.898594" y="142.111473" style="fill: #1a1a1a; stroke: #1a1a1a"/>
     <use xlink:href="#mfef8bdb9d0" x="227.404844" y="142.111473" style="fill: #1a1a1a; stroke: #1a1a1a"/>
     <use xlink:href="#mfef8bdb9d0" x="344.911094" y="142.111473" style="fill: #1a1a1a; stroke: #1a1a1a"/>
     <use xlink:href="#mfef8bdb9d0" x="462.417344" y="142.111473" style="fill: #1a1a1a; stroke: #1a1a1a"/>
     <use xlink:href="#mfef8bdb9d0" x="579.923594" y="142.111473" style="fill: #1a1a1a; stroke: #1a1a1a"/>
    </g>
   </g>
  </g>
 </g>
 <defs>
  <clipPath id="p57c0ddfd2d">
   <rect x="62.896094" y="36.597187" width="564.03" height="369.3"/>
  </clipPath>
 </defs>
</svg>
